FrauncesItalic-9ptS000Thin.ufo
<glyph name="numbersign" format="2">
  <advance width="1235"/>
  <unicode hex="0023"/>
  <outline>
    <contour>
      <point x="550" y="690" type="curve" smooth="yes"/>
      <point x="628" y="809"/>
      <point x="832" y="1248"/>
      <point x="901" y="1347" type="curve" smooth="yes"/>
      <point x="921" y="1377"/>
      <point x="921" y="1391"/>
      <point x="907" y="1395" type="curve" smooth="yes"/>
      <point x="890" y="1401"/>
      <point x="871" y="1390"/>
      <point x="851" y="1362" type="curve" smooth="yes"/>
      <point x="788" y="1262"/>
      <point x="589" y="827"/>
      <point x="511" y="709" type="curve" smooth="yes"/>
      <point x="433" y="593"/>
      <point x="209" y="139"/>
      <point x="141" y="41" type="curve" smooth="yes"/>
      <point x="126" y="18"/>
      <point x="126" y="1"/>
      <point x="142" y="-1" type="curve" smooth="yes"/>
      <point x="161" y="-5"/>
      <point x="178" y="7"/>
      <point x="195" y="30" type="curve" smooth="yes"/>
      <point x="254" y="116"/>
      <point x="472" y="575"/>
    </contour>
    <contour>
      <point x="787" y="873" type="curve" smooth="yes"/>
      <point x="893" y="873"/>
      <point x="1158" y="866"/>
      <point x="1247" y="865" type="curve" smooth="yes"/>
      <point x="1279" y="866"/>
      <point x="1300" y="874"/>
      <point x="1306" y="891" type="curve" smooth="yes"/>
      <point x="1311" y="906"/>
      <point x="1295" y="913"/>
      <point x="1265" y="913" type="curve" smooth="yes"/>
      <point x="1175" y="912"/>
      <point x="907" y="910"/>
      <point x="800" y="910" type="curve" smooth="yes"/>
      <point x="687" y="908"/>
      <point x="406" y="918"/>
      <point x="310" y="917" type="curve" smooth="yes"/>
      <point x="284" y="917"/>
      <point x="267" y="910"/>
      <point x="262" y="894" type="curve" smooth="yes"/>
      <point x="256" y="878"/>
      <point x="268" y="869"/>
      <point x="295" y="869" type="curve" smooth="yes"/>
      <point x="389" y="869"/>
      <point x="677" y="871"/>
    </contour>
    <contour>
      <point x="868" y="690" type="curve" smooth="yes"/>
      <point x="945" y="809"/>
      <point x="1150" y="1248"/>
      <point x="1218" y="1347" type="curve" smooth="yes"/>
      <point x="1238" y="1377"/>
      <point x="1239" y="1391"/>
      <point x="1224" y="1395" type="curve" smooth="yes"/>
      <point x="1207" y="1401"/>
      <point x="1189" y="1390"/>
      <point x="1170" y="1362" type="curve" smooth="yes"/>
      <point x="1104" y="1262"/>
      <point x="907" y="827"/>
      <point x="829" y="709" type="curve" smooth="yes"/>
      <point x="749" y="593"/>
      <point x="526" y="139"/>
      <point x="458" y="41" type="curve" smooth="yes"/>
      <point x="443" y="18"/>
      <point x="443" y="1"/>
      <point x="459" y="-1" type="curve" smooth="yes"/>
      <point x="479" y="-5"/>
      <point x="496" y="7"/>
      <point x="512" y="30" type="curve" smooth="yes"/>
      <point x="571" y="117"/>
      <point x="789" y="575"/>
    </contour>
    <contour>
      <point x="593" y="491" type="curve" smooth="yes"/>
      <point x="699" y="491"/>
      <point x="965" y="485"/>
      <point x="1053" y="484" type="curve" smooth="yes"/>
      <point x="1085" y="484"/>
      <point x="1106" y="493"/>
      <point x="1113" y="510" type="curve" smooth="yes"/>
      <point x="1117" y="525"/>
      <point x="1101" y="532"/>
      <point x="1072" y="532" type="curve" smooth="yes"/>
      <point x="982" y="530"/>
      <point x="713" y="528"/>
      <point x="607" y="528" type="curve" smooth="yes"/>
      <point x="494" y="526"/>
      <point x="212" y="536"/>
      <point x="118" y="536" type="curve" smooth="yes"/>
      <point x="91" y="536"/>
      <point x="73" y="528"/>
      <point x="68" y="512" type="curve" smooth="yes"/>
      <point x="63" y="496"/>
      <point x="74" y="487"/>
      <point x="101" y="488" type="curve" smooth="yes"/>
      <point x="195" y="487"/>
      <point x="484" y="489"/>
    </contour>
  </outline>
</glyph>
<glyph name="dollar" format="2">
  <advance width="1106"/>
  <unicode hex="0024"/>
  <outline>
    <contour>
      <point x="457" y="7" type="curve" smooth="yes"/>
      <point x="681" y="7"/>
      <point x="875" y="112"/>
      <point x="922" y="282" type="curve" smooth="yes"/>
      <point x="966" y="452"/>
      <point x="881" y="597"/>
      <point x="645" y="717" type="curve" smooth="yes"/>
      <point x="413" y="836"/>
      <point x="353" y="952"/>
      <point x="396" y="1107" type="curve" smooth="yes"/>
      <point x="434" y="1250"/>
      <point x="596" y="1356"/>
      <point x="806" y="1356" type="curve" smooth="yes"/>
      <point x="982" y="1356"/>
      <point x="1063" y="1280"/>
      <point x="1043" y="1156" type="curve" smooth="yes"/>
      <point x="1035" y="1103" type="line" smooth="yes"/>
      <point x="1030" y="1076"/>
      <point x="1042" y="1057"/>
      <point x="1072" y="1057" type="curve" smooth="yes"/>
      <point x="1099" y="1057"/>
      <point x="1128" y="1083"/>
      <point x="1137" y="1135" type="curve" smooth="yes"/>
      <point x="1167" y="1283"/>
      <point x="1049" y="1390"/>
      <point x="822" y="1390" type="curve" smooth="yes"/>
      <point x="561" y="1390"/>
      <point x="379" y="1260"/>
      <point x="333" y="1097" type="curve" smooth="yes"/>
      <point x="285" y="920"/>
      <point x="347" y="780"/>
      <point x="612" y="657" type="curve" smooth="yes"/>
      <point x="827" y="554"/>
      <point x="895" y="425"/>
      <point x="855" y="273" type="curve" smooth="yes"/>
      <point x="816" y="130"/>
      <point x="666" y="43"/>
      <point x="468" y="43" type="curve" smooth="yes"/>
      <point x="269" y="43"/>
      <point x="172" y="125"/>
      <point x="196" y="252" type="curve" smooth="yes"/>
      <point x="207" y="315" type="line" smooth="yes"/>
      <point x="214" y="354"/>
      <point x="205" y="374"/>
      <point x="177" y="374" type="curve" smooth="yes"/>
      <point x="147" y="374"/>
      <point x="116" y="344"/>
      <point x="105" y="285" type="curve" smooth="yes"/>
      <point x="73" y="126"/>
      <point x="223" y="7"/>
    </contour>
    <contour>
      <point x="652" y="699" type="line"/>
      <point x="817" y="1303"/>
      <point x="872" y="1410"/>
      <point x="886" y="1462" type="curve" smooth="yes"/>
      <point x="897" y="1496"/>
      <point x="883" y="1513"/>
      <point x="859" y="1513" type="curve" smooth="yes"/>
      <point x="834" y="1513"/>
      <point x="808" y="1496"/>
      <point x="797" y="1463" type="curve" smooth="yes"/>
      <point x="782" y="1409"/>
      <point x="775" y="1302"/>
      <point x="609" y="699" type="curve"/>
    </contour>
    <contour>
      <point x="605" y="684" type="line"/>
      <point x="447" y="102"/>
      <point x="399" y="-2"/>
      <point x="384" y="-57" type="curve" smooth="yes"/>
      <point x="371" y="-96"/>
      <point x="383" y="-114"/>
      <point x="410" y="-114" type="curve" smooth="yes"/>
      <point x="437" y="-114"/>
      <point x="460" y="-96"/>
      <point x="473" y="-58" type="curve" smooth="yes"/>
      <point x="488" y="-4"/>
      <point x="492" y="102"/>
      <point x="649" y="684" type="curve"/>
    </contour>
  </outline>
</glyph>
<glyph name="ampersand" format="2">
  <advance width="1201"/>
  <unicode hex="0026"/>
  <outline>
    <contour>
      <point x="135" y="217" type="line" smooth="yes"/>
      <point x="-23" y="88"/>
      <point x="-106" y="-50"/>
      <point x="-106" y="-216" type="curve" smooth="yes"/>
      <point x="-106" y="-326"/>
      <point x="-69" y="-369"/>
      <point x="-22" y="-369" type="curve" smooth="yes"/>
      <point x="12" y="-369"/>
      <point x="38" y="-345"/>
      <point x="38" y="-315" type="curve" smooth="yes"/>
      <point x="38" y="-270"/>
      <point x="-37" y="-252"/>
      <point x="-37" y="-165" type="curve" smooth="yes"/>
      <point x="-37" y="-47"/>
      <point x="19" y="69"/>
      <point x="161" y="191" type="curve" smooth="yes"/>
      <point x="1072" y="921" type="line" smooth="yes"/>
      <point x="1253" y="1070"/>
      <point x="1311" y="1170"/>
      <point x="1311" y="1310" type="curve" smooth="yes"/>
      <point x="1311" y="1401"/>
      <point x="1264" y="1454"/>
      <point x="1219" y="1454" type="curve" smooth="yes"/>
      <point x="1187" y="1454"/>
      <point x="1168" y="1429"/>
      <point x="1168" y="1400" type="curve" smooth="yes"/>
      <point x="1168" y="1350"/>
      <point x="1238" y="1319"/>
      <point x="1238" y="1253" type="curve" smooth="yes"/>
      <point x="1238" y="1156"/>
      <point x="1191" y="1077"/>
      <point x="1057" y="957" type="curve" smooth="yes"/>
    </contour>
    <contour>
      <point x="1002" y="396" type="curve" smooth="yes"/>
      <point x="1002" y="213"/>
      <point x="815" y="20"/>
      <point x="584" y="20" type="curve" smooth="yes"/>
      <point x="352" y="20"/>
      <point x="205" y="184"/>
      <point x="252" y="500" type="curve" smooth="yes"/>
      <point x="296" y="804"/>
      <point x="482" y="1022"/>
      <point x="690" y="1022" type="curve" smooth="yes"/>
      <point x="816" y="1022"/>
      <point x="876" y="945"/>
      <point x="876" y="830" type="curve" smooth="yes"/>
      <point x="876" y="799"/>
      <point x="860" y="764"/>
      <point x="836" y="739" type="curve"/>
      <point x="862" y="755"/>
      <point x="886" y="762"/>
      <point x="922" y="762" type="curve" smooth="yes"/>
      <point x="946" y="762"/>
      <point x="961" y="787"/>
      <point x="961" y="823" type="curve" smooth="yes"/>
      <point x="961" y="954"/>
      <point x="875" y="1055"/>
      <point x="711" y="1055" type="curve" smooth="yes"/>
      <point x="449" y="1055"/>
      <point x="229" y="824"/>
      <point x="171" y="502" type="curve" smooth="yes"/>
      <point x="115" y="179"/>
      <point x="297" y="-19"/>
      <point x="555" y="-19" type="curve" smooth="yes"/>
      <point x="876" y="-19"/>
      <point x="1092" y="237"/>
      <point x="1092" y="528" type="curve" smooth="yes"/>
      <point x="1092" y="581"/>
      <point x="1075" y="612"/>
      <point x="1037" y="612" type="curve" smooth="yes"/>
      <point x="1000" y="612"/>
      <point x="978" y="581"/>
      <point x="978" y="542" type="curve" smooth="yes"/>
      <point x="978" y="501"/>
      <point x="1002" y="463"/>
    </contour>
  </outline>
</glyph>
<glyph name="quotesingle" format="2">
  <advance width="267"/>
  <unicode hex="0027"/>
  <outline>
    <contour>
      <point x="260" y="1000" type="curve" smooth="yes"/>
      <point x="270" y="1000"/>
      <point x="279" y="1007"/>
      <point x="285" y="1025" type="curve" smooth="yes"/>
      <point x="427" y="1450" type="line" smooth="yes"/>
      <point x="448" y="1514"/>
      <point x="435" y="1538"/>
      <point x="405" y="1538" type="curve" smooth="yes"/>
      <point x="375" y="1538"/>
      <point x="349" y="1508"/>
      <point x="337" y="1450" type="curve" smooth="yes"/>
      <point x="246" y="1025" type="line" smooth="yes"/>
      <point x="242" y="1007"/>
      <point x="249" y="1000"/>
    </contour>
  </outline>
</glyph>
<glyph name="hyphen" format="2">
  <advance width="792"/>
  <unicode hex="002D"/>
  <outline>
    <contour>
      <point x="657" y="537" type="curve" smooth="yes"/>
      <point x="174" y="537" type="line" smooth="yes"/>
      <point x="157" y="537"/>
      <point x="151" y="534"/>
      <point x="143" y="522" type="curve" smooth="yes"/>
      <point x="119" y="484" type="line" smooth="yes"/>
      <point x="112" y="473"/>
      <point x="116" y="464"/>
      <point x="135" y="464" type="curve" smooth="yes"/>
      <point x="616" y="464" type="line" smooth="yes"/>
      <point x="633" y="464"/>
      <point x="641" y="468"/>
      <point x="648" y="479" type="curve" smooth="yes"/>
      <point x="672" y="519" type="line" smooth="yes"/>
      <point x="679" y="529"/>
      <point x="675" y="537"/>
    </contour>
  </outline>
</glyph>
<glyph name="period" format="2">
  <advance width="387"/>
  <unicode hex="002E"/>
  <outline>
    <contour>
      <point x="142" y="-12" type="curve" smooth="yes"/>
      <point x="186" y="-12"/>
      <point x="231" y="24"/>
      <point x="243" y="68" type="curve" smooth="yes"/>
      <point x="256" y="113"/>
      <point x="232" y="148"/>
      <point x="187" y="148" type="curve" smooth="yes"/>
      <point x="145" y="148"/>
      <point x="99" y="114"/>
      <point x="86" y="68" type="curve" smooth="yes"/>
      <point x="74" y="24"/>
      <point x="99" y="-12"/>
    </contour>
  </outline>
</glyph>
<glyph name="two" format="2">
  <advance width="1095"/>
  <unicode hex="0032"/>
  <outline>
    <contour>
      <point x="133" y="158" type="line"/>
      <point x="479" y="389" type="line" smooth="yes"/>
      <point x="943" y="709"/>
      <point x="1072" y="856"/>
      <point x="1120" y="1036" type="curve" smooth="yes"/>
      <point x="1177" y="1248"/>
      <point x="1086" y="1419"/>
      <point x="838" y="1419" type="curve" smooth="yes"/>
      <point x="576" y="1419"/>
      <point x="371" y="1246"/>
      <point x="324" y="1076" type="curve" smooth="yes"/>
      <point x="307" y="1018"/>
      <point x="321" y="989"/>
      <point x="355" y="989" type="curve" smooth="yes"/>
      <point x="387" y="989"/>
      <point x="415" y="1012"/>
      <point x="429" y="1062" type="curve" smooth="yes"/>
      <point x="445" y="1122" type="line" smooth="yes"/>
      <point x="480" y="1253"/>
      <point x="618" y="1380"/>
      <point x="820" y="1380" type="curve" smooth="yes"/>
      <point x="1010" y="1380"/>
      <point x="1094" y="1242"/>
      <point x="1041" y="1040" type="curve" smooth="yes"/>
      <point x="990" y="846"/>
      <point x="837" y="686"/>
      <point x="432" y="406" type="curve" smooth="yes"/>
      <point x="111" y="188" type="line"/>
    </contour>
    <contour>
      <point x="21" y="57" type="curve" smooth="yes"/>
      <point x="8" y="7"/>
      <point x="26" y="-15"/>
      <point x="55" y="-15" type="curve" smooth="yes"/>
      <point x="92" y="-15"/>
      <point x="119" y="6"/>
      <point x="136" y="52" type="curve" smooth="yes"/>
      <point x="166" y="152"/>
      <point x="201" y="200"/>
      <point x="259" y="200" type="curve" smooth="yes"/>
      <point x="313" y="200"/>
      <point x="354" y="171"/>
      <point x="423" y="104" type="curve" smooth="yes"/>
      <point x="508" y="22"/>
      <point x="572" y="-17"/>
      <point x="668" y="-17" type="curve" smooth="yes"/>
      <point x="787" y="-17"/>
      <point x="874" y="43"/>
      <point x="949" y="205" type="curve" smooth="yes"/>
      <point x="959" y="222"/>
      <point x="956" y="230"/>
      <point x="945" y="232" type="curve" smooth="yes"/>
      <point x="933" y="234"/>
      <point x="922" y="229"/>
      <point x="911" y="214" type="curve" smooth="yes"/>
      <point x="851" y="102"/>
      <point x="793" y="54"/>
      <point x="689" y="54" type="curve" smooth="yes"/>
      <point x="549" y="54"/>
      <point x="439" y="240"/>
      <point x="286" y="240" type="curve" smooth="yes"/>
      <point x="147" y="240"/>
      <point x="47" y="152"/>
    </contour>
  </outline>
</glyph>
<glyph name="four" format="2">
  <advance width="1051"/>
  <unicode hex="0034"/>
  <outline>
    <contour>
      <point x="760" y="839" type="curve" smooth="yes"/>
      <point x="575" y="111" type="line" smooth="yes"/>
      <point x="562" y="74"/>
      <point x="530" y="53"/>
      <point x="484" y="49" type="curve" smooth="yes"/>
      <point x="377" y="36" type="line" smooth="yes"/>
      <point x="355" y="35"/>
      <point x="342" y="28"/>
      <point x="337" y="17" type="curve" smooth="yes"/>
      <point x="334" y="6"/>
      <point x="342" y="0"/>
      <point x="362" y="0" type="curve" smooth="yes"/>
      <point x="793" y="0" type="line" smooth="yes"/>
      <point x="812" y="0"/>
      <point x="823" y="6"/>
      <point x="827" y="17" type="curve" smooth="yes"/>
      <point x="831" y="28"/>
      <point x="821" y="35"/>
      <point x="802" y="36" type="curve" smooth="yes"/>
      <point x="704" y="48" type="line" smooth="yes"/>
      <point x="659" y="52"/>
      <point x="640" y="74"/>
      <point x="652" y="111" type="curve" smooth="yes"/>
      <point x="857" y="913" type="line" smooth="yes"/>
      <point x="861" y="924"/>
      <point x="856" y="930"/>
      <point x="848" y="930" type="curve" smooth="yes"/>
      <point x="838" y="930"/>
      <point x="831" y="926"/>
      <point x="822" y="919" type="curve" smooth="yes"/>
      <point x="792" y="883" type="line" smooth="yes"/>
      <point x="781" y="873"/>
      <point x="767" y="860"/>
    </contour>
    <contour>
      <point x="787" y="1121" type="curve" smooth="yes"/>
      <point x="61" y="432" type="line" smooth="yes"/>
      <point x="39" y="416"/>
      <point x="30" y="406"/>
      <point x="26" y="395" type="curve" smooth="yes"/>
      <point x="21" y="381"/>
      <point x="31" y="371"/>
      <point x="55" y="371" type="curve" smooth="yes"/>
      <point x="910" y="370" type="line" smooth="yes"/>
      <point x="931" y="370"/>
      <point x="942" y="378"/>
      <point x="946" y="391" type="curve" smooth="yes"/>
      <point x="950" y="405"/>
      <point x="942" y="410"/>
      <point x="925" y="410" type="curve" smooth="yes"/>
      <point x="72" y="410" type="line"/>
      <point x="71" y="393" type="line"/>
      <point x="833" y="1114" type="line" smooth="yes"/>
      <point x="921" y="1192"/>
      <point x="969" y="1244"/>
      <point x="991" y="1319" type="curve" smooth="yes"/>
      <point x="1008" y="1378"/>
      <point x="982" y="1415"/>
      <point x="937" y="1415" type="curve" smooth="yes"/>
      <point x="891" y="1415"/>
      <point x="852" y="1382"/>
      <point x="840" y="1340" type="curve" smooth="yes"/>
      <point x="826" y="1289"/>
      <point x="868" y="1263"/>
      <point x="852" y="1207" type="curve" smooth="yes"/>
      <point x="843" y="1172"/>
      <point x="816" y="1147"/>
    </contour>
  </outline>
</glyph>
<glyph name="eight" format="2">
  <advance width="1030"/>
  <unicode hex="0038"/>
  <outline>
    <contour>
      <point x="396" y="-21" type="curve" smooth="yes"/>
      <point x="641" y="-21"/>
      <point x="842" y="106"/>
      <point x="898" y="301" type="curve" smooth="yes"/>
      <point x="939" y="455"/>
      <point x="867" y="584"/>
      <point x="607" y="685" type="curve" smooth="yes"/>
      <point x="353" y="784"/>
      <point x="316" y="909"/>
      <point x="357" y="1068" type="curve" smooth="yes"/>
      <point x="405" y="1243"/>
      <point x="585" y="1377"/>
      <point x="782" y="1377" type="curve" smooth="yes"/>
      <point x="984" y="1377"/>
      <point x="1094" y="1249"/>
      <point x="1035" y="1037" type="curve" smooth="yes"/>
      <point x="990" y="863"/>
      <point x="839" y="728"/>
      <point x="639" y="645" type="curve"/>
      <point x="658" y="621" type="line"/>
      <point x="880" y="696"/>
      <point x="1060" y="849"/>
      <point x="1114" y="1042" type="curve" smooth="yes"/>
      <point x="1171" y="1255"/>
      <point x="1074" y="1419"/>
      <point x="803" y="1419" type="curve" smooth="yes"/>
      <point x="562" y="1419"/>
      <point x="340" y="1262"/>
      <point x="279" y="1047" type="curve" smooth="yes"/>
      <point x="225" y="850"/>
      <point x="303" y="725"/>
      <point x="559" y="623" type="curve" smooth="yes"/>
      <point x="801" y="526"/>
      <point x="858" y="431"/>
      <point x="820" y="288" type="curve" smooth="yes"/>
      <point x="776" y="123"/>
      <point x="619" y="21"/>
      <point x="426" y="21" type="curve" smooth="yes"/>
      <point x="223" y="21"/>
      <point x="112" y="122"/>
      <point x="164" y="320" type="curve" smooth="yes"/>
      <point x="197" y="441"/>
      <point x="315" y="583"/>
      <point x="517" y="648" type="curve"/>
      <point x="503" y="676" type="line"/>
      <point x="287" y="614"/>
      <point x="127" y="453"/>
      <point x="86" y="312" type="curve" smooth="yes"/>
      <point x="31" y="107"/>
      <point x="145" y="-21"/>
    </contour>
  </outline>
</glyph>
<glyph name="question" format="2">
  <advance width="809"/>
  <unicode hex="003F"/>
  <outline>
    <contour>
      <point x="354" y="663" type="line" smooth="yes"/>
      <point x="364" y="701"/>
      <point x="382" y="729"/>
      <point x="416" y="745" type="curve" smooth="yes"/>
      <point x="492" y="778" type="line" smooth="yes"/>
      <point x="698" y="875"/>
      <point x="788" y="1002"/>
      <point x="828" y="1159" type="curve" smooth="yes"/>
      <point x="877" y="1346"/>
      <point x="793" y="1438"/>
      <point x="648" y="1438" type="curve" smooth="yes"/>
      <point x="500" y="1438"/>
      <point x="398" y="1364"/>
      <point x="365" y="1243" type="curve" smooth="yes"/>
      <point x="351" y="1191" type="line" smooth="yes"/>
      <point x="341" y="1157"/>
      <point x="312" y="1137"/>
      <point x="280" y="1137" type="curve" smooth="yes"/>
      <point x="248" y="1137"/>
      <point x="233" y="1163"/>
      <point x="244" y="1201" type="curve" smooth="yes"/>
      <point x="282" y="1348"/>
      <point x="474" y="1483"/>
      <point x="662" y="1483" type="curve" smooth="yes"/>
      <point x="856" y="1483"/>
      <point x="958" y="1360"/>
      <point x="903" y="1162" type="curve" smooth="yes"/>
      <point x="860" y="995"/>
      <point x="748" y="846"/>
      <point x="535" y="750" type="curve" smooth="yes"/>
      <point x="472" y="725" type="line" smooth="yes"/>
      <point x="439" y="711"/>
      <point x="421" y="688"/>
      <point x="410" y="651" type="curve" smooth="yes"/>
      <point x="345" y="427" type="line" smooth="yes"/>
      <point x="340" y="410"/>
      <point x="328" y="401"/>
      <point x="316" y="401" type="curve" smooth="yes"/>
      <point x="304" y="401"/>
      <point x="298" y="410"/>
      <point x="302" y="428" type="curve" smooth="yes"/>
    </contour>
    <component base="period" xOffset="96" yOffset="-5"/>
  </outline>
</glyph>
<glyph name="B" format="2">
  <advance width="1226"/>
  <unicode hex="0042"/>
  <outline>
    <contour>
      <point x="607" y="1297" type="curve" smooth="yes"/>
      <point x="618" y="1338"/>
      <point x="657" y="1362"/>
      <point x="766" y="1362" type="curve" smooth="yes"/>
      <point x="997" y="1362"/>
      <point x="1126" y="1243"/>
      <point x="1091" y="1033" type="curve" smooth="yes"/>
      <point x="1054" y="807"/>
      <point x="867" y="672"/>
      <point x="641" y="672" type="curve" smooth="yes"/>
      <point x="413" y="672" type="line"/>
      <point x="394" y="638" type="line"/>
      <point x="680" y="638" type="line" smooth="yes"/>
      <point x="909" y="638"/>
      <point x="1023" y="531"/>
      <point x="998" y="352" type="curve" smooth="yes"/>
      <point x="971" y="155"/>
      <point x="792" y="35"/>
      <point x="511" y="35" type="curve" smooth="yes"/>
      <point x="332" y="35"/>
      <point x="286" y="59"/>
      <point x="296" y="108" type="curve" smooth="yes"/>
      <point x="334" y="347"/>
      <point x="514" y="949"/>
    </contour>
    <contour>
      <point x="436" y="1400" type="line" smooth="yes"/>
      <point x="394" y="1400"/>
      <point x="377" y="1390"/>
      <point x="377" y="1377" type="curve" smooth="yes"/>
      <point x="377" y="1368"/>
      <point x="390" y="1364"/>
      <point x="412" y="1361" type="curve" smooth="yes"/>
      <point x="489" y="1350" type="line" smooth="yes"/>
      <point x="512" y="1346"/>
      <point x="531" y="1333"/>
      <point x="526" y="1301" type="curve" smooth="yes"/>
      <point x="500" y="1106"/>
      <point x="363" y="568"/>
      <point x="215" y="108" type="curve" smooth="yes"/>
      <point x="205" y="77"/>
      <point x="174" y="54"/>
      <point x="124" y="46" type="curve" smooth="yes"/>
      <point x="63" y="36" type="line" smooth="yes"/>
      <point x="23" y="31"/>
      <point x="4" y="24"/>
      <point x="4" y="16" type="curve" smooth="yes"/>
      <point x="4" y="6"/>
      <point x="14" y="0"/>
      <point x="38" y="0" type="curve" smooth="yes"/>
      <point x="493" y="0" type="line" smooth="yes"/>
      <point x="849" y="0"/>
      <point x="1046" y="138"/>
      <point x="1074" y="344" type="curve" smooth="yes"/>
      <point x="1100" y="540"/>
      <point x="959" y="666"/>
      <point x="679" y="666" type="curve"/>
      <point x="684" y="653" type="line"/>
      <point x="928" y="653"/>
      <point x="1135" y="799"/>
      <point x="1170" y="1031" type="curve" smooth="yes"/>
      <point x="1203" y="1259"/>
      <point x="1053" y="1400"/>
      <point x="751" y="1400" type="curve" smooth="yes"/>
    </contour>
  </outline>
</glyph>
<glyph name="C" format="2">
  <advance width="1249"/>
  <unicode hex="0043"/>
  <anchor x="912" y="1510" name="center"/>
  <outline>
    <contour>
      <point x="1144" y="358" type="curve" smooth="yes"/>
      <point x="1128" y="365"/>
      <point x="1113" y="355"/>
      <point x="1101" y="336" type="curve" smooth="yes"/>
      <point x="981" y="113"/>
      <point x="814" y="18"/>
      <point x="605" y="18" type="curve" smooth="yes"/>
      <point x="349" y="18"/>
      <point x="184" y="223"/>
      <point x="235" y="612" type="curve" smooth="yes"/>
      <point x="288" y="1007"/>
      <point x="561" y="1389"/>
      <point x="926" y="1389" type="curve" smooth="yes"/>
      <point x="1096" y="1389"/>
      <point x="1195" y="1326"/>
      <point x="1239" y="1189" type="curve" smooth="yes"/>
      <point x="1268" y="1093" type="line" smooth="yes"/>
      <point x="1273" y="1083"/>
      <point x="1281" y="1074"/>
      <point x="1294" y="1074" type="curve" smooth="yes"/>
      <point x="1309" y="1075"/>
      <point x="1322" y="1086"/>
      <point x="1319" y="1101" type="curve" smooth="yes"/>
      <point x="1277" y="1394" type="line" smooth="yes"/>
      <point x="1273" y="1414"/>
      <point x="1265" y="1424"/>
      <point x="1249" y="1424" type="curve" smooth="yes"/>
      <point x="1219" y="1424"/>
      <point x="1202" y="1346"/>
      <point x="1178" y="1346" type="curve" smooth="yes"/>
      <point x="1157" y="1346"/>
      <point x="1095" y="1425"/>
      <point x="947" y="1425" type="curve" smooth="yes"/>
      <point x="529" y="1425"/>
      <point x="208" y="1031"/>
      <point x="155" y="618" type="curve" smooth="yes"/>
      <point x="104" y="209"/>
      <point x="286" y="-24"/>
      <point x="589" y="-24" type="curve" smooth="yes"/>
      <point x="842" y="-24"/>
      <point x="1034" y="101"/>
      <point x="1141" y="312" type="curve" smooth="yes"/>
      <point x="1153" y="332"/>
      <point x="1157" y="351"/>
    </contour>
  </outline>
</glyph>
<glyph name="D" format="2">
  <advance width="1429"/>
  <unicode hex="0044"/>
  <anchor x="962" y="1485" name="center"/>
  <outline>
    <contour>
      <point x="21" y="17" type="curve" smooth="yes"/>
      <point x="21" y="7"/>
      <point x="27" y="0"/>
      <point x="45" y="0" type="curve" smooth="yes"/>
      <point x="501" y="0" type="line" smooth="yes"/>
      <point x="969" y="0"/>
      <point x="1321" y="275"/>
      <point x="1389" y="726" type="curve" smooth="yes"/>
      <point x="1446" y="1129"/>
      <point x="1178" y="1400"/>
      <point x="840" y="1400" type="curve" smooth="yes"/>
      <point x="415" y="1400" type="line" smooth="yes"/>
      <point x="388" y="1400"/>
      <point x="378" y="1394"/>
      <point x="378" y="1384" type="curve" smooth="yes"/>
      <point x="378" y="1371"/>
      <point x="386" y="1367"/>
      <point x="419" y="1362" type="curve" smooth="yes"/>
      <point x="480" y="1350" type="line" smooth="yes"/>
      <point x="523" y="1343"/>
      <point x="535" y="1323"/>
      <point x="524" y="1278" type="curve" smooth="yes"/>
      <point x="483" y="1039"/>
      <point x="263" y="327"/>
      <point x="222" y="126" type="curve" smooth="yes"/>
      <point x="202" y="72"/>
      <point x="168" y="50"/>
      <point x="130" y="46" type="curve" smooth="yes"/>
      <point x="63" y="37" type="line" smooth="yes"/>
      <point x="32" y="34"/>
      <point x="21" y="29"/>
    </contour>
    <contour>
      <point x="511" y="41" type="curve" smooth="yes"/>
      <point x="345" y="41" type="line" smooth="yes"/>
      <point x="304" y="41"/>
      <point x="291" y="60"/>
      <point x="296" y="99" type="curve" smooth="yes"/>
      <point x="324" y="311"/>
      <point x="572" y="1089"/>
      <point x="617" y="1321" type="curve" smooth="yes"/>
      <point x="625" y="1348"/>
      <point x="646" y="1365"/>
      <point x="681" y="1365" type="curve" smooth="yes"/>
      <point x="831" y="1365" type="line" smooth="yes"/>
      <point x="1110" y="1365"/>
      <point x="1366" y="1130"/>
      <point x="1312" y="729" type="curve" smooth="yes"/>
      <point x="1258" y="321"/>
      <point x="942" y="41"/>
    </contour>
  </outline>
</glyph>
<glyph name="F" format="2">
  <advance width="1137"/>
  <unicode hex="0046"/>
  <outline>
    <contour>
      <point x="388" y="1384" type="curve" smooth="yes"/>
      <point x="385" y="1370"/>
      <point x="400" y="1366"/>
      <point x="430" y="1361" type="curve" smooth="yes"/>
      <point x="486" y="1350" type="line" smooth="yes"/>
      <point x="516" y="1345"/>
      <point x="531" y="1327"/>
      <point x="524" y="1295" type="curve" smooth="yes"/>
      <point x="454" y="981"/>
      <point x="320" y="477"/>
      <point x="216" y="119" type="curve" smooth="yes"/>
      <point x="204" y="78"/>
      <point x="179" y="58"/>
      <point x="134" y="52" type="curve" smooth="yes"/>
      <point x="83" y="44" type="line" smooth="yes"/>
      <point x="35" y="38"/>
      <point x="22" y="33"/>
      <point x="20" y="19" type="curve" smooth="yes"/>
      <point x="18" y="6"/>
      <point x="29" y="0"/>
      <point x="49" y="0" type="curve" smooth="yes"/>
      <point x="405" y="0" type="line" smooth="yes"/>
      <point x="450" y="0"/>
      <point x="465" y="9"/>
      <point x="465" y="22" type="curve" smooth="yes"/>
      <point x="465" y="33"/>
      <point x="447" y="39"/>
      <point x="406" y="43" type="curve" smooth="yes"/>
      <point x="340" y="52" type="line" smooth="yes"/>
      <point x="292" y="57"/>
      <point x="283" y="80"/>
      <point x="293" y="115" type="curve" smooth="yes"/>
      <point x="360" y="411"/>
      <point x="511" y="960"/>
      <point x="622" y="1369" type="curve"/>
      <point x="988" y="1369" type="line" smooth="yes"/>
      <point x="1079" y="1369"/>
      <point x="1126" y="1325"/>
      <point x="1152" y="1248" type="curve" smooth="yes"/>
      <point x="1173" y="1189" type="line" smooth="yes"/>
      <point x="1189" y="1159"/>
      <point x="1198" y="1144"/>
      <point x="1221" y="1144" type="curve" smooth="yes"/>
      <point x="1237" y="1144"/>
      <point x="1245" y="1156"/>
      <point x="1239" y="1179" type="curve" smooth="yes"/>
      <point x="1184" y="1413" type="line" smooth="yes"/>
      <point x="1179" y="1431"/>
      <point x="1172" y="1437"/>
      <point x="1156" y="1437" type="curve" smooth="yes"/>
      <point x="1123" y="1437"/>
      <point x="1098" y="1400"/>
      <point x="1046" y="1400" type="curve" smooth="yes"/>
      <point x="430" y="1400" type="line" smooth="yes"/>
      <point x="408" y="1400"/>
      <point x="392" y="1397"/>
    </contour>
    <contour>
      <point x="404" y="674" type="line"/>
      <point x="391" y="641" type="line"/>
      <point x="802" y="641" type="line" smooth="yes"/>
      <point x="869" y="641"/>
      <point x="890" y="616"/>
      <point x="919" y="530" type="curve" smooth="yes"/>
      <point x="929" y="506"/>
      <point x="939" y="498"/>
      <point x="954" y="499" type="curve" smooth="yes"/>
      <point x="967" y="500"/>
      <point x="979" y="509"/>
      <point x="974" y="529" type="curve" smooth="yes"/>
      <point x="915" y="810" type="line" smooth="yes"/>
      <point x="911" y="826"/>
      <point x="903" y="835"/>
      <point x="887" y="835" type="curve" smooth="yes"/>
      <point x="872" y="835"/>
      <point x="867" y="824"/>
      <point x="870" y="806" type="curve" smooth="yes"/>
      <point x="879" y="699"/>
      <point x="844" y="674"/>
      <point x="789" y="674" type="curve" smooth="yes"/>
    </contour>
  </outline>
</glyph>
<glyph name="G" format="2">
  <advance width="1320"/>
  <unicode hex="0047"/>
  <anchor x="915" y="1566.0" name="center"/>
  <outline>
    <contour>
      <point x="949" y="1428" type="curve" smooth="yes"/>
      <point x="562" y="1428"/>
      <point x="225" y="1051"/>
      <point x="150" y="630" type="curve" smooth="yes"/>
      <point x="75" y="215"/>
      <point x="267" y="-28"/>
      <point x="586" y="-28" type="curve" smooth="yes"/>
      <point x="839" y="-28"/>
      <point x="907" y="61"/>
      <point x="938" y="61" type="curve" smooth="yes"/>
      <point x="961" y="61"/>
      <point x="937" y="-28"/>
      <point x="966" y="-28" type="curve" smooth="yes"/>
      <point x="987" y="-28"/>
      <point x="1000" y="-21"/>
      <point x="1009" y="5" type="curve" smooth="yes"/>
      <point x="1149" y="496" type="line" smooth="yes"/>
      <point x="1155" y="520"/>
      <point x="1174" y="535"/>
      <point x="1211" y="541" type="curve" smooth="yes"/>
      <point x="1261" y="553" type="line" smooth="yes"/>
      <point x="1291" y="557"/>
      <point x="1303" y="566"/>
      <point x="1305" y="576" type="curve" smooth="yes"/>
      <point x="1306" y="590"/>
      <point x="1299" y="594"/>
      <point x="1278" y="594" type="curve" smooth="yes"/>
      <point x="948" y="594" type="line" smooth="yes"/>
      <point x="928" y="594"/>
      <point x="914" y="590"/>
      <point x="914" y="576" type="curve" smooth="yes"/>
      <point x="914" y="564"/>
      <point x="923" y="554"/>
      <point x="944" y="552" type="curve" smooth="yes"/>
      <point x="1022" y="542" type="line" smooth="yes"/>
      <point x="1069" y="538"/>
      <point x="1081" y="513"/>
      <point x="1065" y="465" type="curve" smooth="yes"/>
      <point x="1002" y="228" type="line" smooth="yes"/>
      <point x="963" y="96"/>
      <point x="817" y="12"/>
      <point x="613" y="12" type="curve" smooth="yes"/>
      <point x="337" y="12"/>
      <point x="156" y="221"/>
      <point x="231" y="637" type="curve" smooth="yes"/>
      <point x="307" y="1043"/>
      <point x="599" y="1392"/>
      <point x="953" y="1392" type="curve" smooth="yes"/>
      <point x="1107" y="1392"/>
      <point x="1215" y="1334"/>
      <point x="1280" y="1168" type="curve" smooth="yes"/>
      <point x="1304" y="1101" type="line" smooth="yes"/>
      <point x="1308" y="1092"/>
      <point x="1320" y="1080"/>
      <point x="1331" y="1080" type="curve" smooth="yes"/>
      <point x="1345" y="1080"/>
      <point x="1358" y="1087"/>
      <point x="1355" y="1104" type="curve" smooth="yes"/>
      <point x="1317" y="1383" type="line" smooth="yes"/>
      <point x="1312" y="1408"/>
      <point x="1300" y="1417"/>
      <point x="1282" y="1417" type="curve" smooth="yes"/>
      <point x="1259" y="1417"/>
      <point x="1240" y="1350"/>
      <point x="1213" y="1350" type="curve" smooth="yes"/>
      <point x="1188" y="1350"/>
      <point x="1142" y="1428"/>
    </contour>
  </outline>
</glyph>
<glyph name="I" format="2">
  <advance width="665"/>
  <unicode hex="0049"/>
  <anchor x="621" y="1468" name="center"/>
  <outline>
    <contour>
      <point x="300" y="127" type="curve" smooth="yes"/>
      <point x="326" y="310"/>
      <point x="542" y="1042"/>
      <point x="602" y="1288" type="curve" smooth="yes"/>
      <point x="613" y="1324"/>
      <point x="638" y="1341"/>
      <point x="685" y="1348" type="curve" smooth="yes"/>
      <point x="761" y="1364" type="line" smooth="yes"/>
      <point x="794" y="1370"/>
      <point x="804" y="1375"/>
      <point x="804" y="1388" type="curve" smooth="yes"/>
      <point x="804" y="1397"/>
      <point x="797" y="1400"/>
      <point x="776" y="1400" type="curve" smooth="yes"/>
      <point x="429" y="1400" type="line" smooth="yes"/>
      <point x="394" y="1400"/>
      <point x="376" y="1397"/>
      <point x="376" y="1386" type="curve" smooth="yes"/>
      <point x="376" y="1372"/>
      <point x="384" y="1366"/>
      <point x="412" y="1362" type="curve" smooth="yes"/>
      <point x="480" y="1350" type="line" smooth="yes"/>
      <point x="522" y="1343"/>
      <point x="530" y="1322"/>
      <point x="520" y="1278" type="curve" smooth="yes"/>
      <point x="481" y="1046"/>
      <point x="266" y="323"/>
      <point x="221" y="125" type="curve" smooth="yes"/>
      <point x="205" y="80"/>
      <point x="176" y="52"/>
      <point x="125" y="46" type="curve" smooth="yes"/>
      <point x="55" y="37" type="line" smooth="yes"/>
      <point x="28" y="34"/>
      <point x="17" y="26"/>
      <point x="19" y="16" type="curve" smooth="yes"/>
      <point x="19" y="5"/>
      <point x="26" y="0"/>
      <point x="49" y="0" type="curve" smooth="yes"/>
      <point x="403" y="0" type="line" smooth="yes"/>
      <point x="421" y="0"/>
      <point x="439" y="4"/>
      <point x="439" y="14" type="curve" smooth="yes"/>
      <point x="439" y="27"/>
      <point x="430" y="34"/>
      <point x="405" y="37" type="curve" smooth="yes"/>
      <point x="341" y="47" type="line" smooth="yes"/>
      <point x="297" y="52"/>
      <point x="289" y="79"/>
    </contour>
  </outline>
</glyph>
<glyph name="J" format="2">
  <advance width="635"/>
  <unicode hex="004A"/>
  <anchor x="585" y="1468" name="center"/>
  <outline>
    <contour>
      <point x="589" y="1279" type="curve" smooth="yes"/>
      <point x="604" y="1324"/>
      <point x="625" y="1337"/>
      <point x="676" y="1348" type="curve" smooth="yes"/>
      <point x="745" y="1365" type="line" smooth="yes"/>
      <point x="767" y="1369"/>
      <point x="780" y="1375"/>
      <point x="780" y="1387" type="curve" smooth="yes"/>
      <point x="780" y="1397"/>
      <point x="772" y="1400"/>
      <point x="751" y="1400" type="curve" smooth="yes"/>
      <point x="395" y="1400" type="line" smooth="yes"/>
      <point x="364" y="1400"/>
      <point x="351" y="1395"/>
      <point x="351" y="1384" type="curve" smooth="yes"/>
      <point x="351" y="1371"/>
      <point x="362" y="1365"/>
      <point x="386" y="1362" type="curve" smooth="yes"/>
      <point x="464" y="1351" type="line" smooth="yes"/>
      <point x="512" y="1346"/>
      <point x="521" y="1328"/>
      <point x="513" y="1282" type="curve" smooth="yes"/>
      <point x="498" y="1194"/>
      <point x="207" y="117"/>
      <point x="200" y="85" type="curve" smooth="yes"/>
      <point x="176" y="19"/>
      <point x="166" y="-33"/>
      <point x="166" y="-75" type="curve" smooth="yes"/>
      <point x="166" y="-204"/>
      <point x="119" y="-243"/>
      <point x="69" y="-243" type="curve" smooth="yes"/>
      <point x="28" y="-243"/>
      <point x="-8" y="-206"/>
      <point x="-57" y="-206" type="curve" smooth="yes"/>
      <point x="-97" y="-206"/>
      <point x="-119" y="-228"/>
      <point x="-119" y="-256" type="curve" smooth="yes"/>
      <point x="-119" y="-292"/>
      <point x="-86" y="-320"/>
      <point x="-12" y="-320" type="curve" smooth="yes"/>
      <point x="105" y="-320"/>
      <point x="189" y="-252"/>
      <point x="227" y="-82" type="curve" smooth="yes"/>
      <point x="285" y="114"/>
      <point x="567" y="1204"/>
    </contour>
  </outline>
</glyph>
<glyph name="K" format="2">
  <advance width="1297"/>
  <unicode hex="004B"/>
  <anchor x="614" y="1487" name="center"/>
  <outline>
    <contour>
      <point x="301" y="127" type="curve" smooth="yes"/>
      <point x="328" y="310"/>
      <point x="542" y="1042"/>
      <point x="603" y="1288" type="curve" smooth="yes"/>
      <point x="614" y="1324"/>
      <point x="638" y="1341"/>
      <point x="686" y="1348" type="curve" smooth="yes"/>
      <point x="761" y="1364" type="line" smooth="yes"/>
      <point x="795" y="1370"/>
      <point x="805" y="1375"/>
      <point x="805" y="1388" type="curve" smooth="yes"/>
      <point x="805" y="1397"/>
      <point x="798" y="1400"/>
      <point x="776" y="1400" type="curve" smooth="yes"/>
      <point x="429" y="1400" type="line" smooth="yes"/>
      <point x="395" y="1400"/>
      <point x="376" y="1397"/>
      <point x="376" y="1386" type="curve" smooth="yes"/>
      <point x="376" y="1372"/>
      <point x="385" y="1366"/>
      <point x="413" y="1362" type="curve" smooth="yes"/>
      <point x="480" y="1350" type="line" smooth="yes"/>
      <point x="523" y="1343"/>
      <point x="531" y="1322"/>
      <point x="520" y="1278" type="curve" smooth="yes"/>
      <point x="482" y="1046"/>
      <point x="267" y="323"/>
      <point x="222" y="125" type="curve" smooth="yes"/>
      <point x="206" y="80"/>
      <point x="176" y="52"/>
      <point x="125" y="46" type="curve" smooth="yes"/>
      <point x="55" y="37" type="line" smooth="yes"/>
      <point x="28" y="34"/>
      <point x="18" y="26"/>
      <point x="19" y="16" type="curve" smooth="yes"/>
      <point x="19" y="5"/>
      <point x="26" y="0"/>
      <point x="50" y="0" type="curve" smooth="yes"/>
      <point x="403" y="0" type="line" smooth="yes"/>
      <point x="422" y="0"/>
      <point x="440" y="4"/>
      <point x="440" y="14" type="curve" smooth="yes"/>
      <point x="440" y="27"/>
      <point x="431" y="34"/>
      <point x="406" y="37" type="curve" smooth="yes"/>
      <point x="342" y="47" type="line" smooth="yes"/>
      <point x="298" y="52"/>
      <point x="290" y="79"/>
    </contour>
    <contour>
      <point x="676" y="794" type="line"/>
      <point x="937" y="117" type="line" smooth="yes"/>
      <point x="970" y="19"/>
      <point x="1013" y="-19"/>
      <point x="1071" y="-19" type="curve" smooth="yes"/>
      <point x="1126" y="-19"/>
      <point x="1163" y="7"/>
      <point x="1184" y="45" type="curve" smooth="yes"/>
      <point x="1192" y="58"/>
      <point x="1188" y="73"/>
      <point x="1178" y="76" type="curve" smooth="yes"/>
      <point x="1166" y="80"/>
      <point x="1153" y="76"/>
      <point x="1145" y="65" type="curve" smooth="yes"/>
      <point x="1133" y="43"/>
      <point x="1118" y="33"/>
      <point x="1095" y="33" type="curve" smooth="yes"/>
      <point x="1058" y="33"/>
      <point x="1034" y="62"/>
      <point x="1012" y="137" type="curve" smooth="yes"/>
      <point x="736" y="828" type="line"/>
    </contour>
    <contour>
      <point x="349" y="442" type="line"/>
      <point x="1163" y="1247" type="line" smooth="yes"/>
      <point x="1226" y="1309"/>
      <point x="1271" y="1338"/>
      <point x="1305" y="1338" type="curve" smooth="yes"/>
      <point x="1344" y="1338"/>
      <point x="1368" y="1310"/>
      <point x="1414" y="1310" type="curve" smooth="yes"/>
      <point x="1452" y="1310"/>
      <point x="1484" y="1332"/>
      <point x="1484" y="1361" type="curve" smooth="yes"/>
      <point x="1484" y="1391"/>
      <point x="1451" y="1418"/>
      <point x="1401" y="1418" type="curve" smooth="yes"/>
      <point x="1308" y="1418"/>
      <point x="1229" y="1375"/>
      <point x="1123" y="1268" type="curve" smooth="yes"/>
      <point x="344" y="488" type="line"/>
    </contour>
  </outline>
</glyph>
<glyph name="L" format="2">
  <advance width="1022"/>
  <unicode hex="004C"/>
  <anchor x="898" y="1236" name="right"/>
  <outline>
    <contour>
      <point x="620" y="0" type="line" smooth="yes"/>
      <point x="659" y="0"/>
      <point x="680" y="-23"/>
      <point x="710" y="-23" type="curve" smooth="yes"/>
      <point x="802" y="-23"/>
      <point x="937" y="142"/>
      <point x="937" y="298" type="curve" smooth="yes"/>
      <point x="937" y="310"/>
      <point x="931" y="316"/>
      <point x="919" y="316" type="curve" smooth="yes"/>
      <point x="903" y="316"/>
      <point x="895" y="305"/>
      <point x="891" y="289" type="curve" smooth="yes"/>
      <point x="837" y="109"/>
      <point x="756" y="36"/>
      <point x="608" y="36" type="curve" smooth="yes"/>
      <point x="355" y="36" type="line" smooth="yes"/>
      <point x="304" y="36"/>
      <point x="280" y="57"/>
      <point x="291" y="108" type="curve" smooth="yes"/>
      <point x="333" y="337"/>
      <point x="548" y="1051"/>
      <point x="600" y="1276" type="curve" smooth="yes"/>
      <point x="615" y="1320"/>
      <point x="636" y="1343"/>
      <point x="677" y="1347" type="curve" smooth="yes"/>
      <point x="764" y="1362" type="line" smooth="yes"/>
      <point x="787" y="1365"/>
      <point x="804" y="1372"/>
      <point x="804" y="1384" type="curve" smooth="yes"/>
      <point x="804" y="1394"/>
      <point x="793" y="1400"/>
      <point x="774" y="1400" type="curve" smooth="yes"/>
      <point x="410" y="1400" type="line" smooth="yes"/>
      <point x="388" y="1400"/>
      <point x="374" y="1395"/>
      <point x="374" y="1386" type="curve"/>
      <point x="374" y="1371"/>
      <point x="386" y="1367"/>
      <point x="410" y="1363" type="curve" smooth="yes"/>
      <point x="492" y="1347" type="line" smooth="yes"/>
      <point x="517" y="1342"/>
      <point x="529" y="1323"/>
      <point x="523" y="1295" type="curve" smooth="yes"/>
      <point x="481" y="1058"/>
      <point x="293" y="403"/>
      <point x="227" y="137" type="curve" smooth="yes"/>
      <point x="210" y="83"/>
      <point x="182" y="56"/>
      <point x="131" y="49" type="curve" smooth="yes"/>
      <point x="66" y="39" type="line" smooth="yes"/>
      <point x="40" y="36"/>
      <point x="24" y="31"/>
      <point x="23" y="18" type="curve" smooth="yes"/>
      <point x="18" y="7"/>
      <point x="31" y="0"/>
      <point x="54" y="0" type="curve" smooth="yes"/>
    </contour>
  </outline>
</glyph>
<glyph name="M" format="2">
  <advance width="1562"/>
  <unicode hex="004D"/>
  <anchor x="671" y="1444" name="center"/>
  <outline>
    <contour>
      <point x="790" y="280" type="line"/>
      <point x="721" y="616"/>
      <point x="670" y="1006"/>
      <point x="612" y="1332" type="curve" smooth="yes"/>
      <point x="604" y="1378"/>
      <point x="583" y="1400"/>
      <point x="549" y="1400" type="curve" smooth="yes"/>
      <point x="419" y="1400" type="line" smooth="yes"/>
      <point x="401" y="1400"/>
      <point x="389" y="1396"/>
      <point x="386" y="1386" type="curve" smooth="yes"/>
      <point x="382" y="1372"/>
      <point x="392" y="1366"/>
      <point x="409" y="1362" type="curve" smooth="yes"/>
      <point x="496" y="1344" type="line" smooth="yes"/>
      <point x="532" y="1337"/>
      <point x="544" y="1301"/>
      <point x="529" y="1256" type="curve" smooth="yes"/>
      <point x="199" y="170" type="line" smooth="yes"/>
      <point x="182" y="98"/>
      <point x="154" y="66"/>
      <point x="97" y="57" type="curve" smooth="yes"/>
      <point x="35" y="46" type="line" smooth="yes"/>
      <point x="5" y="42"/>
      <point x="-6" y="37"/>
      <point x="-9" y="22" type="curve" smooth="yes"/>
      <point x="-12" y="9"/>
      <point x="0" y="0"/>
      <point x="24" y="0" type="curve" smooth="yes"/>
      <point x="342" y="0" type="line" smooth="yes"/>
      <point x="368" y="0"/>
      <point x="384" y="6"/>
      <point x="389" y="19" type="curve" smooth="yes"/>
      <point x="392" y="29"/>
      <point x="382" y="36"/>
      <point x="366" y="40" type="curve" smooth="yes"/>
      <point x="286" y="56" type="line" smooth="yes"/>
      <point x="242" y="65"/>
      <point x="232" y="96"/>
      <point x="249" y="164" type="curve" smooth="yes"/>
      <point x="595" y="1290" type="line"/>
      <point x="546" y="1282" type="line"/>
      <point x="606" y="1005"/>
      <point x="660" y="582"/>
      <point x="725" y="223" type="curve" smooth="yes"/>
      <point x="729" y="212"/>
      <point x="735" y="196"/>
      <point x="750" y="196" type="curve" smooth="yes"/>
      <point x="768" y="196"/>
      <point x="780" y="207"/>
      <point x="803" y="236" type="curve" smooth="yes"/>
      <point x="1451" y="1292" type="line"/>
      <point x="1418" y="1280" type="line"/>
      <point x="1374" y="949"/>
      <point x="1247" y="365"/>
      <point x="1208" y="118" type="curve" smooth="yes"/>
      <point x="1201" y="78"/>
      <point x="1168" y="59"/>
      <point x="1129" y="52" type="curve" smooth="yes"/>
      <point x="1051" y="38" type="line" smooth="yes"/>
      <point x="1036" y="36"/>
      <point x="1022" y="34"/>
      <point x="1018" y="20" type="curve" smooth="yes"/>
      <point x="1017" y="9"/>
      <point x="1024" y="0"/>
      <point x="1046" y="0" type="curve" smooth="yes"/>
      <point x="1391" y="0" type="line" smooth="yes"/>
      <point x="1411" y="0"/>
      <point x="1421" y="3"/>
      <point x="1424" y="16" type="curve" smooth="yes"/>
      <point x="1428" y="29"/>
      <point x="1417" y="34"/>
      <point x="1400" y="37" type="curve" smooth="yes"/>
      <point x="1322" y="53" type="line" smooth="yes"/>
      <point x="1286" y="61"/>
      <point x="1275" y="82"/>
      <point x="1282" y="121" type="curve" smooth="yes"/>
      <point x="1312" y="354"/>
      <point x="1440" y="986"/>
      <point x="1489" y="1282" type="curve" smooth="yes"/>
      <point x="1496" y="1322"/>
      <point x="1521" y="1343"/>
      <point x="1556" y="1348" type="curve" smooth="yes"/>
      <point x="1620" y="1360" type="line" smooth="yes"/>
      <point x="1641" y="1363"/>
      <point x="1656" y="1366"/>
      <point x="1659" y="1384" type="curve" smooth="yes"/>
      <point x="1661" y="1393"/>
      <point x="1656" y="1400"/>
      <point x="1634" y="1400" type="curve" smooth="yes"/>
      <point x="1529" y="1400" type="line" smooth="yes"/>
      <point x="1500" y="1400"/>
      <point x="1467" y="1388"/>
      <point x="1446" y="1354" type="curve" smooth="yes"/>
      <point x="775" y="258" type="line"/>
    </contour>
  </outline>
</glyph>
<glyph name="N" format="2">
  <advance width="1371"/>
  <unicode hex="004E"/>
  <anchor x="966" y="1497" name="center"/>
  <outline>
    <contour>
      <point x="281" y="170" type="line" smooth="yes"/>
      <point x="264" y="99"/>
      <point x="290" y="58"/>
      <point x="355" y="47" type="curve" smooth="yes"/>
      <point x="402" y="40" type="line" smooth="yes"/>
      <point x="421" y="37"/>
      <point x="430" y="28"/>
      <point x="430" y="17" type="curve" smooth="yes"/>
      <point x="430" y="4"/>
      <point x="418" y="0"/>
      <point x="400" y="0" type="curve" smooth="yes"/>
      <point x="42" y="0" type="line" smooth="yes"/>
      <point x="22" y="0"/>
      <point x="10" y="6"/>
      <point x="10" y="19" type="curve"/>
      <point x="10" y="28"/>
      <point x="22" y="38"/>
      <point x="44" y="40" type="curve" smooth="yes"/>
      <point x="92" y="47" type="line" smooth="yes"/>
      <point x="157" y="57"/>
      <point x="208" y="98"/>
      <point x="226" y="170" type="curve" smooth="yes"/>
      <point x="482" y="1103" type="line" smooth="yes"/>
      <point x="493" y="1142"/>
      <point x="488" y="1181"/>
      <point x="470" y="1210" type="curve" smooth="yes"/>
      <point x="393" y="1359" type="line" smooth="yes"/>
      <point x="378" y="1380"/>
      <point x="387" y="1400"/>
      <point x="411" y="1400" type="curve" smooth="yes"/>
      <point x="446" y="1400" type="line" smooth="yes"/>
      <point x="473" y="1400"/>
      <point x="482" y="1383"/>
      <point x="501" y="1345" type="curve" smooth="yes"/>
      <point x="602" y="1044"/>
      <point x="931" y="430"/>
      <point x="1041" y="172" type="curve"/>
      <point x="1001" y="164" type="line"/>
      <point x="1248" y="1164" type="line" smooth="yes"/>
      <point x="1296" y="1338"/>
      <point x="1383" y="1418"/>
      <point x="1468" y="1418" type="curve" smooth="yes"/>
      <point x="1500" y="1418"/>
      <point x="1516" y="1399"/>
      <point x="1516" y="1377" type="curve" smooth="yes"/>
      <point x="1516" y="1344"/>
      <point x="1492" y="1324"/>
      <point x="1443" y="1307" type="curve" smooth="yes"/>
      <point x="1370" y="1284"/>
      <point x="1317" y="1226"/>
      <point x="1290" y="1129" type="curve" smooth="yes"/>
      <point x="1069" y="217" type="line" smooth="yes"/>
      <point x="1061" y="194"/>
      <point x="1059" y="177"/>
      <point x="1071" y="143" type="curve" smooth="yes"/>
      <point x="1107" y="46" type="line" smooth="yes"/>
      <point x="1121" y="14"/>
      <point x="1106" y="0"/>
      <point x="1075" y="0" type="curve" smooth="yes"/>
      <point x="1029" y="0" type="line" smooth="yes"/>
      <point x="1001" y="0"/>
      <point x="985" y="20"/>
      <point x="985" y="52" type="curve" smooth="yes"/>
      <point x="985" y="83"/>
      <point x="981" y="99"/>
      <point x="962" y="140" type="curve" smooth="yes"/>
      <point x="879" y="363"/>
      <point x="644" y="837"/>
      <point x="516" y="1147" type="curve"/>
      <point x="554" y="1161" type="line"/>
    </contour>
  </outline>
</glyph>
<glyph name="P" format="2">
  <advance width="1210"/>
  <unicode hex="0050"/>
  <outline>
    <contour>
      <point x="1241" y="912" type="curve" smooth="yes"/>
      <point x="1289" y="1183"/>
      <point x="1102" y="1400"/>
      <point x="772" y="1400" type="curve" smooth="yes"/>
      <point x="420" y="1400" type="line" smooth="yes"/>
      <point x="395" y="1400"/>
      <point x="381" y="1396"/>
      <point x="381" y="1383" type="curve" smooth="yes"/>
      <point x="381" y="1371"/>
      <point x="391" y="1365"/>
      <point x="413" y="1362" type="curve" smooth="yes"/>
      <point x="486" y="1349" type="line" smooth="yes"/>
      <point x="518" y="1344"/>
      <point x="530" y="1319"/>
      <point x="524" y="1285" type="curve" smooth="yes"/>
      <point x="490" y="1137"/>
      <point x="268" y="239"/>
      <point x="221" y="122" type="curve" smooth="yes"/>
      <point x="202" y="69"/>
      <point x="176" y="50"/>
      <point x="118" y="45" type="curve" smooth="yes"/>
      <point x="65" y="38" type="line" smooth="yes"/>
      <point x="35" y="36"/>
      <point x="21" y="29"/>
      <point x="21" y="16" type="curve" smooth="yes"/>
      <point x="21" y="4"/>
      <point x="32" y="0"/>
      <point x="48" y="0" type="curve" smooth="yes"/>
      <point x="411" y="0" type="line" smooth="yes"/>
      <point x="431" y="0"/>
      <point x="443" y="8"/>
      <point x="443" y="18" type="curve" smooth="yes"/>
      <point x="443" y="27"/>
      <point x="432" y="34"/>
      <point x="409" y="37" type="curve" smooth="yes"/>
      <point x="339" y="48" type="line" smooth="yes"/>
      <point x="307" y="52"/>
      <point x="291" y="78"/>
      <point x="304" y="130" type="curve" smooth="yes"/>
      <point x="331" y="237"/>
      <point x="583" y="1213"/>
      <point x="600" y="1281" type="curve" smooth="yes"/>
      <point x="620" y="1343"/>
      <point x="665" y="1368"/>
      <point x="754" y="1368" type="curve" smooth="yes"/>
      <point x="1045" y="1368"/>
      <point x="1199" y="1200"/>
      <point x="1160" y="921" type="curve" smooth="yes"/>
      <point x="1124" y="653"/>
      <point x="954" y="526"/>
      <point x="696" y="526" type="curve" smooth="yes"/>
      <point x="590" y="526"/>
      <point x="484" y="554"/>
      <point x="407" y="603" type="curve"/>
      <point x="381" y="570" type="line"/>
      <point x="469" y="521"/>
      <point x="556" y="489"/>
      <point x="710" y="489" type="curve" smooth="yes"/>
      <point x="994" y="489"/>
      <point x="1197" y="652"/>
    </contour>
  </outline>
</glyph>
<glyph name="U" format="2">
  <advance width="1369"/>
  <unicode hex="0055"/>
  <anchor x="981" y="1479.0" name="center"/>
  <outline>
    <contour>
      <point x="1035" y="386" type="line" smooth="yes"/>
      <point x="963" y="134"/>
      <point x="819" y="18"/>
      <point x="618" y="18" type="curve" smooth="yes"/>
      <point x="432" y="18"/>
      <point x="319" y="112"/>
      <point x="319" y="292" type="curve" smooth="yes"/>
      <point x="319" y="368"/>
      <point x="339" y="473"/>
      <point x="374" y="618" type="curve" smooth="yes"/>
      <point x="571" y="1296" type="line" smooth="yes"/>
      <point x="580" y="1328"/>
      <point x="603" y="1340"/>
      <point x="637" y="1346" type="curve" smooth="yes"/>
      <point x="718" y="1363" type="line" smooth="yes"/>
      <point x="755" y="1370"/>
      <point x="768" y="1375"/>
      <point x="768" y="1386" type="curve" smooth="yes"/>
      <point x="768" y="1394"/>
      <point x="759" y="1400"/>
      <point x="739" y="1400" type="curve" smooth="yes"/>
      <point x="400" y="1400" type="line" smooth="yes"/>
      <point x="369" y="1400"/>
      <point x="353" y="1393"/>
      <point x="353" y="1383" type="curve" smooth="yes"/>
      <point x="353" y="1371"/>
      <point x="362" y="1364"/>
      <point x="392" y="1360" type="curve" smooth="yes"/>
      <point x="460" y="1347" type="line" smooth="yes"/>
      <point x="497" y="1342"/>
      <point x="507" y="1321"/>
      <point x="498" y="1294" type="curve" smooth="yes"/>
      <point x="301" y="620" type="line" smooth="yes"/>
      <point x="270" y="502"/>
      <point x="242" y="362"/>
      <point x="242" y="289" type="curve" smooth="yes"/>
      <point x="242" y="107"/>
      <point x="350" y="-26"/>
      <point x="582" y="-26" type="curve" smooth="yes"/>
      <point x="849" y="-26"/>
      <point x="1006" y="114"/>
      <point x="1084" y="382" type="curve" smooth="yes"/>
      <point x="1340" y="1252" type="line" smooth="yes"/>
      <point x="1357" y="1317"/>
      <point x="1387" y="1336"/>
      <point x="1435" y="1346" type="curve" smooth="yes"/>
      <point x="1506" y="1360" type="line" smooth="yes"/>
      <point x="1543" y="1367"/>
      <point x="1547" y="1373"/>
      <point x="1547" y="1385" type="curve" smooth="yes"/>
      <point x="1547" y="1393"/>
      <point x="1535" y="1400"/>
      <point x="1517" y="1400" type="curve" smooth="yes"/>
      <point x="1190" y="1400" type="line" smooth="yes"/>
      <point x="1164" y="1400"/>
      <point x="1150" y="1393"/>
      <point x="1150" y="1381" type="curve" smooth="yes"/>
      <point x="1150" y="1370"/>
      <point x="1165" y="1365"/>
      <point x="1192" y="1358" type="curve" smooth="yes"/>
      <point x="1242" y="1347" type="line" smooth="yes"/>
      <point x="1291" y="1335"/>
      <point x="1301" y="1308"/>
      <point x="1287" y="1253" type="curve" smooth="yes"/>
    </contour>
  </outline>
</glyph>
<glyph name="V" format="2">
  <advance width="1129"/>
  <unicode hex="0056"/>
  <outline>
    <contour>
      <point x="1016" y="1383" type="curve" smooth="yes"/>
      <point x="1016" y="1372"/>
      <point x="1030" y="1364"/>
      <point x="1051" y="1360" type="curve" smooth="yes"/>
      <point x="1117" y="1348" type="line" smooth="yes"/>
      <point x="1161" y="1339"/>
      <point x="1180" y="1286"/>
      <point x="1143" y="1227" type="curve" smooth="yes"/>
      <point x="428" y="115" type="line"/>
      <point x="454" y="120" type="line"/>
      <point x="450" y="382"/>
      <point x="441" y="1048"/>
      <point x="442" y="1268" type="curve" smooth="yes"/>
      <point x="442" y="1308"/>
      <point x="454" y="1340"/>
      <point x="496" y="1346" type="curve" smooth="yes"/>
      <point x="598" y="1363" type="line" smooth="yes"/>
      <point x="616" y="1365"/>
      <point x="626" y="1374"/>
      <point x="626" y="1384" type="curve" smooth="yes"/>
      <point x="626" y="1393"/>
      <point x="618" y="1400"/>
      <point x="604" y="1400" type="curve" smooth="yes"/>
      <point x="262" y="1400" type="line" smooth="yes"/>
      <point x="247" y="1400"/>
      <point x="235" y="1393"/>
      <point x="235" y="1383" type="curve" smooth="yes"/>
      <point x="235" y="1373"/>
      <point x="240" y="1365"/>
      <point x="263" y="1362" type="curve" smooth="yes"/>
      <point x="319" y="1349" type="line" smooth="yes"/>
      <point x="352" y="1343"/>
      <point x="366" y="1316"/>
      <point x="367" y="1270" type="curve" smooth="yes"/>
      <point x="374" y="1057"/>
      <point x="384" y="284"/>
      <point x="380" y="175" type="curve" smooth="yes"/>
      <point x="380" y="140"/>
      <point x="382" y="127"/>
      <point x="368" y="95" type="curve" smooth="yes"/>
      <point x="350" y="42" type="line" smooth="yes"/>
      <point x="341" y="21"/>
      <point x="349" y="0"/>
      <point x="375" y="0" type="curve" smooth="yes"/>
      <point x="412" y="0" type="line" smooth="yes"/>
      <point x="436" y="0"/>
      <point x="452" y="13"/>
      <point x="460" y="37" type="curve" smooth="yes"/>
      <point x="475" y="101" type="line" smooth="yes"/>
      <point x="484" y="129"/>
      <point x="503" y="153"/>
      <point x="519" y="178" type="curve" smooth="yes"/>
      <point x="1205" y="1234" type="line" smooth="yes"/>
      <point x="1247" y="1305"/>
      <point x="1283" y="1342"/>
      <point x="1345" y="1356" type="curve" smooth="yes"/>
      <point x="1386" y="1364" type="line" smooth="yes"/>
      <point x="1409" y="1368"/>
      <point x="1419" y="1378"/>
      <point x="1419" y="1388" type="curve" smooth="yes"/>
      <point x="1419" y="1396"/>
      <point x="1409" y="1400"/>
      <point x="1388" y="1400" type="curve" smooth="yes"/>
      <point x="1048" y="1400" type="line" smooth="yes"/>
      <point x="1032" y="1400"/>
      <point x="1016" y="1393"/>
    </contour>
  </outline>
</glyph>
<glyph name="W" format="2">
  <advance width="1755"/>
  <unicode hex="0057"/>
  <anchor x="1130" y="1478.0" name="center"/>
  <outline>
    <contour>
      <point x="1067" y="1127" type="line"/>
      <point x="429" y="118" type="line"/>
      <point x="453" y="119" type="line"/>
      <point x="451" y="384"/>
      <point x="439" y="1067"/>
      <point x="441" y="1270" type="curve" smooth="yes"/>
      <point x="442" y="1322"/>
      <point x="461" y="1341"/>
      <point x="506" y="1347" type="curve" smooth="yes"/>
      <point x="583" y="1361" type="line" smooth="yes"/>
      <point x="612" y="1364"/>
      <point x="625" y="1372"/>
      <point x="625" y="1384" type="curve" smooth="yes"/>
      <point x="625" y="1396"/>
      <point x="617" y="1400"/>
      <point x="599" y="1400" type="curve" smooth="yes"/>
      <point x="263" y="1400" type="line" smooth="yes"/>
      <point x="246" y="1400"/>
      <point x="235" y="1395"/>
      <point x="235" y="1382" type="curve" smooth="yes"/>
      <point x="235" y="1372"/>
      <point x="247" y="1364"/>
      <point x="278" y="1360" type="curve" smooth="yes"/>
      <point x="311" y="1351" type="line" smooth="yes"/>
      <point x="348" y="1345"/>
      <point x="364" y="1323"/>
      <point x="365" y="1276" type="curve" smooth="yes"/>
      <point x="369" y="1032"/>
      <point x="383" y="279"/>
      <point x="379" y="168" type="curve" smooth="yes"/>
      <point x="378" y="138"/>
      <point x="378" y="118"/>
      <point x="367" y="92" type="curve" smooth="yes"/>
      <point x="351" y="44" type="line" smooth="yes"/>
      <point x="339" y="17"/>
      <point x="350" y="0"/>
      <point x="380" y="0" type="curve" smooth="yes"/>
      <point x="408" y="0" type="line" smooth="yes"/>
      <point x="433" y="0"/>
      <point x="451" y="14"/>
      <point x="460" y="38" type="curve" smooth="yes"/>
      <point x="472" y="88" type="line" smooth="yes"/>
      <point x="480" y="117"/>
      <point x="494" y="136"/>
      <point x="519" y="169" type="curve" smooth="yes"/>
      <point x="1067" y="1066" type="line"/>
    </contour>
    <contour>
      <point x="1666" y="1383" type="curve" smooth="yes"/>
      <point x="1666" y="1372"/>
      <point x="1677" y="1365"/>
      <point x="1702" y="1361" type="curve" smooth="yes"/>
      <point x="1770" y="1348" type="line" smooth="yes"/>
      <point x="1819" y="1338"/>
      <point x="1834" y="1299"/>
      <point x="1802" y="1248" type="curve" smooth="yes"/>
      <point x="1138" y="115" type="line"/>
      <point x="1162" y="123" type="line"/>
      <point x="1156" y="289"/>
      <point x="1123" y="1105"/>
      <point x="1118" y="1264" type="curve" smooth="yes"/>
      <point x="1116" y="1321"/>
      <point x="1129" y="1340"/>
      <point x="1178" y="1347" type="curve" smooth="yes"/>
      <point x="1271" y="1363" type="line" smooth="yes"/>
      <point x="1285" y="1365"/>
      <point x="1300" y="1372"/>
      <point x="1300" y="1385" type="curve" smooth="yes"/>
      <point x="1300" y="1396"/>
      <point x="1293" y="1400"/>
      <point x="1275" y="1400" type="curve" smooth="yes"/>
      <point x="943" y="1400" type="line" smooth="yes"/>
      <point x="922" y="1400"/>
      <point x="910" y="1393"/>
      <point x="910" y="1383" type="curve" smooth="yes"/>
      <point x="910" y="1372"/>
      <point x="922" y="1364"/>
      <point x="937" y="1362" type="curve" smooth="yes"/>
      <point x="983" y="1352" type="line" smooth="yes"/>
      <point x="1023" y="1345"/>
      <point x="1037" y="1321"/>
      <point x="1042" y="1266" type="curve" smooth="yes"/>
      <point x="1055" y="1090"/>
      <point x="1087" y="302"/>
      <point x="1087" y="181" type="curve" smooth="yes"/>
      <point x="1087" y="153"/>
      <point x="1089" y="132"/>
      <point x="1078" y="104" type="curve" smooth="yes"/>
      <point x="1059" y="46" type="line" smooth="yes"/>
      <point x="1046" y="16"/>
      <point x="1058" y="0"/>
      <point x="1084" y="0" type="curve" smooth="yes"/>
      <point x="1119" y="0" type="line" smooth="yes"/>
      <point x="1140" y="0"/>
      <point x="1156" y="11"/>
      <point x="1165" y="37" type="curve" smooth="yes"/>
      <point x="1180" y="88" type="line" smooth="yes"/>
      <point x="1189" y="115"/>
      <point x="1205" y="136"/>
      <point x="1219" y="156" type="curve" smooth="yes"/>
      <point x="1846" y="1235" type="line" smooth="yes"/>
      <point x="1895" y="1310"/>
      <point x="1930" y="1340"/>
      <point x="1972" y="1353" type="curve" smooth="yes"/>
      <point x="2002" y="1360" type="line" smooth="yes"/>
      <point x="2032" y="1369"/>
      <point x="2045" y="1377"/>
      <point x="2045" y="1386" type="curve" smooth="yes"/>
      <point x="2045" y="1396"/>
      <point x="2038" y="1400"/>
      <point x="2017" y="1400" type="curve" smooth="yes"/>
      <point x="1697" y="1400" type="line" smooth="yes"/>
      <point x="1680" y="1400"/>
      <point x="1666" y="1393"/>
    </contour>
  </outline>
</glyph>
<glyph name="Y" format="2">
  <advance width="1088"/>
  <unicode hex="0059"/>
  <anchor x="805" y="1498.0" name="center"/>
  <outline>
    <contour>
      <point x="572" y="483" type="line"/>
      <point x="592" y="478" type="line"/>
      <point x="559" y="622"/>
      <point x="471" y="1186"/>
      <point x="444" y="1300" type="curve" smooth="yes"/>
      <point x="428" y="1371"/>
      <point x="392" y="1400"/>
      <point x="315" y="1400" type="curve" smooth="yes"/>
      <point x="246" y="1400" type="line" smooth="yes"/>
      <point x="228" y="1400"/>
      <point x="213" y="1392"/>
      <point x="214" y="1382" type="curve" smooth="yes"/>
      <point x="215" y="1370"/>
      <point x="229" y="1361"/>
      <point x="259" y="1359" type="curve" smooth="yes"/>
      <point x="326" y="1354"/>
      <point x="367" y="1326"/>
      <point x="378" y="1273" type="curve" smooth="yes"/>
      <point x="399" y="1169"/>
      <point x="490" y="620"/>
      <point x="515" y="504" type="curve" smooth="yes"/>
      <point x="521" y="472"/>
      <point x="519" y="446"/>
      <point x="509" y="414" type="curve" smooth="yes"/>
      <point x="434" y="134" type="line" smooth="yes"/>
      <point x="418" y="82"/>
      <point x="384" y="52"/>
      <point x="331" y="46" type="curve" smooth="yes"/>
      <point x="266" y="38" type="line" smooth="yes"/>
      <point x="240" y="35"/>
      <point x="226" y="28"/>
      <point x="226" y="17" type="curve" smooth="yes"/>
      <point x="226" y="6"/>
      <point x="235" y="0"/>
      <point x="252" y="0" type="curve" smooth="yes"/>
      <point x="605" y="0" type="line" smooth="yes"/>
      <point x="634" y="0"/>
      <point x="646" y="6"/>
      <point x="646" y="17" type="curve" smooth="yes"/>
      <point x="646" y="28"/>
      <point x="638" y="34"/>
      <point x="613" y="38" type="curve" smooth="yes"/>
      <point x="548" y="47" type="line" smooth="yes"/>
      <point x="506" y="54"/>
      <point x="499" y="84"/>
      <point x="511" y="128" type="curve" smooth="yes"/>
      <point x="586" y="418" type="line" smooth="yes"/>
      <point x="594" y="444"/>
      <point x="606" y="462"/>
      <point x="629" y="493" type="curve" smooth="yes"/>
      <point x="1017" y="1149" type="line" smooth="yes"/>
      <point x="1103" y="1271"/>
      <point x="1180" y="1312"/>
      <point x="1237" y="1319" type="curve" smooth="yes"/>
      <point x="1310" y="1328"/>
      <point x="1338" y="1349"/>
      <point x="1338" y="1384" type="curve" smooth="yes"/>
      <point x="1338" y="1403"/>
      <point x="1319" y="1422"/>
      <point x="1272" y="1422" type="curve" smooth="yes"/>
      <point x="1187" y="1422"/>
      <point x="1109" y="1366"/>
      <point x="988" y="1183" type="curve" smooth="yes"/>
    </contour>
  </outline>
</glyph>
<glyph name="bracketleft" format="2">
  <advance width="693"/>
  <unicode hex="005B"/>
  <outline>
    <contour>
      <point x="615" y="1449" type="line" smooth="yes"/>
      <point x="618" y="1462"/>
      <point x="627" y="1469"/>
      <point x="642" y="1469" type="curve" smooth="yes"/>
      <point x="898" y="1469" type="line" smooth="yes"/>
      <point x="913" y="1469"/>
      <point x="926" y="1476"/>
      <point x="930" y="1491" type="curve" smooth="yes"/>
      <point x="934" y="1505"/>
      <point x="926" y="1512"/>
      <point x="912" y="1512" type="curve" smooth="yes"/>
      <point x="596" y="1512" type="line" smooth="yes"/>
      <point x="572" y="1512"/>
      <point x="555" y="1500"/>
      <point x="549" y="1478" type="curve" smooth="yes"/>
      <point x="96" y="-216" type="line" smooth="yes"/>
      <point x="89" y="-239"/>
      <point x="97" y="-250"/>
      <point x="122" y="-250" type="curve" smooth="yes"/>
      <point x="437" y="-250" type="line" smooth="yes"/>
      <point x="452" y="-250"/>
      <point x="465" y="-244"/>
      <point x="469" y="-230" type="curve" smooth="yes"/>
      <point x="473" y="-214"/>
      <point x="465" y="-208"/>
      <point x="450" y="-208" type="curve" smooth="yes"/>
      <point x="194" y="-208" type="line" smooth="yes"/>
      <point x="179" y="-208"/>
      <point x="175" y="-201"/>
      <point x="178" y="-188" type="curve" smooth="yes"/>
    </contour>
  </outline>
</glyph>
<glyph name="underscore" format="2">
  <advance width="848"/>
  <unicode hex="005F"/>
  <outline>
    <contour>
      <point x="-70" y="-248" type="curve" smooth="yes"/>
      <point x="-72" y="-267"/>
      <point x="-67" y="-276"/>
      <point x="-49" y="-276" type="curve" smooth="yes"/>
      <point x="738" y="-276" type="line" smooth="yes"/>
      <point x="755" y="-276"/>
      <point x="765" y="-267"/>
      <point x="767" y="-248" type="curve" smooth="yes"/>
      <point x="770" y="-229"/>
      <point x="764" y="-219"/>
      <point x="747" y="-219" type="curve" smooth="yes"/>
      <point x="-41" y="-219" type="line" smooth="yes"/>
      <point x="-58" y="-219"/>
      <point x="-67" y="-229"/>
    </contour>
  </outline>
</glyph>
<glyph name="a" format="2">
  <advance width="988"/>
  <unicode hex="0061"/>
  <anchor x="668" y="1010.0" name="center"/>
  <outline>
    <contour>
      <point x="724" y="194" type="curve" smooth="yes"/>
      <point x="874" y="785" type="line" smooth="yes"/>
      <point x="880" y="809"/>
      <point x="909" y="828"/>
      <point x="909" y="853" type="curve" smooth="yes"/>
      <point x="909" y="888"/>
      <point x="855" y="914"/>
      <point x="762" y="914" type="curve" smooth="yes"/>
      <point x="452" y="914"/>
      <point x="101" y="588"/>
      <point x="77" y="241" type="curve" smooth="yes"/>
      <point x="64" y="57"/>
      <point x="133" y="-15"/>
      <point x="244" y="-15" type="curve" smooth="yes"/>
      <point x="428" y="-15"/>
      <point x="625" y="178"/>
      <point x="775" y="541" type="curve"/>
      <point x="762" y="545" type="line"/>
      <point x="646" y="187"/>
      <point x="627" y="121"/>
      <point x="627" y="62" type="curve" smooth="yes"/>
      <point x="627" y="7"/>
      <point x="658" y="-15"/>
      <point x="706" y="-15" type="curve" smooth="yes"/>
      <point x="767" y="-15"/>
      <point x="838" y="24"/>
      <point x="875" y="88" type="curve" smooth="yes"/>
      <point x="882" y="101"/>
      <point x="885" y="113"/>
      <point x="876" y="117" type="curve" smooth="yes"/>
      <point x="867" y="121"/>
      <point x="857" y="115"/>
      <point x="841" y="99" type="curve" smooth="yes"/>
      <point x="797" y="55"/>
      <point x="771" y="38"/>
      <point x="742" y="38" type="curve" smooth="yes"/>
      <point x="707" y="38"/>
      <point x="694" y="75"/>
    </contour>
    <contour>
      <point x="150" y="253" type="curve" smooth="yes"/>
      <point x="177" y="573"/>
      <point x="469" y="872"/>
      <point x="739" y="872" type="curve" smooth="yes"/>
      <point x="788" y="872"/>
      <point x="815" y="853"/>
      <point x="809" y="808" type="curve" smooth="yes"/>
      <point x="760" y="439"/>
      <point x="469" y="31"/>
      <point x="275" y="31" type="curve" smooth="yes"/>
      <point x="187" y="31"/>
      <point x="136" y="92"/>
    </contour>
  </outline>
</glyph>
<glyph name="b" format="2">
  <advance width="1022"/>
  <unicode hex="0062"/>
  <outline>
    <contour>
      <point x="430" y="1012" type="line" smooth="yes"/>
      <point x="497" y="1245"/>
      <point x="639" y="1374"/>
      <point x="804" y="1374" type="curve" smooth="yes"/>
      <point x="878" y="1374"/>
      <point x="933" y="1342"/>
      <point x="983" y="1342" type="curve" smooth="yes"/>
      <point x="1024" y="1342"/>
      <point x="1047" y="1356"/>
      <point x="1047" y="1386" type="curve" smooth="yes"/>
      <point x="1047" y="1411"/>
      <point x="1021" y="1434"/>
      <point x="952" y="1434" type="curve" smooth="yes"/>
      <point x="651" y="1434"/>
      <point x="440" y="1293"/>
      <point x="351" y="976" type="curve" smooth="yes"/>
      <point x="93" y="57" type="line" smooth="yes"/>
      <point x="80" y="9"/>
      <point x="89" y="-4"/>
      <point x="106" y="-4" type="curve"/>
      <point x="116" y="-4"/>
      <point x="124" y="3"/>
      <point x="135" y="28" type="curve" smooth="yes"/>
      <point x="213" y="201" type="line"/>
      <point x="187" y="199" type="line"/>
      <point x="185" y="60"/>
      <point x="283" y="-15"/>
      <point x="411" y="-15" type="curve"/>
      <point x="658" y="-15"/>
      <point x="962" y="301"/>
      <point x="962" y="669" type="curve" smooth="yes"/>
      <point x="962" y="829"/>
      <point x="884" y="912"/>
      <point x="760" y="912" type="curve" smooth="yes"/>
      <point x="554" y="912"/>
      <point x="348" y="707"/>
      <point x="254" y="467" type="curve"/>
      <point x="274" y="467" type="line"/>
    </contour>
    <contour>
      <point x="725" y="868" type="curve" smooth="yes"/>
      <point x="819" y="868"/>
      <point x="888" y="810"/>
      <point x="888" y="658" type="curve" smooth="yes"/>
      <point x="888" y="337"/>
      <point x="620" y="25"/>
      <point x="412" y="25" type="curve"/>
      <point x="315" y="25"/>
      <point x="230" y="80"/>
      <point x="230" y="211" type="curve" smooth="yes"/>
      <point x="230" y="478"/>
      <point x="503" y="868"/>
    </contour>
  </outline>
</glyph>
<glyph name="c" format="2">
  <advance width="817"/>
  <unicode hex="0063"/>
  <anchor x="579" y="1026.0" name="center"/>
  <outline>
    <contour>
      <point x="580" y="878" type="curve" smooth="yes"/>
      <point x="660" y="878"/>
      <point x="708" y="834"/>
      <point x="708" y="772" type="curve" smooth="yes"/>
      <point x="708" y="744"/>
      <point x="696" y="711"/>
      <point x="696" y="688" type="curve" smooth="yes"/>
      <point x="696" y="665"/>
      <point x="711" y="648"/>
      <point x="734" y="648" type="curve" smooth="yes"/>
      <point x="766" y="648"/>
      <point x="793" y="679"/>
      <point x="793" y="739" type="curve" smooth="yes"/>
      <point x="793" y="836"/>
      <point x="724" y="915"/>
      <point x="597" y="915" type="curve" smooth="yes"/>
      <point x="361" y="915"/>
      <point x="156" y="700"/>
      <point x="99" y="431" type="curve" smooth="yes"/>
      <point x="43" y="167"/>
      <point x="135" y="-15"/>
      <point x="359" y="-15" type="curve" smooth="yes"/>
      <point x="594" y="-15"/>
      <point x="711" y="187"/>
      <point x="711" y="282" type="curve" smooth="yes"/>
      <point x="711" y="295"/>
      <point x="706" y="301"/>
      <point x="697" y="301" type="curve" smooth="yes"/>
      <point x="689" y="301"/>
      <point x="682" y="296"/>
      <point x="678" y="280" type="curve" smooth="yes"/>
      <point x="637" y="118"/>
      <point x="495" y="33"/>
      <point x="373" y="32" type="curve" smooth="yes"/>
      <point x="221" y="31"/>
      <point x="138" y="167"/>
      <point x="174" y="419" type="curve" smooth="yes"/>
      <point x="210" y="673"/>
      <point x="397" y="878"/>
    </contour>
  </outline>
</glyph>
<glyph name="d" format="2">
  <advance width="1034"/>
  <unicode hex="0064"/>
  <anchor x="398" y="1022" name="center"/>
  <outline>
    <contour>
      <point x="899" y="836" type="line"/>
      <point x="868" y="886"/>
      <point x="809.0" y="914.0"/>
      <point x="720" y="914.0" type="curve" smooth="yes"/>
      <point x="425.9778830963665" y="914.0"/>
      <point x="91.00045821244957" y="596.0109665512932"/>
      <point x="76" y="237" type="curve" smooth="yes"/>
      <point x="64.9972238992492" y="48.952553914440955"/>
      <point x="141.35714285714283" y="-15.0"/>
      <point x="241" y="-15" type="curve" smooth="yes"/>
      <point x="396.2998065764023" y="-15.0"/>
      <point x="600" y="160"/>
      <point x="759" y="475" type="curve"/>
      <point x="741" y="484" type="line"/>
      <point x="652" y="199"/>
      <point x="623" y="115"/>
      <point x="623" y="62" type="curve" smooth="yes"/>
      <point x="623.0" y="10.0"/>
      <point x="658" y="-15"/>
      <point x="706" y="-15" type="curve" smooth="yes"/>
      <point x="767" y="-15"/>
      <point x="834" y="24"/>
      <point x="871" y="88" type="curve" smooth="yes"/>
      <point x="878" y="101"/>
      <point x="881" y="113"/>
      <point x="872" y="117" type="curve" smooth="yes"/>
      <point x="863" y="121"/>
      <point x="853" y="115"/>
      <point x="837" y="99" type="curve" smooth="yes"/>
      <point x="793" y="54"/>
      <point x="763" y="38"/>
      <point x="737" y="38" type="curve" smooth="yes"/>
      <point x="695" y="38"/>
      <point x="685" y="78"/>
      <point x="721" y="197" type="curve" smooth="yes"/>
      <point x="981" y="1053" type="line" smooth="yes"/>
      <point x="998" y="1110"/>
      <point x="1006" y="1150"/>
      <point x="1014" y="1211" type="curve" smooth="yes"/>
      <point x="1025" y="1296"/>
      <point x="1087" y="1370"/>
      <point x="1158" y="1370" type="curve" smooth="yes"/>
      <point x="1217" y="1370"/>
      <point x="1243" y="1330"/>
      <point x="1290" y="1330" type="curve" smooth="yes"/>
      <point x="1331" y="1330"/>
      <point x="1348" y="1351"/>
      <point x="1348" y="1378" type="curve" smooth="yes"/>
      <point x="1348" y="1408"/>
      <point x="1317" y="1434"/>
      <point x="1245" y="1434" type="curve" smooth="yes"/>
      <point x="1104" y="1434"/>
      <point x="1006" y="1353"/>
      <point x="951" y="1174" type="curve" smooth="yes"/>
      <point x="792" y="655" type="line" smooth="yes"/>
      <point x="696" y="342"/>
      <point x="430" y="39.0"/>
      <point x="278" y="39" type="curve" smooth="yes"/>
      <point x="195" y="39"/>
      <point x="139.99540464659017" y="99.9329078402165"/>
      <point x="150" y="246" type="curve" smooth="yes"/>
      <point x="165.00065565284189" y="569.0141183911953"/>
      <point x="448.89213893967093" y="876.0"/>
      <point x="708" y="876" type="curve" smooth="yes"/>
      <point x="787.0" y="876.0"/>
      <point x="836.0" y="852"/>
      <point x="872" y="803" type="curve"/>
    </contour>
  </outline>
</glyph>
<glyph name="e" format="2">
  <advance width="870"/>
  <unicode hex="0065"/>
  <anchor x="562" y="1035.0" name="center"/>
  <outline>
    <contour>
      <point x="136" y="407" type="curve"/>
      <point x="143" y="371" type="line"/>
      <point x="143" y="371"/>
      <point x="632" y="587"/>
      <point x="775" y="650" type="curve" smooth="yes"/>
      <point x="813" y="667"/>
      <point x="823" y="676"/>
      <point x="823" y="688" type="curve"/>
      <point x="823" y="700"/>
      <point x="814" y="706"/>
      <point x="796" y="700" type="curve" smooth="yes"/>
      <point x="780" y="695"/>
      <point x="771" y="701"/>
      <point x="771" y="715" type="curve" smooth="yes"/>
      <point x="771" y="822"/>
      <point x="698" y="915"/>
      <point x="582" y="915" type="curve" smooth="yes"/>
      <point x="347" y="915"/>
      <point x="99" y="616"/>
      <point x="86" y="297" type="curve" smooth="yes"/>
      <point x="78" y="99"/>
      <point x="177" y="-15"/>
      <point x="343" y="-15" type="curve" smooth="yes"/>
      <point x="573" y="-15"/>
      <point x="725" y="130"/>
      <point x="743" y="273" type="curve" smooth="yes"/>
      <point x="745" y="291"/>
      <point x="740" y="299"/>
      <point x="729" y="299" type="curve" smooth="yes"/>
      <point x="721" y="299"/>
      <point x="714" y="294"/>
      <point x="710" y="278" type="curve" smooth="yes"/>
      <point x="668" y="114"/>
      <point x="518" y="29"/>
      <point x="380" y="29" type="curve" smooth="yes"/>
      <point x="243" y="29"/>
      <point x="150" y="127"/>
      <point x="161" y="329" type="curve" smooth="yes"/>
      <point x="177" y="623"/>
      <point x="393" y="879"/>
      <point x="556" y="879" type="curve" smooth="yes"/>
      <point x="633" y="879"/>
      <point x="690" y="799"/>
      <point x="690" y="697" type="curve" smooth="yes"/>
      <point x="690" y="663"/>
      <point x="688" y="647"/>
      <point x="681" y="628" type="curve"/>
      <point x="693" y="652" type="line"/>
      <point x="511" y="572"/>
      <point x="136" y="407"/>
    </contour>
  </outline>
</glyph>
<glyph name="g" format="2">
  <advance width="945"/>
  <unicode hex="0067"/>
  <anchor x="668" y="1010.0" name="center"/>
  <outline>
    <contour>
      <point x="695" y="-16" type="curve" smooth="yes"/>
      <point x="869" y="797" type="line" smooth="yes"/>
      <point x="875" y="825"/>
      <point x="898" y="836"/>
      <point x="898" y="864" type="curve" smooth="yes"/>
      <point x="898.0" y="894.0"/>
      <point x="850" y="916"/>
      <point x="762" y="916" type="curve" smooth="yes"/>
      <point x="426" y="916"/>
      <point x="95" y="583"/>
      <point x="77" y="224" type="curve" smooth="yes"/>
      <point x="69" y="54"/>
      <point x="141" y="-15"/>
      <point x="248" y="-15.0" type="curve" smooth="yes"/>
      <point x="440.7208400937444" y="-15.0"/>
      <point x="617.1709051505669" y="164.39468023979856"/>
      <point x="756" y="485" type="curve"/>
      <point x="738" y="500" type="line"/>
      <point x="612" y="-46" type="line" smooth="yes"/>
      <point x="546" y="-332.0"/>
      <point x="366" y="-440"/>
      <point x="177" y="-440" type="curve" smooth="yes"/>
      <point x="94" y="-440"/>
      <point x="33" y="-390"/>
      <point x="-19" y="-390" type="curve" smooth="yes"/>
      <point x="-51.0" y="-390.0"/>
      <point x="-73.0" y="-409"/>
      <point x="-73" y="-436" type="curve" smooth="yes"/>
      <point x="-73.0" y="-475.0"/>
      <point x="-31" y="-502"/>
      <point x="73" y="-502" type="curve" smooth="yes"/>
      <point x="365.28943089430896" y="-502.0"/>
      <point x="621" y="-361"/>
    </contour>
    <contour>
      <point x="152" y="256" type="curve" smooth="yes"/>
      <point x="167.9223785688127" y="585.3942066423122"/>
      <point x="466.0" y="872.0"/>
      <point x="721" y="872" type="curve" smooth="yes"/>
      <point x="766.7333333333333" y="872.0"/>
      <point x="791.0" y="850.0"/>
      <point x="791" y="801" type="curve" smooth="yes"/>
      <point x="791.0" y="513.0"/>
      <point x="511.7865612648221" y="38.0"/>
      <point x="290" y="38" type="curve" smooth="yes"/>
      <point x="207" y="38"/>
      <point x="142.00096409756372" y="90.01600401955804"/>
    </contour>
  </outline>
</glyph>
<glyph name="h" format="2">
  <advance width="1069"/>
  <unicode hex="0068"/>
  <anchor x="437" y="980" name="center"/>
  <outline>
    <contour>
      <point x="252" y="298" type="curve" smooth="yes"/>
      <point x="221" y="208"/>
      <point x="209" y="133"/>
      <point x="209" y="102" type="curve" smooth="yes"/>
      <point x="209" y="72"/>
      <point x="215" y="63"/>
      <point x="215" y="36" type="curve" smooth="yes"/>
      <point x="215" y="6"/>
      <point x="183" y="-15"/>
      <point x="147" y="-15" type="curve" smooth="yes"/>
      <point x="112" y="-15"/>
      <point x="103" y="22"/>
      <point x="119" y="78" type="curve" smooth="yes"/>
      <point x="371" y="976" type="line" smooth="yes"/>
      <point x="460" y="1293"/>
      <point x="680" y="1434"/>
      <point x="968" y="1434" type="curve" smooth="yes"/>
      <point x="1041" y="1434"/>
      <point x="1067" y="1411"/>
      <point x="1067" y="1386" type="curve" smooth="yes"/>
      <point x="1067" y="1356"/>
      <point x="1044" y="1342"/>
      <point x="1003" y="1342" type="curve" smooth="yes"/>
      <point x="953" y="1342"/>
      <point x="898" y="1374"/>
      <point x="824" y="1374" type="curve" smooth="yes"/>
      <point x="651" y="1374"/>
      <point x="506" y="1236"/>
      <point x="431" y="958" type="curve" smooth="yes"/>
      <point x="284" y="412" type="line"/>
      <point x="267" y="418" type="line"/>
      <point x="424" y="790"/>
      <point x="680" y="914"/>
      <point x="821" y="914" type="curve" smooth="yes"/>
      <point x="973" y="914"/>
      <point x="963" y="818"/>
      <point x="901" y="642" type="curve" smooth="yes"/>
      <point x="743" y="194" type="line" smooth="yes"/>
      <point x="702" y="79"/>
      <point x="717" y="38"/>
      <point x="759" y="38" type="curve" smooth="yes"/>
      <point x="785" y="38"/>
      <point x="815" y="54"/>
      <point x="859" y="99" type="curve" smooth="yes"/>
      <point x="875" y="115"/>
      <point x="885" y="121"/>
      <point x="894" y="117" type="curve" smooth="yes"/>
      <point x="903" y="113"/>
      <point x="900" y="101"/>
      <point x="893" y="88" type="curve" smooth="yes"/>
      <point x="856" y="24"/>
      <point x="789" y="-15"/>
      <point x="728" y="-15" type="curve" smooth="yes"/>
      <point x="655" y="-15"/>
      <point x="625" y="48"/>
      <point x="672" y="183" type="curve" smooth="yes"/>
      <point x="835" y="650" type="line" smooth="yes"/>
      <point x="892" y="813"/>
      <point x="869" y="861"/>
      <point x="784" y="861" type="curve" smooth="yes"/>
      <point x="646" y="861"/>
      <point x="387" y="685"/>
    </contour>
  </outline>
</glyph>
<glyph name="i" format="2">
  <advance width="557"/>
  <unicode hex="0069"/>
  <outline>
    <contour>
      <point x="225" y="195" type="curve" smooth="yes"/>
      <point x="422" y="716" type="line" smooth="yes"/>
      <point x="473" y="850"/>
      <point x="439" y="914"/>
      <point x="366" y="914" type="curve" smooth="yes"/>
      <point x="305" y="914"/>
      <point x="238" y="875"/>
      <point x="201" y="811" type="curve" smooth="yes"/>
      <point x="194" y="798"/>
      <point x="191" y="786"/>
      <point x="200" y="782" type="curve" smooth="yes"/>
      <point x="209" y="778"/>
      <point x="219" y="784"/>
      <point x="235" y="800" type="curve" smooth="yes"/>
      <point x="279" y="845"/>
      <point x="309" y="861"/>
      <point x="335" y="861" type="curve" smooth="yes"/>
      <point x="377" y="861"/>
      <point x="394" y="819"/>
      <point x="351" y="705" type="curve" smooth="yes"/>
      <point x="154" y="184" type="line" smooth="yes"/>
      <point x="103" y="50"/>
      <point x="137" y="-14"/>
      <point x="210" y="-14" type="curve" smooth="yes"/>
      <point x="271" y="-14"/>
      <point x="338" y="25"/>
      <point x="375" y="89" type="curve" smooth="yes"/>
      <point x="382" y="102"/>
      <point x="385" y="114"/>
      <point x="376" y="118" type="curve" smooth="yes"/>
      <point x="367" y="122"/>
      <point x="357" y="116"/>
      <point x="341" y="100" type="curve" smooth="yes"/>
      <point x="297" y="55"/>
      <point x="267" y="39"/>
      <point x="241" y="39" type="curve" smooth="yes"/>
      <point x="199" y="39"/>
      <point x="182" y="81"/>
    </contour>
    <contour>
      <point x="446" y="1165" type="curve" smooth="yes"/>
      <point x="496" y="1165"/>
      <point x="545" y="1206"/>
      <point x="558" y="1254" type="curve" smooth="yes"/>
      <point x="572" y="1306"/>
      <point x="544" y="1344"/>
      <point x="494" y="1344" type="curve" smooth="yes"/>
      <point x="446" y="1344"/>
      <point x="395" y="1306"/>
      <point x="381" y="1254" type="curve" smooth="yes"/>
      <point x="368" y="1206"/>
      <point x="398" y="1165"/>
    </contour>
  </outline>
</glyph>
<glyph name="k" format="2">
  <advance width="1004"/>
  <unicode hex="006B"/>
  <anchor x="399" y="980" name="center"/>
  <outline>
    <contour>
      <point x="303" y="490" type="curve"/>
      <point x="282" y="485" type="line"/>
      <point x="389" y="723"/>
      <point x="606" y="929"/>
      <point x="813" y="914" type="curve" smooth="yes"/>
      <point x="921" y="905"/>
      <point x="981" y="845"/>
      <point x="970" y="748" type="curve" smooth="yes"/>
      <point x="953" y="590"/>
      <point x="717" y="425"/>
      <point x="232" y="318" type="curve"/>
      <point x="236" y="355" type="line"/>
      <point x="702" y="460"/>
      <point x="874" y="600"/>
      <point x="897" y="749" type="curve" smooth="yes"/>
      <point x="907" y="818"/>
      <point x="876" y="862"/>
      <point x="800" y="871" type="curve" smooth="yes"/>
      <point x="626" y="892"/>
      <point x="342" y="646"/>
      <point x="264" y="352" type="curve" smooth="yes"/>
      <point x="213" y="161"/>
      <point x="210" y="137"/>
      <point x="210" y="106" type="curve" smooth="yes"/>
      <point x="210" y="76"/>
      <point x="216" y="67"/>
      <point x="216" y="40" type="curve" smooth="yes"/>
      <point x="216" y="10"/>
      <point x="184" y="-11"/>
      <point x="148" y="-11" type="curve" smooth="yes"/>
      <point x="113" y="-11"/>
      <point x="104" y="26"/>
      <point x="120" y="82" type="curve" smooth="yes"/>
      <point x="372" y="976" type="line" smooth="yes"/>
      <point x="461" y="1293"/>
      <point x="681" y="1434"/>
      <point x="969" y="1434" type="curve" smooth="yes"/>
      <point x="1042" y="1434"/>
      <point x="1068" y="1411"/>
      <point x="1068" y="1386" type="curve" smooth="yes"/>
      <point x="1068" y="1356"/>
      <point x="1045" y="1342"/>
      <point x="1004" y="1342" type="curve" smooth="yes"/>
      <point x="954" y="1342"/>
      <point x="899" y="1374"/>
      <point x="825" y="1374" type="curve" smooth="yes"/>
      <point x="652" y="1374"/>
      <point x="507" y="1236"/>
      <point x="432" y="958" type="curve" smooth="yes"/>
      <point x="365" y="708"/>
      <point x="321" y="583"/>
    </contour>
    <contour>
      <point x="513" y="403" type="line"/>
      <point x="580" y="427" type="line"/>
      <point x="681" y="151" type="line" smooth="yes"/>
      <point x="710" y="70"/>
      <point x="731" y="43"/>
      <point x="763" y="38" type="curve" smooth="yes"/>
      <point x="798" y="33"/>
      <point x="820" y="63"/>
      <point x="836" y="93" type="curve" smooth="yes"/>
      <point x="849" y="118"/>
      <point x="856" y="122"/>
      <point x="865" y="121" type="curve" smooth="yes"/>
      <point x="874" y="120"/>
      <point x="878" y="110"/>
      <point x="874" y="93" type="curve" smooth="yes"/>
      <point x="855" y="21"/>
      <point x="812" y="-20"/>
      <point x="744" y="-15" type="curve" smooth="yes"/>
      <point x="685" y="-10"/>
      <point x="654" y="23"/>
      <point x="619" y="117" type="curve" smooth="yes"/>
    </contour>
  </outline>
</glyph>
<glyph name="l" format="2">
  <advance width="554"/>
  <unicode hex="006C"/>
  <anchor x="178" y="1593" name="center"/>
  <outline>
    <contour>
      <point x="724" y="1434" type="curve" smooth="yes"/>
      <point x="583" y="1434"/>
      <point x="486" y="1353"/>
      <point x="430" y="1174" type="curve" smooth="yes"/>
      <point x="128" y="206" type="line" smooth="yes"/>
      <point x="76" y="40"/>
      <point x="107" y="-15"/>
      <point x="194" y="-15" type="curve" smooth="yes"/>
      <point x="303" y="-15"/>
      <point x="426" y="59"/>
      <point x="445" y="133" type="curve" smooth="yes"/>
      <point x="449" y="148"/>
      <point x="443" y="157"/>
      <point x="433" y="157" type="curve" smooth="yes"/>
      <point x="425" y="157"/>
      <point x="419" y="152"/>
      <point x="412" y="142" type="curve" smooth="yes"/>
      <point x="365" y="78"/>
      <point x="295" y="43"/>
      <point x="236" y="43" type="curve" smooth="yes"/>
      <point x="176" y="43"/>
      <point x="157" y="78"/>
      <point x="203" y="227" type="curve" smooth="yes"/>
      <point x="460" y="1053" type="line" smooth="yes"/>
      <point x="478" y="1110"/>
      <point x="485" y="1150"/>
      <point x="493" y="1211" type="curve" smooth="yes"/>
      <point x="504" y="1296"/>
      <point x="566" y="1370"/>
      <point x="637" y="1370" type="curve" smooth="yes"/>
      <point x="697" y="1370"/>
      <point x="723" y="1330"/>
      <point x="769" y="1330" type="curve" smooth="yes"/>
      <point x="810" y="1330"/>
      <point x="827" y="1351"/>
      <point x="827" y="1378" type="curve" smooth="yes"/>
      <point x="827" y="1408"/>
      <point x="796" y="1434"/>
    </contour>
  </outline>
</glyph>
<glyph name="m" format="2">
  <advance width="1558"/>
  <unicode hex="006D"/>
  <anchor x="656" y="980" name="center"/>
  <outline>
    <contour>
      <point x="651" y="140" type="line" smooth="yes"/>
      <point x="610" y="22"/>
      <point x="621" y="-15"/>
      <point x="664" y="-15" type="curve" smooth="yes"/>
      <point x="699" y="-15"/>
      <point x="728" y="7"/>
      <point x="728" y="42" type="curve" smooth="yes"/>
      <point x="728" y="67"/>
      <point x="716" y="76"/>
      <point x="716" y="106" type="curve" smooth="yes"/>
      <point x="716" y="128"/>
      <point x="722" y="156"/>
      <point x="771" y="298" type="curve" smooth="yes"/>
      <point x="906" y="684"/>
      <point x="1152" y="861"/>
      <point x="1285" y="861" type="curve" smooth="yes"/>
      <point x="1350" y="861"/>
      <point x="1380" y="809"/>
      <point x="1324" y="650" type="curve" smooth="yes"/>
      <point x="1161" y="183" type="line" smooth="yes"/>
      <point x="1114" y="48"/>
      <point x="1144" y="-15"/>
      <point x="1217" y="-15" type="curve" smooth="yes"/>
      <point x="1278" y="-15"/>
      <point x="1345" y="24"/>
      <point x="1382" y="88" type="curve" smooth="yes"/>
      <point x="1389" y="101"/>
      <point x="1392" y="113"/>
      <point x="1383" y="117" type="curve" smooth="yes"/>
      <point x="1374" y="121"/>
      <point x="1364" y="115"/>
      <point x="1348" y="99" type="curve" smooth="yes"/>
      <point x="1304" y="54"/>
      <point x="1274" y="38"/>
      <point x="1248" y="38" type="curve" smooth="yes"/>
      <point x="1206" y="38"/>
      <point x="1191" y="79"/>
      <point x="1232" y="194" type="curve" smooth="yes"/>
      <point x="1390" y="642" type="line" smooth="yes"/>
      <point x="1451" y="815"/>
      <point x="1451" y="914"/>
      <point x="1322" y="914" type="curve" smooth="yes"/>
      <point x="1181" y="914"/>
      <point x="931" y="777"/>
      <point x="769" y="379" type="curve"/>
      <point x="758" y="314" type="line"/>
      <point x="915" y="690"/>
      <point x="930" y="738"/>
      <point x="934" y="795" type="curve" smooth="yes"/>
      <point x="940" y="878"/>
      <point x="904" y="914"/>
      <point x="828" y="914" type="curve" smooth="yes"/>
      <point x="688" y="914"/>
      <point x="432" y="779"/>
      <point x="269" y="379" type="curve"/>
      <point x="253" y="314" type="line"/>
      <point x="417" y="695"/>
      <point x="446" y="775"/>
      <point x="446" y="837" type="curve" smooth="yes"/>
      <point x="446" y="889"/>
      <point x="411" y="914"/>
      <point x="363" y="914" type="curve" smooth="yes"/>
      <point x="302" y="914"/>
      <point x="235" y="875"/>
      <point x="198" y="811" type="curve" smooth="yes"/>
      <point x="191" y="798"/>
      <point x="188" y="786"/>
      <point x="197" y="782" type="curve" smooth="yes"/>
      <point x="206" y="778"/>
      <point x="216" y="784"/>
      <point x="232" y="800" type="curve" smooth="yes"/>
      <point x="276" y="845"/>
      <point x="306" y="861"/>
      <point x="332" y="861" type="curve" smooth="yes"/>
      <point x="374" y="861"/>
      <point x="388" y="820"/>
      <point x="348" y="705" type="curve" smooth="yes"/>
      <point x="151" y="140" type="line" smooth="yes"/>
      <point x="110" y="22"/>
      <point x="121" y="-15"/>
      <point x="164" y="-15" type="curve" smooth="yes"/>
      <point x="199" y="-15"/>
      <point x="228" y="7"/>
      <point x="228" y="42" type="curve" smooth="yes"/>
      <point x="228" y="67"/>
      <point x="216" y="76"/>
      <point x="216" y="106" type="curve" smooth="yes"/>
      <point x="216" y="128"/>
      <point x="222" y="156"/>
      <point x="271" y="298" type="curve" smooth="yes"/>
      <point x="406" y="685"/>
      <point x="659" y="861"/>
      <point x="791" y="861" type="curve" smooth="yes"/>
      <point x="859" y="861"/>
      <point x="885" y="807"/>
      <point x="830" y="650" type="curve" smooth="yes"/>
    </contour>
  </outline>
</glyph>
<glyph name="n" format="2">
  <advance width="1103"/>
  <unicode hex="006E"/>
  <anchor x="686" y="946" name="center"/>
  <outline>
    <contour>
      <point x="202" y="782" type="curve" smooth="yes"/>
      <point x="211" y="778"/>
      <point x="221" y="784"/>
      <point x="237" y="800" type="curve" smooth="yes"/>
      <point x="281" y="845"/>
      <point x="311" y="861"/>
      <point x="337" y="861" type="curve" smooth="yes"/>
      <point x="379" y="861"/>
      <point x="393" y="820"/>
      <point x="353" y="705" type="curve" smooth="yes"/>
      <point x="156" y="140" type="line" smooth="yes"/>
      <point x="115" y="22"/>
      <point x="126" y="-15"/>
      <point x="169" y="-15" type="curve" smooth="yes"/>
      <point x="204" y="-15"/>
      <point x="233" y="7"/>
      <point x="233" y="42" type="curve" smooth="yes"/>
      <point x="233" y="67"/>
      <point x="221" y="76"/>
      <point x="221" y="106" type="curve" smooth="yes"/>
      <point x="221" y="128"/>
      <point x="227" y="156"/>
      <point x="276" y="298" type="curve" smooth="yes"/>
      <point x="411" y="685"/>
      <point x="670" y="861"/>
      <point x="808" y="861" type="curve" smooth="yes"/>
      <point x="893" y="861"/>
      <point x="916" y="813"/>
      <point x="859" y="650" type="curve" smooth="yes"/>
      <point x="696" y="183" type="line" smooth="yes"/>
      <point x="649" y="48"/>
      <point x="679" y="-15"/>
      <point x="752" y="-15" type="curve" smooth="yes"/>
      <point x="813" y="-15"/>
      <point x="880" y="24"/>
      <point x="917" y="88" type="curve" smooth="yes"/>
      <point x="924" y="101"/>
      <point x="927" y="113"/>
      <point x="918" y="117" type="curve" smooth="yes"/>
      <point x="909" y="121"/>
      <point x="899" y="115"/>
      <point x="883" y="99" type="curve" smooth="yes"/>
      <point x="839" y="54"/>
      <point x="809" y="38"/>
      <point x="783" y="38" type="curve" smooth="yes"/>
      <point x="741" y="38"/>
      <point x="726" y="79"/>
      <point x="767" y="194" type="curve" smooth="yes"/>
      <point x="925" y="642" type="line" smooth="yes"/>
      <point x="987" y="818"/>
      <point x="997" y="914"/>
      <point x="845" y="914" type="curve" smooth="yes"/>
      <point x="699" y="914"/>
      <point x="437" y="779"/>
      <point x="274" y="379" type="curve"/>
      <point x="258" y="314" type="line"/>
      <point x="422" y="695"/>
      <point x="451" y="775"/>
      <point x="451" y="837" type="curve" smooth="yes"/>
      <point x="451" y="889"/>
      <point x="416" y="914"/>
      <point x="368" y="914" type="curve" smooth="yes"/>
      <point x="307" y="914"/>
      <point x="240" y="875"/>
      <point x="203" y="811" type="curve" smooth="yes"/>
      <point x="196" y="798"/>
      <point x="193" y="786"/>
    </contour>
  </outline>
</glyph>
<glyph name="o" format="2">
  <advance width="961"/>
  <unicode hex="006F"/>
  <anchor x="632" y="1000" name="center"/>
  <outline>
    <contour>
      <point x="609" y="914" type="curve" smooth="yes"/>
      <point x="374" y="930"/>
      <point x="150" y="711"/>
      <point x="98" y="427" type="curve" smooth="yes"/>
      <point x="51" y="152"/>
      <point x="174" y="-4"/>
      <point x="345" y="-15" type="curve" smooth="yes"/>
      <point x="585" y="-31"/>
      <point x="816" y="188"/>
      <point x="868" y="472" type="curve" smooth="yes"/>
      <point x="915" y="747"/>
      <point x="788" y="903"/>
    </contour>
    <contour>
      <point x="364" y="25" type="curve" smooth="yes"/>
      <point x="218" y="34"/>
      <point x="127" y="155"/>
      <point x="173" y="417" type="curve" smooth="yes"/>
      <point x="223" y="700"/>
      <point x="401" y="886"/>
      <point x="590" y="874" type="curve" smooth="yes"/>
      <point x="745" y="865"/>
      <point x="839" y="744"/>
      <point x="793" y="482" type="curve" smooth="yes"/>
      <point x="743" y="199"/>
      <point x="558" y="13"/>
    </contour>
  </outline>
</glyph>
<glyph name="q" format="2">
  <advance width="995"/>
  <unicode hex="0071"/>
  <outline>
    <contour>
      <point x="736" y="462" type="line"/>
      <point x="492" y="-360" type="line" smooth="yes"/>
      <point x="474" y="-419"/>
      <point x="434" y="-445"/>
      <point x="325" y="-455" type="curve" smooth="yes"/>
      <point x="290" y="-458"/>
      <point x="281" y="-466"/>
      <point x="281" y="-473" type="curve" smooth="yes"/>
      <point x="281" y="-488"/>
      <point x="304" y="-494"/>
      <point x="328" y="-493" type="curve" smooth="yes"/>
      <point x="665" y="-482" type="line" smooth="yes"/>
      <point x="686" y="-481"/>
      <point x="695" y="-472"/>
      <point x="695" y="-461" type="curve" smooth="yes"/>
      <point x="695" y="-452"/>
      <point x="686" y="-447"/>
      <point x="667" y="-444" type="curve" smooth="yes"/>
      <point x="600" y="-435" type="line" smooth="yes"/>
      <point x="566" y="-430"/>
      <point x="557" y="-406"/>
      <point x="569" y="-362" type="curve" smooth="yes"/>
      <point x="879" y="736" type="line" smooth="yes"/>
      <point x="893" y="788"/>
      <point x="917" y="815"/>
      <point x="917" y="847" type="curve" smooth="yes"/>
      <point x="917" y="889"/>
      <point x="863" y="915"/>
      <point x="772" y="915" type="curve" smooth="yes"/>
      <point x="420" y="915"/>
      <point x="61" y="558"/>
      <point x="61" y="178" type="curve" smooth="yes"/>
      <point x="61" y="48"/>
      <point x="129" y="-15"/>
      <point x="235" y="-15" type="curve" smooth="yes"/>
      <point x="400" y="-15"/>
      <point x="610" y="158"/>
      <point x="748" y="450" type="curve"/>
    </contour>
    <contour>
      <point x="139" y="191" type="curve" smooth="yes"/>
      <point x="139" y="545"/>
      <point x="445" y="874"/>
      <point x="732" y="874" type="curve" smooth="yes"/>
      <point x="783" y="874"/>
      <point x="810" y="853"/>
      <point x="810" y="796" type="curve" smooth="yes"/>
      <point x="810" y="511"/>
      <point x="498" y="41"/>
      <point x="266" y="41" type="curve" smooth="yes"/>
      <point x="188" y="41"/>
      <point x="139" y="88"/>
    </contour>
  </outline>
</glyph>
<glyph name="r" format="2">
  <advance width="818"/>
  <unicode hex="0072"/>
  <anchor x="553" y="945" name="center"/>
  <outline>
    <contour>
      <point x="172" y="782" type="curve" smooth="yes"/>
      <point x="181" y="778"/>
      <point x="191" y="784"/>
      <point x="207" y="800" type="curve" smooth="yes"/>
      <point x="251" y="845"/>
      <point x="281" y="861"/>
      <point x="307" y="861" type="curve" smooth="yes"/>
      <point x="349" y="861"/>
      <point x="363" y="820"/>
      <point x="327" y="705" type="curve" smooth="yes"/>
      <point x="150" y="135" type="line" smooth="yes"/>
      <point x="115" y="21"/>
      <point x="127" y="-16"/>
      <point x="176" y="-16" type="curve" smooth="yes"/>
      <point x="211" y="-16"/>
      <point x="240" y="8"/>
      <point x="240" y="33" type="curve" smooth="yes"/>
      <point x="240" y="60"/>
      <point x="217" y="71"/>
      <point x="217" y="106" type="curve" smooth="yes"/>
      <point x="217" y="146"/>
      <point x="232" y="192"/>
      <point x="262" y="284" type="curve" smooth="yes"/>
      <point x="373" y="647"/>
      <point x="569" y="875"/>
      <point x="686" y="875" type="curve" smooth="yes"/>
      <point x="728" y="875"/>
      <point x="743" y="849"/>
      <point x="743" y="812" type="curve" smooth="yes"/>
      <point x="743" y="785"/>
      <point x="733" y="766"/>
      <point x="733" y="745" type="curve" smooth="yes"/>
      <point x="733" y="725"/>
      <point x="747" y="711"/>
      <point x="768" y="711" type="curve" smooth="yes"/>
      <point x="800" y="711"/>
      <point x="824" y="746"/>
      <point x="824" y="804" type="curve" smooth="yes"/>
      <point x="824" y="870"/>
      <point x="786" y="914"/>
      <point x="705" y="914" type="curve" smooth="yes"/>
      <point x="526" y="914"/>
      <point x="347" y="649"/>
      <point x="266" y="375" type="curve"/>
      <point x="280" y="377" type="line"/>
      <point x="286" y="471"/>
      <point x="417" y="716"/>
      <point x="417" y="835" type="curve"/>
      <point x="417" y="888"/>
      <point x="384" y="914"/>
      <point x="338" y="914" type="curve" smooth="yes"/>
      <point x="277" y="914"/>
      <point x="210" y="875"/>
      <point x="173" y="811" type="curve" smooth="yes"/>
      <point x="166" y="798"/>
      <point x="163" y="786"/>
    </contour>
  </outline>
</glyph>
<glyph name="s" format="2">
  <advance width="758"/>
  <unicode hex="0073"/>
  <anchor x="516" y="1004" name="center"/>
  <outline>
    <contour>
      <point x="314" y="25" type="curve" smooth="yes"/>
      <point x="237" y="25"/>
      <point x="170" y="62"/>
      <point x="124" y="151" type="curve" smooth="yes"/>
      <point x="106" y="187"/>
      <point x="87" y="197"/>
      <point x="70" y="197" type="curve" smooth="yes"/>
      <point x="50" y="197"/>
      <point x="36" y="181"/>
      <point x="36" y="157" type="curve" smooth="yes"/>
      <point x="36" y="79"/>
      <point x="145" y="-15"/>
      <point x="285" y="-15" type="curve" smooth="yes"/>
      <point x="463" y="-15"/>
      <point x="570" y="78"/>
      <point x="570" y="203" type="curve" smooth="yes"/>
      <point x="570" y="280"/>
      <point x="538" y="333"/>
      <point x="406" y="461" type="curve" smooth="yes"/>
      <point x="286" y="578"/>
      <point x="259" y="631"/>
      <point x="259" y="699" type="curve" smooth="yes"/>
      <point x="259" y="799"/>
      <point x="345" y="880"/>
      <point x="478" y="880" type="curve" smooth="yes"/>
      <point x="553" y="880"/>
      <point x="599" y="841"/>
      <point x="629" y="773" type="curve" smooth="yes"/>
      <point x="644" y="739"/>
      <point x="660" y="727"/>
      <point x="681" y="727" type="curve" smooth="yes"/>
      <point x="704" y="727"/>
      <point x="719" y="742"/>
      <point x="719" y="765" type="curve" smooth="yes"/>
      <point x="719" y="837"/>
      <point x="630" y="915"/>
      <point x="490" y="915" type="curve" smooth="yes"/>
      <point x="310" y="915"/>
      <point x="192" y="803"/>
      <point x="192" y="670" type="curve" smooth="yes"/>
      <point x="192" y="582"/>
      <point x="222" y="531"/>
      <point x="351" y="408" type="curve" smooth="yes"/>
      <point x="474" y="291"/>
      <point x="503" y="235"/>
      <point x="503" y="174" type="curve" smooth="yes"/>
      <point x="503" y="87"/>
      <point x="425" y="25"/>
    </contour>
  </outline>
</glyph>
<glyph name="t" format="2">
  <advance width="675"/>
  <unicode hex="0074"/>
  <anchor x="194" y="1130" name="center"/>
  <outline>
    <contour>
      <point x="314" y="845" type="line" smooth="yes"/>
      <point x="343" y="841"/>
      <point x="346" y="826"/>
      <point x="329" y="772" type="curve" smooth="yes"/>
      <point x="146" y="202" type="line" smooth="yes"/>
      <point x="104" y="70"/>
      <point x="124" y="-15"/>
      <point x="253" y="-15" type="curve"/>
      <point x="400" y="-15"/>
      <point x="527" y="96"/>
      <point x="527" y="150" type="curve" smooth="yes"/>
      <point x="527" y="158"/>
      <point x="523" y="163"/>
      <point x="514" y="163" type="curve" smooth="yes"/>
      <point x="507" y="163"/>
      <point x="501" y="160"/>
      <point x="492" y="150" type="curve" smooth="yes"/>
      <point x="422" y="71"/>
      <point x="359" y="43"/>
      <point x="283" y="43" type="curve"/>
      <point x="201" y="43"/>
      <point x="173" y="76"/>
      <point x="226" y="242" type="curve" smooth="yes"/>
      <point x="473" y="1011" type="line" smooth="yes"/>
      <point x="479" y="1030"/>
      <point x="483" y="1043"/>
      <point x="483" y="1053" type="curve" smooth="yes"/>
      <point x="483" y="1067"/>
      <point x="476" y="1072"/>
      <point x="466" y="1072" type="curve" smooth="yes"/>
      <point x="456" y="1072"/>
      <point x="446" y="1069"/>
      <point x="438" y="1054" type="curve" smooth="yes"/>
      <point x="365" y="914" type="line" smooth="yes"/>
      <point x="359" y="903"/>
      <point x="349" y="898"/>
      <point x="332" y="898" type="curve" smooth="yes"/>
      <point x="214" y="898" type="line" smooth="yes"/>
      <point x="197" y="898"/>
      <point x="187" y="891"/>
      <point x="187" y="879" type="curve" smooth="yes"/>
      <point x="187" y="869"/>
      <point x="196" y="862"/>
      <point x="211" y="860" type="curve" smooth="yes"/>
    </contour>
    <contour>
      <point x="354" y="858" type="line"/>
      <point x="643" y="858" type="line" smooth="yes"/>
      <point x="672" y="858"/>
      <point x="690" y="866"/>
      <point x="690" y="881" type="curve" smooth="yes"/>
      <point x="690" y="891"/>
      <point x="681" y="898"/>
      <point x="666" y="898" type="curve" smooth="yes"/>
      <point x="368" y="898" type="line"/>
    </contour>
  </outline>
</glyph>
<glyph name="v" format="2">
  <advance width="992"/>
  <unicode hex="0076"/>
  <outline>
    <contour>
      <point x="926" y="775" type="curve" smooth="yes"/>
      <point x="926" y="875"/>
      <point x="893" y="914"/>
      <point x="849" y="914" type="curve" smooth="yes"/>
      <point x="822" y="914"/>
      <point x="801" y="894"/>
      <point x="801" y="863" type="curve" smooth="yes"/>
      <point x="801" y="840"/>
      <point x="812" y="823"/>
      <point x="837" y="797" type="curve" smooth="yes"/>
      <point x="865" y="768"/>
      <point x="869" y="749"/>
      <point x="869" y="671" type="curve" smooth="yes"/>
      <point x="869" y="365"/>
      <point x="606" y="37"/>
      <point x="415" y="37" type="curve" smooth="yes"/>
      <point x="341" y="37"/>
      <point x="301" y="84"/>
      <point x="301" y="181" type="curve" smooth="yes"/>
      <point x="301" y="424"/>
      <point x="507" y="677"/>
      <point x="568" y="869" type="curve" smooth="yes"/>
      <point x="577" y="898"/>
      <point x="578" y="914"/>
      <point x="561" y="916" type="curve" smooth="yes"/>
      <point x="536" y="919"/>
      <point x="542" y="880"/>
      <point x="487" y="880" type="curve" smooth="yes"/>
      <point x="432" y="880"/>
      <point x="320" y="915"/>
      <point x="273" y="915" type="curve" smooth="yes"/>
      <point x="163" y="915"/>
      <point x="99" y="835"/>
      <point x="99" y="734" type="curve" smooth="yes"/>
      <point x="99" y="683"/>
      <point x="122" y="661"/>
      <point x="150" y="661" type="curve" smooth="yes"/>
      <point x="173" y="661"/>
      <point x="191" y="677"/>
      <point x="191" y="702" type="curve" smooth="yes"/>
      <point x="191" y="716"/>
      <point x="187" y="723"/>
      <point x="172" y="736" type="curve" smooth="yes"/>
      <point x="153" y="752"/>
      <point x="147" y="762"/>
      <point x="147" y="776" type="curve" smooth="yes"/>
      <point x="147" y="820"/>
      <point x="188" y="854"/>
      <point x="248" y="854" type="curve" smooth="yes"/>
      <point x="314" y="854"/>
      <point x="455" y="812"/>
      <point x="513" y="812" type="curve"/>
      <point x="517" y="849" type="line"/>
      <point x="468" y="678"/>
      <point x="236" y="433"/>
      <point x="226" y="172" type="curve" smooth="yes"/>
      <point x="221" y="46"/>
      <point x="278" y="-16"/>
      <point x="376" y="-16" type="curve" smooth="yes"/>
      <point x="633" y="-16"/>
      <point x="926" y="332"/>
    </contour>
  </outline>
</glyph>
<glyph name="w" format="2">
  <advance width="1480"/>
  <unicode hex="0077"/>
  <anchor x="964" y="1013" name="center"/>
  <outline>
    <contour>
      <point x="937" y="918" type="curve" smooth="yes"/>
      <point x="915" y="922"/>
      <point x="897" y="896"/>
      <point x="864" y="772" type="curve" smooth="yes"/>
      <point x="711" y="195"/>
      <point x="757" y="-15"/>
      <point x="920" y="-15" type="curve" smooth="yes"/>
      <point x="1112" y="-15"/>
      <point x="1338" y="220"/>
      <point x="1402" y="614" type="curve" smooth="yes"/>
      <point x="1433" y="809"/>
      <point x="1400" y="913"/>
      <point x="1334" y="913" type="curve" smooth="yes"/>
      <point x="1303" y="913"/>
      <point x="1283" y="887"/>
      <point x="1283" y="860" type="curve" smooth="yes"/>
      <point x="1283" y="840"/>
      <point x="1293" y="814"/>
      <point x="1314" y="784" type="curve" smooth="yes"/>
      <point x="1359" y="720"/>
      <point x="1368" y="639"/>
      <point x="1340" y="522" type="curve" smooth="yes"/>
      <point x="1267" y="218"/>
      <point x="1081" y="35"/>
      <point x="945" y="35" type="curve" smooth="yes"/>
      <point x="826" y="35"/>
      <point x="779" y="177"/>
      <point x="892" y="674" type="curve"/>
      <point x="758" y="201"/>
      <point x="563" y="38"/>
      <point x="415" y="38" type="curve" smooth="yes"/>
      <point x="341" y="38"/>
      <point x="301" y="85"/>
      <point x="301" y="182" type="curve" smooth="yes"/>
      <point x="301" y="425"/>
      <point x="507" y="678"/>
      <point x="568" y="870" type="curve" smooth="yes"/>
      <point x="577" y="899"/>
      <point x="578" y="915"/>
      <point x="561" y="917" type="curve" smooth="yes"/>
      <point x="536" y="920"/>
      <point x="542" y="881"/>
      <point x="487" y="881" type="curve" smooth="yes"/>
      <point x="432" y="881"/>
      <point x="320" y="916"/>
      <point x="273" y="916" type="curve" smooth="yes"/>
      <point x="163" y="916"/>
      <point x="99" y="836"/>
      <point x="99" y="735" type="curve" smooth="yes"/>
      <point x="99" y="684"/>
      <point x="122" y="662"/>
      <point x="150" y="662" type="curve" smooth="yes"/>
      <point x="173" y="662"/>
      <point x="191" y="678"/>
      <point x="191" y="703" type="curve" smooth="yes"/>
      <point x="191" y="717"/>
      <point x="187" y="724"/>
      <point x="172" y="737" type="curve" smooth="yes"/>
      <point x="153" y="753"/>
      <point x="147" y="763"/>
      <point x="147" y="777" type="curve" smooth="yes"/>
      <point x="147" y="821"/>
      <point x="188" y="855"/>
      <point x="248" y="855" type="curve" smooth="yes"/>
      <point x="314" y="855"/>
      <point x="455" y="813"/>
      <point x="513" y="813" type="curve"/>
      <point x="517" y="850" type="line"/>
      <point x="468" y="679"/>
      <point x="236" y="434"/>
      <point x="226" y="173" type="curve" smooth="yes"/>
      <point x="221" y="47"/>
      <point x="278" y="-15"/>
      <point x="390" y="-15" type="curve"/>
      <point x="588" y="-15"/>
      <point x="808" y="174"/>
      <point x="934" y="756" type="curve" smooth="yes"/>
      <point x="960" y="874"/>
      <point x="960" y="913"/>
    </contour>
  </outline>
</glyph>
<glyph name="y" format="2">
  <advance width="923"/>
  <unicode hex="0079"/>
  <anchor x="631" y="1003" name="center"/>
  <outline>
    <contour>
      <point x="594" y="472" type="curve" smooth="yes"/>
      <point x="367" y="-57" type="line"/>
      <point x="386" y="-96" type="line"/>
      <point x="388" y="173"/>
      <point x="392" y="667"/>
      <point x="386" y="775" type="curve" smooth="yes"/>
      <point x="381" y="872"/>
      <point x="345" y="917"/>
      <point x="283" y="917" type="curve" smooth="yes"/>
      <point x="227" y="917"/>
      <point x="175" y="883"/>
      <point x="147" y="819" type="curve" smooth="yes"/>
      <point x="140" y="803"/>
      <point x="140" y="790"/>
      <point x="150" y="786" type="curve" smooth="yes"/>
      <point x="160" y="783"/>
      <point x="167" y="787"/>
      <point x="182" y="809" type="curve" smooth="yes"/>
      <point x="210" y="851"/>
      <point x="234" y="864"/>
      <point x="260" y="864" type="curve" smooth="yes"/>
      <point x="295" y="864"/>
      <point x="313" y="829"/>
      <point x="315" y="755" type="curve" smooth="yes"/>
      <point x="322" y="586"/>
      <point x="320" y="117"/>
      <point x="317" y="-45" type="curve" smooth="yes"/>
      <point x="313" y="-250"/>
      <point x="174" y="-444"/>
      <point x="8" y="-444" type="curve" smooth="yes"/>
      <point x="-82" y="-444"/>
      <point x="-126" y="-387"/>
      <point x="-169" y="-387" type="curve" smooth="yes"/>
      <point x="-199" y="-387"/>
      <point x="-217" y="-404"/>
      <point x="-217" y="-431" type="curve" smooth="yes"/>
      <point x="-217" y="-468"/>
      <point x="-169" y="-500"/>
      <point x="-79" y="-500" type="curve" smooth="yes"/>
      <point x="123" y="-500"/>
      <point x="261" y="-413"/>
      <point x="379" y="-140" type="curve" smooth="yes"/>
      <point x="637" y="459" type="line" smooth="yes"/>
      <point x="774" y="778"/>
      <point x="854" y="835"/>
      <point x="957" y="844" type="curve" smooth="yes"/>
      <point x="1004" y="848"/>
      <point x="1022" y="865"/>
      <point x="1022" y="888" type="curve" smooth="yes"/>
      <point x="1022" y="910"/>
      <point x="1006" y="923"/>
      <point x="972" y="923" type="curve" smooth="yes"/>
      <point x="849" y="923"/>
      <point x="734" y="797"/>
    </contour>
  </outline>
</glyph>
<glyph name="z" format="2">
  <advance width="855"/>
  <unicode hex="007A"/>
  <anchor x="553" y="998" name="center"/>
  <outline>
    <contour>
      <point x="146" y="102" type="curve"/>
      <point x="166" y="129" type="line"/>
      <point x="306" y="129"/>
      <point x="442" y="56"/>
      <point x="554" y="56" type="curve" smooth="yes"/>
      <point x="642" y="56"/>
      <point x="689" y="83"/>
      <point x="711" y="185" type="curve" smooth="yes"/>
      <point x="715" y="202"/>
      <point x="721" y="209"/>
      <point x="728" y="209" type="curve" smooth="yes"/>
      <point x="737" y="209"/>
      <point x="741" y="199"/>
      <point x="741" y="181" type="curve" smooth="yes"/>
      <point x="741" y="80"/>
      <point x="666" y="-15"/>
      <point x="544" y="-15" type="curve" smooth="yes"/>
      <point x="392" y="-15"/>
      <point x="251" y="87"/>
      <point x="180" y="87" type="curve" smooth="yes"/>
      <point x="133" y="87"/>
      <point x="112" y="-14"/>
      <point x="61" y="-14" type="curve" smooth="yes"/>
      <point x="34" y="-14"/>
      <point x="19" y="0"/>
      <point x="19" y="28" type="curve" smooth="yes"/>
      <point x="19" y="58"/>
      <point x="44" y="90"/>
      <point x="101" y="132" type="curve" smooth="yes"/>
      <point x="130" y="154"/>
      <point x="211" y="233"/>
      <point x="433" y="468" type="curve" smooth="yes"/>
      <point x="623" y="669"/>
      <point x="727" y="780"/>
      <point x="753" y="818" type="curve"/>
      <point x="753" y="790" type="line"/>
      <point x="674" y="790"/>
      <point x="470" y="853"/>
      <point x="366" y="853" type="curve" smooth="yes"/>
      <point x="284" y="853"/>
      <point x="239" y="827"/>
      <point x="239" y="786" type="curve" smooth="yes"/>
      <point x="239" y="772"/>
      <point x="247" y="759"/>
      <point x="267" y="741" type="curve" smooth="yes"/>
      <point x="283" y="727"/>
      <point x="288" y="714"/>
      <point x="288" y="699" type="curve" smooth="yes"/>
      <point x="288" y="675"/>
      <point x="273" y="660"/>
      <point x="249" y="660" type="curve" smooth="yes"/>
      <point x="214" y="660"/>
      <point x="190" y="689"/>
      <point x="190" y="741" type="curve" smooth="yes"/>
      <point x="190" y="835"/>
      <point x="261" y="915"/>
      <point x="378" y="915" type="curve" smooth="yes"/>
      <point x="508" y="915"/>
      <point x="631" y="841"/>
      <point x="728" y="841" type="curve" smooth="yes"/>
      <point x="774" y="841"/>
      <point x="786" y="915"/>
      <point x="829" y="915" type="curve" smooth="yes"/>
      <point x="848" y="915"/>
      <point x="861" y="899"/>
      <point x="861" y="876" type="curve" smooth="yes"/>
      <point x="861" y="843"/>
      <point x="841" y="814"/>
      <point x="806" y="791" type="curve" smooth="yes"/>
      <point x="785" y="777"/>
      <point x="708" y="702"/>
      <point x="467" y="444" type="curve" smooth="yes"/>
      <point x="287" y="252"/>
      <point x="206" y="170"/>
    </contour>
  </outline>
</glyph>
<glyph name="bar" format="2">
  <advance width="659"/>
  <unicode hex="007C"/>
  <outline>
    <contour>
      <point x="346" y="640" type="curve" smooth="yes"/>
      <point x="293" y="446"/>
      <point x="159" y="-5"/>
      <point x="94" y="-242" type="curve" smooth="yes"/>
      <point x="87" y="-268"/>
      <point x="96" y="-285"/>
      <point x="119" y="-285" type="curve" smooth="yes"/>
      <point x="142" y="-285"/>
      <point x="161" y="-268"/>
      <point x="168" y="-242" type="curve" smooth="yes"/>
      <point x="223" y="-41"/>
      <point x="341" y="433"/>
      <point x="397" y="640" type="curve" smooth="yes"/>
      <point x="453" y="847"/>
      <point x="592" y="1321"/>
      <point x="646" y="1521" type="curve" smooth="yes"/>
      <point x="653" y="1548"/>
      <point x="643" y="1565"/>
      <point x="621" y="1565" type="curve" smooth="yes"/>
      <point x="599" y="1565"/>
      <point x="579" y="1548"/>
      <point x="571" y="1521" type="curve" smooth="yes"/>
      <point x="507" y="1284"/>
      <point x="397" y="833"/>
    </contour>
  </outline>
</glyph>
<glyph name="asciitilde" format="2">
  <advance width="1243"/>
  <unicode hex="007E"/>
  <outline>
    <contour>
      <point x="918" y="566" type="curve" smooth="yes"/>
      <point x="1045" y="566"/>
      <point x="1162" y="664"/>
      <point x="1194" y="799" type="curve" smooth="yes"/>
      <point x="1201" y="821"/>
      <point x="1191" y="834"/>
      <point x="1174" y="834" type="curve" smooth="yes"/>
      <point x="1155" y="834"/>
      <point x="1140" y="825"/>
      <point x="1131" y="803" type="curve" smooth="yes"/>
      <point x="1092" y="676"/>
      <point x="1019" y="623"/>
      <point x="939" y="623" type="curve" smooth="yes"/>
      <point x="778" y="623"/>
      <point x="683" y="843"/>
      <point x="496" y="843" type="curve" smooth="yes"/>
      <point x="352" y="843"/>
      <point x="233" y="728"/>
      <point x="186" y="584" type="curve" smooth="yes"/>
      <point x="178" y="566"/>
      <point x="186" y="555"/>
      <point x="202" y="555" type="curve" smooth="yes"/>
      <point x="220" y="555"/>
      <point x="236" y="563"/>
      <point x="245" y="582" type="curve" smooth="yes"/>
      <point x="291" y="710"/>
      <point x="373" y="792"/>
      <point x="476" y="792" type="curve" smooth="yes"/>
      <point x="626" y="792"/>
      <point x="736" y="566"/>
    </contour>
  </outline>
</glyph>
<glyph name="cent" format="2">
  <advance width="933"/>
  <unicode hex="00A2"/>
  <outline>
    <contour>
      <point x="927" y="692" type="curve" smooth="yes"/>
      <point x="962" y="819"/>
      <point x="862" y="928"/>
      <point x="662" y="928" type="curve" smooth="yes"/>
      <point x="406" y="928"/>
      <point x="178" y="725"/>
      <point x="109" y="468" type="curve" smooth="yes"/>
      <point x="32" y="178"/>
      <point x="153" y="-9"/>
      <point x="400" y="-9" type="curve" smooth="yes"/>
      <point x="590" y="-9"/>
      <point x="762" y="105"/>
      <point x="824" y="258" type="curve" smooth="yes"/>
      <point x="827" y="267"/>
      <point x="826" y="277"/>
      <point x="814" y="277" type="curve" smooth="yes"/>
      <point x="804" y="277"/>
      <point x="798" y="270"/>
      <point x="790" y="259" type="curve" smooth="yes"/>
      <point x="723" y="135"/>
      <point x="592" y="42"/>
      <point x="428" y="42" type="curve" smooth="yes"/>
      <point x="221" y="42"/>
      <point x="109" y="199"/>
      <point x="182" y="475" type="curve" smooth="yes"/>
      <point x="249" y="723"/>
      <point x="439" y="902"/>
      <point x="650" y="902" type="curve" smooth="yes"/>
      <point x="792" y="902"/>
      <point x="860" y="818"/>
      <point x="831" y="714" type="curve" smooth="yes"/>
      <point x="824" y="685" type="line" smooth="yes"/>
      <point x="815" y="653"/>
      <point x="831" y="635"/>
      <point x="862" y="635" type="curve" smooth="yes"/>
      <point x="890" y="635"/>
      <point x="918" y="659"/>
    </contour>
    <contour>
      <point x="537" y="470" type="curve" smooth="yes"/>
      <point x="595" y="665"/>
      <point x="684" y="979"/>
      <point x="705" y="1046" type="curve" smooth="yes"/>
      <point x="712" y="1075"/>
      <point x="700" y="1087"/>
      <point x="682" y="1087" type="curve" smooth="yes"/>
      <point x="660" y="1087"/>
      <point x="643" y="1074"/>
      <point x="636" y="1049" type="curve" smooth="yes"/>
      <point x="615" y="979"/>
      <point x="554" y="664"/>
      <point x="495" y="470" type="curve" smooth="yes"/>
      <point x="435" y="268"/>
      <point x="344" y="-42"/>
      <point x="323" y="-111" type="curve" smooth="yes"/>
      <point x="315" y="-139"/>
      <point x="324" y="-153"/>
      <point x="346" y="-153" type="curve" smooth="yes"/>
      <point x="368" y="-153"/>
      <point x="384" y="-138"/>
      <point x="391" y="-114" type="curve" smooth="yes"/>
      <point x="413" y="-43"/>
      <point x="476" y="268"/>
    </contour>
  </outline>
</glyph>
<glyph name="currency" format="2">
  <advance width="1130"/>
  <unicode hex="00A4"/>
  <outline>
    <contour>
      <point x="547" y="386" type="curve" smooth="yes"/>
      <point x="372" y="386"/>
      <point x="280" y="512"/>
      <point x="328" y="690" type="curve" smooth="yes"/>
      <point x="377" y="867"/>
      <point x="537" y="989"/>
      <point x="713" y="989" type="curve" smooth="yes"/>
      <point x="891" y="989"/>
      <point x="985" y="868"/>
      <point x="936" y="690" type="curve" smooth="yes"/>
      <point x="887" y="511"/>
      <point x="726" y="386"/>
    </contour>
    <contour>
      <point x="565" y="430" type="curve" smooth="yes"/>
      <point x="709" y="430"/>
      <point x="836" y="539"/>
      <point x="876" y="690" type="curve" smooth="yes"/>
      <point x="916" y="840"/>
      <point x="844" y="947"/>
      <point x="701" y="947" type="curve" smooth="yes"/>
      <point x="557" y="947"/>
      <point x="428" y="841"/>
      <point x="389" y="690" type="curve" smooth="yes"/>
      <point x="348" y="539"/>
      <point x="421" y="430"/>
    </contour>
    <contour>
      <point x="922" y="274" type="curve" smooth="yes"/>
      <point x="904" y="264"/>
      <point x="885" y="267"/>
      <point x="873" y="279" type="curve" smooth="yes"/>
      <point x="737" y="469" type="line"/>
      <point x="796" y="506" type="line"/>
      <point x="932" y="316" type="line" smooth="yes"/>
      <point x="942" y="304"/>
      <point x="941" y="286"/>
    </contour>
    <contour>
      <point x="337" y="1101" type="curve" smooth="yes"/>
      <point x="354" y="1112"/>
      <point x="376" y="1108"/>
      <point x="386" y="1096" type="curve" smooth="yes"/>
      <point x="522" y="907" type="line"/>
      <point x="464" y="870" type="line"/>
      <point x="328" y="1059" type="line" smooth="yes"/>
      <point x="317" y="1072"/>
      <point x="318" y="1089"/>
    </contour>
    <contour>
      <point x="114" y="276" type="curve" smooth="yes"/>
      <point x="103" y="287"/>
      <point x="114" y="304"/>
      <point x="133" y="316" type="curve" smooth="yes"/>
      <point x="369" y="506" type="line"/>
      <point x="404" y="470" type="line"/>
      <point x="169" y="281" type="line" smooth="yes"/>
      <point x="148" y="268"/>
      <point x="124" y="264"/>
    </contour>
    <contour>
      <point x="1146" y="1100" type="curve" smooth="yes"/>
      <point x="1156" y="1089"/>
      <point x="1146" y="1072"/>
      <point x="1126" y="1060" type="curve" smooth="yes"/>
      <point x="891" y="870" type="line"/>
      <point x="857" y="907" type="line"/>
      <point x="1091" y="1096" type="line" smooth="yes"/>
      <point x="1112" y="1108"/>
      <point x="1135" y="1112"/>
    </contour>
  </outline>
</glyph>
<glyph name="twosuperior" format="2">
  <advance width="670"/>
  <unicode hex="00B2"/>
  <outline>
    <contour>
      <point x="270" y="838" type="line"/>
      <point x="483" y="952" type="line" smooth="yes"/>
      <point x="666" y="1060"/>
      <point x="736" y="1132"/>
      <point x="759" y="1224" type="curve" smooth="yes"/>
      <point x="789" y="1331"/>
      <point x="740" y="1416"/>
      <point x="605" y="1416" type="curve" smooth="yes"/>
      <point x="464" y="1416"/>
      <point x="360" y="1330"/>
      <point x="334" y="1238" type="curve" smooth="yes"/>
      <point x="325" y="1204"/>
      <point x="334" y="1185"/>
      <point x="356" y="1185" type="curve" smooth="yes"/>
      <point x="379" y="1185"/>
      <point x="399" y="1201"/>
      <point x="407" y="1234" type="curve" smooth="yes"/>
      <point x="417" y="1271" type="line" smooth="yes"/>
      <point x="434" y="1339"/>
      <point x="494" y="1386"/>
      <point x="592" y="1386" type="curve" smooth="yes"/>
      <point x="679" y="1386"/>
      <point x="720" y="1327"/>
      <point x="694" y="1228" type="curve" smooth="yes"/>
      <point x="668" y="1128"/>
      <point x="601" y="1062"/>
      <point x="449" y="970" type="curve" smooth="yes"/>
      <point x="250" y="857" type="line"/>
    </contour>
    <contour>
      <point x="197" y="780" type="curve" smooth="yes"/>
      <point x="189" y="749"/>
      <point x="199" y="731"/>
      <point x="219" y="731" type="curve" smooth="yes"/>
      <point x="242" y="731"/>
      <point x="262" y="747"/>
      <point x="272" y="777" type="curve" smooth="yes"/>
      <point x="286" y="828"/>
      <point x="305" y="849"/>
      <point x="335" y="849" type="curve" smooth="yes"/>
      <point x="364" y="849"/>
      <point x="381" y="834"/>
      <point x="409" y="806" type="curve" smooth="yes"/>
      <point x="452" y="749"/>
      <point x="484" y="731"/>
      <point x="536" y="731" type="curve" smooth="yes"/>
      <point x="601" y="731"/>
      <point x="650" y="765"/>
      <point x="691" y="860" type="curve" smooth="yes"/>
      <point x="696" y="871"/>
      <point x="694" y="877"/>
      <point x="682" y="878" type="curve" smooth="yes"/>
      <point x="673" y="879"/>
      <point x="662" y="876"/>
      <point x="654" y="867" type="curve" smooth="yes"/>
      <point x="623" y="812"/>
      <point x="598" y="788"/>
      <point x="550" y="788" type="curve" smooth="yes"/>
      <point x="478" y="788"/>
      <point x="424" y="883"/>
      <point x="342" y="883" type="curve" smooth="yes"/>
      <point x="267" y="883"/>
      <point x="211" y="835"/>
    </contour>
  </outline>
</glyph>
<glyph name="ordmasculine" format="2">
  <advance width="895"/>
  <unicode hex="00BA"/>
  <outline>
    <contour>
      <point x="703" y="1419" type="curve" smooth="yes"/>
      <point x="490" y="1435"/>
      <point x="289" y="1250"/>
      <point x="244" y="1012" type="curve" smooth="yes"/>
      <point x="202" y="782"/>
      <point x="312" y="651"/>
      <point x="469" y="644" type="curve" smooth="yes"/>
      <point x="678" y="633"/>
      <point x="877" y="786"/>
      <point x="925" y="1047" type="curve" smooth="yes"/>
      <point x="963" y="1264"/>
      <point x="873" y="1406"/>
    </contour>
    <contour>
      <point x="488" y="679" type="curve" smooth="yes"/>
      <point x="353" y="684"/>
      <point x="273" y="786"/>
      <point x="311" y="1003" type="curve" smooth="yes"/>
      <point x="354" y="1236"/>
      <point x="515" y="1396"/>
      <point x="685" y="1384" type="curve" smooth="yes"/>
      <point x="812" y="1376"/>
      <point x="893" y="1260"/>
      <point x="858" y="1055" type="curve" smooth="yes"/>
      <point x="812" y="809"/>
      <point x="642" y="673"/>
    </contour>
  </outline>
</glyph>
<glyph name="AE" format="2">
  <advance width="1846"/>
  <unicode hex="00C6"/>
  <anchor x="1406" y="1582" name="center"/>
  <outline>
    <contour>
      <point x="1283" y="1400" type="line"/>
      <point x="1039" y="1400" type="line" smooth="yes"/>
      <point x="1021" y="1400"/>
      <point x="1009" y="1394"/>
      <point x="1006" y="1384" type="curve" smooth="yes"/>
      <point x="1002" y="1374"/>
      <point x="1018" y="1370"/>
      <point x="1049" y="1366" type="curve" smooth="yes"/>
      <point x="1091" y="1360"/>
      <point x="1105" y="1353"/>
      <point x="1079" y="1324" type="curve" smooth="yes"/>
      <point x="90" y="128" type="line" smooth="yes"/>
      <point x="44" y="72"/>
      <point x="22" y="53"/>
      <point x="-18" y="45" type="curve" smooth="yes"/>
      <point x="-65" y="34" type="line" smooth="yes"/>
      <point x="-86" y="31"/>
      <point x="-99" y="26"/>
      <point x="-103" y="16" type="curve" smooth="yes"/>
      <point x="-106" y="6"/>
      <point x="-98" y="0"/>
      <point x="-80" y="0" type="curve" smooth="yes"/>
      <point x="235" y="0" type="line" smooth="yes"/>
      <point x="253" y="0"/>
      <point x="265" y="6"/>
      <point x="269" y="16" type="curve" smooth="yes"/>
      <point x="273" y="26"/>
      <point x="263" y="33"/>
      <point x="243" y="34" type="curve" smooth="yes"/>
      <point x="157" y="45" type="line" smooth="yes"/>
      <point x="111" y="52"/>
      <point x="113" y="73"/>
      <point x="158" y="129" type="curve" smooth="yes"/>
      <point x="1180" y="1368" type="line"/>
      <point x="1277" y="1366" type="line"/>
    </contour>
    <contour>
      <point x="506" y="580" type="line"/>
      <point x="470" y="540" type="line"/>
      <point x="1031" y="540" type="line"/>
      <point x="1034" y="580" type="line"/>
    </contour>
    <contour>
      <point x="1075" y="707" type="line"/>
      <point x="1063" y="674" type="line"/>
      <point x="1485" y="674" type="line" smooth="yes"/>
      <point x="1546" y="674"/>
      <point x="1575" y="652"/>
      <point x="1603" y="555" type="curve" smooth="yes"/>
      <point x="1610" y="539"/>
      <point x="1620" y="532"/>
      <point x="1635" y="533" type="curve" smooth="yes"/>
      <point x="1647" y="534"/>
      <point x="1658" y="543"/>
      <point x="1652" y="565" type="curve" smooth="yes"/>
      <point x="1591" y="848" type="line" smooth="yes"/>
      <point x="1589" y="860"/>
      <point x="1582" y="868"/>
      <point x="1564" y="868" type="curve" smooth="yes"/>
      <point x="1552" y="868"/>
      <point x="1544" y="860"/>
      <point x="1545" y="847" type="curve" smooth="yes"/>
      <point x="1557" y="736"/>
      <point x="1531" y="707"/>
      <point x="1469" y="707" type="curve" smooth="yes"/>
    </contour>
    <contour>
      <point x="1412" y="0" type="line" smooth="yes"/>
      <point x="1444" y="0"/>
      <point x="1458" y="-26"/>
      <point x="1482" y="-26" type="curve" smooth="yes"/>
      <point x="1587" y="-26"/>
      <point x="1709" y="143"/>
      <point x="1709" y="284" type="curve" smooth="yes"/>
      <point x="1709" y="296"/>
      <point x="1702" y="303"/>
      <point x="1692" y="303" type="curve" smooth="yes"/>
      <point x="1685" y="303"/>
      <point x="1675" y="298"/>
      <point x="1670" y="288" type="curve" smooth="yes"/>
      <point x="1609" y="107"/>
      <point x="1513" y="33"/>
      <point x="1375" y="33" type="curve" smooth="yes"/>
      <point x="1039" y="33" type="line" smooth="yes"/>
      <point x="969" y="33"/>
      <point x="944" y="62"/>
      <point x="957" y="115" type="curve" smooth="yes"/>
      <point x="1003" y="298"/>
      <point x="1198" y="1020"/>
      <point x="1286" y="1369" type="curve"/>
      <point x="1670" y="1369" type="line" smooth="yes"/>
      <point x="1741" y="1369"/>
      <point x="1793" y="1336"/>
      <point x="1852" y="1173" type="curve" smooth="yes"/>
      <point x="1862" y="1153"/>
      <point x="1872" y="1142"/>
      <point x="1890" y="1142" type="curve" smooth="yes"/>
      <point x="1905" y="1142"/>
      <point x="1917" y="1154"/>
      <point x="1910" y="1178" type="curve" smooth="yes"/>
      <point x="1856" y="1407" type="line" smooth="yes"/>
      <point x="1850" y="1430"/>
      <point x="1843" y="1437"/>
      <point x="1826" y="1437" type="curve" smooth="yes"/>
      <point x="1797" y="1437"/>
      <point x="1766" y="1400"/>
      <point x="1718" y="1400" type="curve" smooth="yes"/>
      <point x="1224" y="1400" type="line"/>
      <point x="1150" y="1067"/>
      <point x="935" y="312"/>
      <point x="883" y="115" type="curve" smooth="yes"/>
      <point x="872" y="72"/>
      <point x="841" y="57"/>
      <point x="798" y="51" type="curve" smooth="yes"/>
      <point x="715" y="38" type="line" smooth="yes"/>
      <point x="695" y="36"/>
      <point x="683" y="29"/>
      <point x="683" y="18" type="curve" smooth="yes"/>
      <point x="683" y="8"/>
      <point x="692" y="0"/>
      <point x="709" y="0" type="curve" smooth="yes"/>
    </contour>
  </outline>
</glyph>
<glyph name="Eth" format="2">
  <advance width="1429"/>
  <unicode hex="00D0"/>
  <outline>
    <contour>
      <point x="109" y="712" type="curve" smooth="yes"/>
      <point x="105" y="700"/>
      <point x="110" y="693"/>
      <point x="126" y="693" type="curve" smooth="yes"/>
      <point x="740" y="693" type="line" smooth="yes"/>
      <point x="758" y="693"/>
      <point x="767" y="700"/>
      <point x="771" y="712" type="curve" smooth="yes"/>
      <point x="775" y="724"/>
      <point x="771" y="731"/>
      <point x="754" y="731" type="curve" smooth="yes"/>
      <point x="139" y="731" type="line" smooth="yes"/>
      <point x="123" y="731"/>
      <point x="113" y="724"/>
    </contour>
    <component base="D"/>
  </outline>
</glyph>
<glyph name="multiply" format="2">
  <advance width="932"/>
  <unicode hex="00D7"/>
  <outline>
    <contour>
      <point x="136" y="323" type="curve" smooth="yes"/>
      <point x="149" y="312"/>
      <point x="170" y="315"/>
      <point x="192" y="330" type="curve" smooth="yes"/>
      <point x="924" y="999" type="line" smooth="yes"/>
      <point x="944" y="1013"/>
      <point x="948" y="1029"/>
      <point x="935" y="1038" type="curve" smooth="yes"/>
      <point x="924" y="1047"/>
      <point x="905" y="1044"/>
      <point x="887" y="1031" type="curve" smooth="yes"/>
      <point x="152" y="362" type="line" smooth="yes"/>
      <point x="132" y="348"/>
      <point x="125" y="333"/>
    </contour>
    <contour>
      <point x="743" y="325" type="curve" smooth="yes"/>
      <point x="757" y="332"/>
      <point x="756" y="348"/>
      <point x="746" y="361" type="curve" smooth="yes"/>
      <point x="364" y="1020" type="line" smooth="yes"/>
      <point x="351" y="1036"/>
      <point x="336" y="1039"/>
      <point x="323" y="1033" type="curve" smooth="yes"/>
      <point x="309" y="1026"/>
      <point x="304" y="1012"/>
      <point x="313" y="1000" type="curve" smooth="yes"/>
      <point x="696" y="339" type="line" smooth="yes"/>
      <point x="708" y="323"/>
      <point x="727" y="317"/>
    </contour>
  </outline>
</glyph>
<glyph name="Oslash" format="2">
  <advance width="1512"/>
  <unicode hex="00D8"/>
  <anchor x="1033" y="1546.0" name="center"/>
  <outline>
    <contour>
      <point x="126" y="-47" type="curve" smooth="yes"/>
      <point x="137" y="-53"/>
      <point x="149" y="-51"/>
      <point x="160" y="-42" type="curve" smooth="yes"/>
      <point x="1484" y="1443" type="line" smooth="yes"/>
      <point x="1497" y="1454"/>
      <point x="1496" y="1462"/>
      <point x="1484" y="1469" type="curve" smooth="yes"/>
      <point x="1473" y="1476"/>
      <point x="1460" y="1474"/>
      <point x="1449" y="1464" type="curve" smooth="yes"/>
      <point x="125" y="-21" type="line" smooth="yes"/>
      <point x="113" y="-32"/>
      <point x="115" y="-41"/>
    </contour>
    <component base="O" xOffset="8"/>
  </outline>
</glyph>
<glyph name="Thorn" format="2">
  <advance width="1196"/>
  <unicode hex="00DE"/>
  <outline>
    <contour>
      <point x="301" y="127" type="curve" smooth="yes"/>
      <point x="327" y="310"/>
      <point x="543" y="1042"/>
      <point x="603" y="1288" type="curve" smooth="yes"/>
      <point x="614" y="1324"/>
      <point x="639" y="1341"/>
      <point x="686" y="1348" type="curve" smooth="yes"/>
      <point x="762" y="1364" type="line" smooth="yes"/>
      <point x="795" y="1370"/>
      <point x="805" y="1375"/>
      <point x="805" y="1388" type="curve" smooth="yes"/>
      <point x="805" y="1397"/>
      <point x="798" y="1400"/>
      <point x="777" y="1400" type="curve" smooth="yes"/>
      <point x="430" y="1400" type="line" smooth="yes"/>
      <point x="395" y="1400"/>
      <point x="377" y="1397"/>
      <point x="377" y="1386" type="curve" smooth="yes"/>
      <point x="377" y="1372"/>
      <point x="385" y="1366"/>
      <point x="413" y="1362" type="curve" smooth="yes"/>
      <point x="481" y="1350" type="line" smooth="yes"/>
      <point x="523" y="1343"/>
      <point x="531" y="1322"/>
      <point x="521" y="1278" type="curve" smooth="yes"/>
      <point x="482" y="1046"/>
      <point x="267" y="323"/>
      <point x="222" y="125" type="curve" smooth="yes"/>
      <point x="206" y="80"/>
      <point x="177" y="52"/>
      <point x="126" y="46" type="curve" smooth="yes"/>
      <point x="56" y="37" type="line" smooth="yes"/>
      <point x="29" y="34"/>
      <point x="18" y="26"/>
      <point x="20" y="16" type="curve" smooth="yes"/>
      <point x="20" y="5"/>
      <point x="27" y="0"/>
      <point x="50" y="0" type="curve" smooth="yes"/>
      <point x="404" y="0" type="line" smooth="yes"/>
      <point x="422" y="0"/>
      <point x="440" y="4"/>
      <point x="440" y="14" type="curve" smooth="yes"/>
      <point x="440" y="27"/>
      <point x="431" y="34"/>
      <point x="406" y="37" type="curve" smooth="yes"/>
      <point x="342" y="47" type="line" smooth="yes"/>
      <point x="298" y="52"/>
      <point x="290" y="79"/>
    </contour>
    <contour>
      <point x="1166" y="657" type="curve" smooth="yes"/>
      <point x="1239" y="926"/>
      <point x="1079" y="1120"/>
      <point x="729" y="1120" type="curve" smooth="yes"/>
      <point x="537" y="1120" type="line"/>
      <point x="524" y="1081" type="line"/>
      <point x="716" y="1081" type="line" smooth="yes"/>
      <point x="1027" y="1081"/>
      <point x="1153" y="906"/>
      <point x="1093" y="668" type="curve" smooth="yes"/>
      <point x="1039" y="471"/>
      <point x="858" y="350"/>
      <point x="627" y="353" type="curve" smooth="yes"/>
      <point x="556" y="353"/>
      <point x="426" y="363"/>
      <point x="351" y="421" type="curve"/>
      <point x="326" y="385" type="line"/>
      <point x="399" y="330"/>
      <point x="519" y="312"/>
      <point x="620" y="311" type="curve" smooth="yes"/>
      <point x="883" y="309"/>
      <point x="1111" y="449"/>
    </contour>
  </outline>
</glyph>
<glyph name="germandbls" format="2">
  <advance width="1072"/>
  <unicode hex="00DF"/>
  <outline>
    <contour>
      <point x="7" y="-232" type="line" smooth="yes"/>
      <point x="-19" y="-319"/>
      <point x="-7" y="-353"/>
      <point x="36" y="-353" type="curve" smooth="yes"/>
      <point x="71" y="-353"/>
      <point x="102" y="-332"/>
      <point x="102" y="-302" type="curve" smooth="yes"/>
      <point x="102" y="-276"/>
      <point x="84" y="-260"/>
      <point x="84" y="-226" type="curve" smooth="yes"/>
      <point x="84" y="-197"/>
      <point x="89" y="-167"/>
      <point x="100" y="-129" type="curve" smooth="yes"/>
      <point x="417" y="1022" type="line" smooth="yes"/>
      <point x="495" y="1301"/>
      <point x="642" y="1426"/>
      <point x="828" y="1426" type="curve" smooth="yes"/>
      <point x="969" y="1426"/>
      <point x="1048" y="1295"/>
      <point x="1004" y="1131" type="curve" smooth="yes"/>
      <point x="953" y="930"/>
      <point x="825" y="818"/>
      <point x="547" y="786" type="curve" smooth="yes"/>
      <point x="529" y="784"/>
      <point x="521" y="776"/>
      <point x="519" y="765" type="curve" smooth="yes"/>
      <point x="516" y="752"/>
      <point x="529" y="744"/>
      <point x="558" y="743" type="curve" smooth="yes"/>
      <point x="826" y="736"/>
      <point x="958" y="565"/>
      <point x="892" y="318" type="curve" smooth="yes"/>
      <point x="842" y="125"/>
      <point x="717" y="20"/>
      <point x="560" y="20" type="curve" smooth="yes"/>
      <point x="439" y="20"/>
      <point x="366" y="93"/>
      <point x="369" y="211" type="curve" smooth="yes"/>
      <point x="370" y="262" type="line" smooth="yes"/>
      <point x="370" y="275"/>
      <point x="367" y="282"/>
      <point x="355" y="282" type="curve" smooth="yes"/>
      <point x="345" y="282"/>
      <point x="335" y="275"/>
      <point x="320" y="210" type="curve" smooth="yes"/>
      <point x="284" y="66"/>
      <point x="357" y="-21"/>
      <point x="543" y="-21" type="curve" smooth="yes"/>
      <point x="745" y="-21"/>
      <point x="907" y="108"/>
      <point x="957" y="303" type="curve" smooth="yes"/>
      <point x="1026" y="564"/>
      <point x="864" y="782"/>
      <point x="577" y="780" type="curve"/>
      <point x="574" y="766" type="line"/>
      <point x="830" y="780"/>
      <point x="1017" y="921"/>
      <point x="1069" y="1113" type="curve" smooth="yes"/>
      <point x="1120" y="1308"/>
      <point x="1029" y="1466"/>
      <point x="842" y="1466" type="curve" smooth="yes"/>
      <point x="617" y="1466"/>
      <point x="434" y="1315"/>
      <point x="357" y="1042" type="curve" smooth="yes"/>
      <point x="317" y="878" type="line"/>
      <point x="347" y="907" type="line"/>
      <point x="183" y="907" type="line" smooth="yes"/>
      <point x="171" y="907"/>
      <point x="162" y="900"/>
      <point x="160" y="891" type="curve" smooth="yes"/>
      <point x="156" y="881"/>
      <point x="172" y="875"/>
      <point x="199" y="868" type="curve" smooth="yes"/>
      <point x="251" y="856" type="line" smooth="yes"/>
      <point x="294" y="845"/>
      <point x="302" y="822"/>
      <point x="291" y="788" type="curve" smooth="yes"/>
    </contour>
  </outline>
</glyph>
<glyph name="ae" format="2">
  <advance width="1399"/>
  <unicode hex="00E6"/>
  <anchor x="933" y="1023" name="center"/>
  <outline>
    <contour>
      <point x="734" y="433" type="curve"/>
      <point x="742" y="402" type="line"/>
      <point x="742" y="402"/>
      <point x="1207" y="610"/>
      <point x="1370" y="671" type="curve" smooth="yes"/>
      <point x="1385" y="677"/>
      <point x="1395" y="684"/>
      <point x="1394" y="698" type="curve" smooth="yes"/>
      <point x="1393" y="713"/>
      <point x="1382" y="718"/>
      <point x="1367" y="713" type="curve" smooth="yes"/>
      <point x="1352" y="708"/>
      <point x="1341" y="714"/>
      <point x="1341" y="725" type="curve" smooth="yes"/>
      <point x="1341" y="834"/>
      <point x="1278" y="922"/>
      <point x="1162" y="922" type="curve" smooth="yes"/>
      <point x="1047" y="922"/>
      <point x="928" y="851"/>
      <point x="830" y="692" type="curve"/>
      <point x="844" y="694" type="line"/>
      <point x="898" y="839"/>
      <point x="872" y="922"/>
      <point x="741" y="922" type="curve" smooth="yes"/>
      <point x="445" y="922"/>
      <point x="103" y="599"/>
      <point x="84" y="246" type="curve" smooth="yes"/>
      <point x="69" y="57"/>
      <point x="137" y="-15"/>
      <point x="242" y="-15" type="curve" smooth="yes"/>
      <point x="395" y="-15"/>
      <point x="558" y="128"/>
      <point x="707" y="418" type="curve"/>
      <point x="699" y="422" type="line"/>
      <point x="639" y="120"/>
      <point x="743" y="-15"/>
      <point x="918" y="-15" type="curve" smooth="yes"/>
      <point x="1143" y="-15"/>
      <point x="1296" y="130"/>
      <point x="1313" y="275" type="curve" smooth="yes"/>
      <point x="1314" y="291"/>
      <point x="1309" y="299"/>
      <point x="1300" y="299" type="curve" smooth="yes"/>
      <point x="1292" y="299"/>
      <point x="1287" y="294"/>
      <point x="1281" y="281" type="curve" smooth="yes"/>
      <point x="1219" y="112"/>
      <point x="1091" y="29"/>
      <point x="955" y="29" type="curve" smooth="yes"/>
      <point x="829" y="29"/>
      <point x="745" y="127"/>
      <point x="754" y="329" type="curve" smooth="yes"/>
      <point x="769" y="623"/>
      <point x="979" y="886"/>
      <point x="1136" y="886" type="curve" smooth="yes"/>
      <point x="1217" y="886"/>
      <point x="1270" y="815"/>
      <point x="1270" y="714" type="curve" smooth="yes"/>
      <point x="1270" y="696"/>
      <point x="1268" y="677"/>
      <point x="1264" y="655" type="curve"/>
      <point x="1273" y="666" type="line"/>
      <point x="1101" y="597"/>
      <point x="734" y="433"/>
    </contour>
    <contour>
      <point x="152" y="253" type="curve" smooth="yes"/>
      <point x="174" y="583"/>
      <point x="475" y="882"/>
      <point x="721" y="882" type="curve" smooth="yes"/>
      <point x="783" y="882"/>
      <point x="815" y="856"/>
      <point x="788" y="709" type="curve" smooth="yes"/>
      <point x="764" y="460"/>
      <point x="469" y="31"/>
      <point x="273" y="31" type="curve" smooth="yes"/>
      <point x="188" y="31"/>
      <point x="138" y="92"/>
    </contour>
  </outline>
</glyph>
<glyph name="eth" format="2">
  <advance width="945"/>
  <unicode hex="00F0"/>
  <outline>
    <contour>
      <point x="842" y="426" type="curve" smooth="yes"/>
      <point x="967" y="869"/>
      <point x="828" y="1365"/>
      <point x="524" y="1477" type="curve" smooth="yes"/>
      <point x="512" y="1481"/>
      <point x="503" y="1481"/>
      <point x="495" y="1471" type="curve" smooth="yes"/>
      <point x="488" y="1462"/>
      <point x="489" y="1454"/>
      <point x="500" y="1449" type="curve" smooth="yes"/>
      <point x="709" y="1349"/>
      <point x="835" y="1019"/>
      <point x="820" y="570" type="curve"/>
      <point x="830" y="572" type="line"/>
      <point x="831" y="802"/>
      <point x="744" y="921"/>
      <point x="583" y="926" type="curve" smooth="yes"/>
      <point x="366" y="931"/>
      <point x="180" y="752"/>
      <point x="114" y="519" type="curve" smooth="yes"/>
      <point x="23" y="201"/>
      <point x="142" y="-12"/>
      <point x="351" y="-19" type="curve" smooth="yes"/>
      <point x="573" y="-25"/>
      <point x="762" y="141"/>
    </contour>
    <contour>
      <point x="367" y="22" type="curve" smooth="yes"/>
      <point x="192" y="29"/>
      <point x="101" y="232"/>
      <point x="182" y="514" type="curve" smooth="yes"/>
      <point x="246" y="750"/>
      <point x="402" y="892"/>
      <point x="584" y="886" type="curve" smooth="yes"/>
      <point x="748" y="881"/>
      <point x="846" y="687"/>
      <point x="771" y="417" type="curve" smooth="yes"/>
      <point x="697" y="147"/>
      <point x="525" y="15"/>
    </contour>
    <contour>
      <point x="1010" y="1349" type="line" smooth="yes"/>
      <point x="1023" y="1354"/>
      <point x="1032" y="1364"/>
      <point x="1028" y="1375" type="curve" smooth="yes"/>
      <point x="1026" y="1386"/>
      <point x="1016" y="1389"/>
      <point x="1002" y="1384" type="curve" smooth="yes"/>
      <point x="469" y="1154" type="line" smooth="yes"/>
      <point x="455" y="1149"/>
      <point x="447" y="1139"/>
      <point x="450" y="1126" type="curve" smooth="yes"/>
      <point x="452" y="1117"/>
      <point x="461" y="1114"/>
      <point x="476" y="1119" type="curve" smooth="yes"/>
    </contour>
  </outline>
</glyph>
<glyph name="oslash" format="2">
  <advance width="961"/>
  <unicode hex="00F8"/>
  <anchor x="620" y="1000" name="center"/>
  <outline>
    <contour>
      <point x="16" y="-66" type="curve" smooth="yes"/>
      <point x="28" y="-71"/>
      <point x="40" y="-69"/>
      <point x="50" y="-57" type="curve" smooth="yes"/>
      <point x="181" y="95" type="line"/>
      <point x="194" y="108" type="line"/>
      <point x="767" y="777" type="line"/>
      <point x="779" y="790" type="line"/>
      <point x="910" y="944" type="line" smooth="yes"/>
      <point x="921" y="956"/>
      <point x="924" y="969"/>
      <point x="914" y="976" type="curve" smooth="yes"/>
      <point x="905" y="980"/>
      <point x="890" y="976"/>
      <point x="877" y="962" type="curve" smooth="yes"/>
      <point x="752" y="816" type="line"/>
      <point x="736" y="798" type="line"/>
      <point x="165" y="134" type="line"/>
      <point x="153" y="120" type="line"/>
      <point x="19" y="-36" type="line" smooth="yes"/>
      <point x="8" y="-47"/>
      <point x="8" y="-61"/>
    </contour>
    <component base="o"/>
  </outline>
</glyph>
<glyph name="thorn" format="2">
  <advance width="953"/>
  <unicode hex="00FE"/>
  <outline>
    <contour>
      <point x="463" y="1480" type="curve" smooth="yes"/>
      <point x="393" y="1480"/>
      <point x="326" y="1436"/>
      <point x="293" y="1388" type="curve" smooth="yes"/>
      <point x="282" y="1373"/>
      <point x="288" y="1362"/>
      <point x="295" y="1359" type="curve" smooth="yes"/>
      <point x="308" y="1353"/>
      <point x="321" y="1365"/>
      <point x="333" y="1374" type="curve" smooth="yes"/>
      <point x="374" y="1410"/>
      <point x="400" y="1423"/>
      <point x="428" y="1423" type="curve" smooth="yes"/>
      <point x="476" y="1423"/>
      <point x="493" y="1398"/>
      <point x="448" y="1250" type="curve" smooth="yes"/>
      <point x="-24" y="-373" type="line" smooth="yes"/>
      <point x="-41" y="-425"/>
      <point x="-68" y="-446"/>
      <point x="-143" y="-460" type="curve" smooth="yes"/>
      <point x="-151" y="-461"/>
      <point x="-158" y="-468"/>
      <point x="-158" y="-477" type="curve" smooth="yes"/>
      <point x="-158" y="-486"/>
      <point x="-148" y="-492"/>
      <point x="-135" y="-490" type="curve" smooth="yes"/>
      <point x="159" y="-481" type="line" smooth="yes"/>
      <point x="176" y="-481"/>
      <point x="185" y="-473"/>
      <point x="185" y="-464" type="curve" smooth="yes"/>
      <point x="185" y="-454"/>
      <point x="178" y="-447"/>
      <point x="157" y="-446" type="curve" smooth="yes"/>
      <point x="86" y="-436" type="line" smooth="yes"/>
      <point x="29" y="-429"/>
      <point x="40" y="-396"/>
      <point x="51" y="-358" type="curve"/>
      <point x="519" y="1274" type="line" smooth="yes"/>
      <point x="565" y="1430"/>
      <point x="541" y="1480"/>
    </contour>
    <contour>
      <point x="175" y="693" type="curve" smooth="yes"/>
      <point x="299" y="838"/>
      <point x="426" y="899"/>
      <point x="567" y="885" type="curve" smooth="yes"/>
      <point x="720" y="870"/>
      <point x="817" y="732"/>
      <point x="780" y="478" type="curve" smooth="yes"/>
      <point x="735" y="174"/>
      <point x="552" y="10"/>
      <point x="364" y="25" type="curve" smooth="yes"/>
      <point x="273" y="32"/>
      <point x="210" y="70"/>
      <point x="176" y="143" type="curve"/>
      <point x="143" y="129" type="line"/>
      <point x="181" y="33"/>
      <point x="252" y="-10"/>
      <point x="354" y="-18" type="curve" smooth="yes"/>
      <point x="587" y="-33"/>
      <point x="812" y="165"/>
      <point x="855" y="474" type="curve" smooth="yes"/>
      <point x="893" y="749"/>
      <point x="786" y="909"/>
      <point x="580" y="925" type="curve" smooth="yes"/>
      <point x="420" y="939"/>
      <point x="278" y="876"/>
      <point x="135" y="716" type="curve" smooth="yes"/>
      <point x="121" y="704"/>
      <point x="120" y="686"/>
      <point x="136" y="680" type="curve" smooth="yes"/>
      <point x="148" y="675"/>
      <point x="160" y="680"/>
    </contour>
  </outline>
</glyph>
<glyph name="Aogonek" format="2">
  <advance width="1202"/>
  <unicode hex="0104"/>
  <outline>
    <contour>
      <point x="987" y="33" type="line"/>
      <point x="801" y="-40"/>
      <point x="674" y="-169"/>
      <point x="674" y="-284" type="curve" smooth="yes"/>
      <point x="674" y="-359"/>
      <point x="726" y="-405"/>
      <point x="815" y="-405" type="curve" smooth="yes"/>
      <point x="899" y="-405"/>
      <point x="970" y="-353"/>
      <point x="988" y="-307" type="curve" smooth="yes"/>
      <point x="993" y="-296"/>
      <point x="987" y="-291"/>
      <point x="980" y="-291" type="curve" smooth="yes"/>
      <point x="971" y="-290"/>
      <point x="966" y="-293"/>
      <point x="956" y="-303" type="curve" smooth="yes"/>
      <point x="925" y="-344"/>
      <point x="874" y="-367"/>
      <point x="828" y="-367" type="curve" smooth="yes"/>
      <point x="778" y="-367"/>
      <point x="743" y="-335"/>
      <point x="743" y="-277" type="curve" smooth="yes"/>
      <point x="743" y="-175"/>
      <point x="847" y="-61"/>
      <point x="996" y="6" type="curve"/>
    </contour>
    <component base="A"/>
  </outline>
</glyph>
<glyph name="aogonek" format="2">
  <advance width="973"/>
  <unicode hex="0105"/>
  <outline>
    <contour>
      <point x="761" y="27" type="line"/>
      <point x="571" y="-48"/>
      <point x="454" y="-179"/>
      <point x="454" y="-294" type="curve" smooth="yes"/>
      <point x="454" y="-370"/>
      <point x="507" y="-417"/>
      <point x="596" y="-417" type="curve" smooth="yes"/>
      <point x="682" y="-417"/>
      <point x="753" y="-364"/>
      <point x="773" y="-316" type="curve" smooth="yes"/>
      <point x="777" y="-305"/>
      <point x="772" y="-300"/>
      <point x="765" y="-300" type="curve" smooth="yes"/>
      <point x="757" y="-299"/>
      <point x="751" y="-302"/>
      <point x="744" y="-312" type="curve" smooth="yes"/>
      <point x="712" y="-354"/>
      <point x="658" y="-378"/>
      <point x="612" y="-378" type="curve" smooth="yes"/>
      <point x="558" y="-378"/>
      <point x="523" y="-345"/>
      <point x="523" y="-284" type="curve" smooth="yes"/>
      <point x="523" y="-187"/>
      <point x="617" y="-72"/>
      <point x="771" y="2" type="curve"/>
    </contour>
    <component base="a" xOffset="7"/>
  </outline>
</glyph>
<glyph name="dcroat" format="2">
  <advance width="1025"/>
  <unicode hex="0111"/>
  <outline>
    <contour>
      <point x="1093" y="1452" type="line" smooth="yes"/>
      <point x="1101" y="1476"/>
      <point x="1095" y="1487"/>
      <point x="1082" y="1487" type="curve" smooth="yes"/>
      <point x="1058" y="1487"/>
      <point x="1033" y="1464"/>
      <point x="1023" y="1430" type="curve" smooth="yes"/>
      <point x="781" y="655" type="line" smooth="yes"/>
      <point x="690" y="341"/>
      <point x="416" y="39"/>
      <point x="264" y="39" type="curve" smooth="yes"/>
      <point x="192" y="39"/>
      <point x="139" y="86"/>
      <point x="143" y="217" type="curve" smooth="yes"/>
      <point x="151" y="571"/>
      <point x="440" y="884"/>
      <point x="696" y="884" type="curve" smooth="yes"/>
      <point x="780" y="884"/>
      <point x="824" y="852"/>
      <point x="853" y="803" type="curve"/>
      <point x="884" y="827" type="line"/>
      <point x="864" y="881"/>
      <point x="816" y="922"/>
      <point x="719" y="922" type="curve" smooth="yes"/>
      <point x="420" y="922"/>
      <point x="80" y="596"/>
      <point x="73" y="206" type="curve" smooth="yes"/>
      <point x="70" y="49"/>
      <point x="136" y="-15"/>
      <point x="229" y="-15" type="curve" smooth="yes"/>
      <point x="383" y="-15"/>
      <point x="589" y="162"/>
      <point x="748" y="499" type="curve"/>
      <point x="738" y="502" type="line"/>
      <point x="642" y="208"/>
      <point x="615" y="118"/>
      <point x="615" y="61" type="curve" smooth="yes"/>
      <point x="615" y="7"/>
      <point x="644" y="-15"/>
      <point x="697" y="-15" type="curve" smooth="yes"/>
      <point x="766" y="-15"/>
      <point x="832" y="31"/>
      <point x="869" y="89" type="curve" smooth="yes"/>
      <point x="879" y="101"/>
      <point x="878" y="113"/>
      <point x="868" y="118" type="curve" smooth="yes"/>
      <point x="856" y="125"/>
      <point x="846" y="114"/>
      <point x="830" y="103" type="curve" smooth="yes"/>
      <point x="789" y="59"/>
      <point x="759" y="42"/>
      <point x="730" y="42" type="curve" smooth="yes"/>
      <point x="681" y="42"/>
      <point x="672" y="70"/>
      <point x="737" y="277" type="curve" smooth="yes"/>
    </contour>
    <contour>
      <point x="643" y="1163" type="curve" smooth="yes"/>
      <point x="638" y="1153"/>
      <point x="645" y="1145"/>
      <point x="659" y="1145" type="curve" smooth="yes"/>
      <point x="1138" y="1145" type="line" smooth="yes"/>
      <point x="1152" y="1145"/>
      <point x="1163" y="1153"/>
      <point x="1166" y="1164" type="curve" smooth="yes"/>
      <point x="1170" y="1176"/>
      <point x="1164" y="1184"/>
      <point x="1150" y="1184" type="curve" smooth="yes"/>
      <point x="670" y="1184" type="line" smooth="yes"/>
      <point x="657" y="1184"/>
      <point x="646" y="1176"/>
    </contour>
  </outline>
</glyph>
<glyph name="eogonek" format="2">
  <advance width="816"/>
  <unicode hex="0119"/>
  <outline>
    <contour>
      <point x="152" y="398" type="line"/>
      <point x="303" y="466"/>
      <point x="603" y="588"/>
      <point x="799" y="671" type="curve"/>
      <point x="813" y="677"/>
      <point x="824" y="684"/>
      <point x="823" y="698" type="curve" smooth="yes"/>
      <point x="823" y="713"/>
      <point x="811" y="718"/>
      <point x="796" y="713" type="curve" smooth="yes"/>
      <point x="780" y="708"/>
      <point x="771" y="714"/>
      <point x="771" y="725" type="curve" smooth="yes"/>
      <point x="771" y="834"/>
      <point x="707" y="922"/>
      <point x="591" y="922" type="curve" smooth="yes"/>
      <point x="356" y="922"/>
      <point x="108" y="616"/>
      <point x="95" y="297" type="curve" smooth="yes"/>
      <point x="86" y="99"/>
      <point x="184" y="-15"/>
      <point x="347" y="-15" type="curve" smooth="yes"/>
      <point x="369" y="-15"/>
      <point x="395" y="-14"/>
      <point x="449" y="-4" type="curve"/>
      <point x="444" y="6" type="line"/>
      <point x="288" y="-90"/>
      <point x="215" y="-199"/>
      <point x="215" y="-290" type="curve" smooth="yes"/>
      <point x="215" y="-369"/>
      <point x="267" y="-417"/>
      <point x="357" y="-417" type="curve" smooth="yes"/>
      <point x="442" y="-417"/>
      <point x="513" y="-364"/>
      <point x="532" y="-316" type="curve" smooth="yes"/>
      <point x="537" y="-305"/>
      <point x="532" y="-300"/>
      <point x="525" y="-300" type="curve" smooth="yes"/>
      <point x="517" y="-299"/>
      <point x="511" y="-302"/>
      <point x="503" y="-312" type="curve" smooth="yes"/>
      <point x="472" y="-354"/>
      <point x="419" y="-378"/>
      <point x="371" y="-378" type="curve" smooth="yes"/>
      <point x="319" y="-378"/>
      <point x="284" y="-344"/>
      <point x="284" y="-277" type="curve" smooth="yes"/>
      <point x="284" y="-175"/>
      <point x="380" y="-63"/>
      <point x="540" y="22" type="curve" smooth="yes"/>
      <point x="660" y="84"/>
      <point x="731" y="174"/>
      <point x="742" y="275" type="curve" smooth="yes"/>
      <point x="743" y="291"/>
      <point x="738" y="299"/>
      <point x="729" y="299" type="curve" smooth="yes"/>
      <point x="721" y="299"/>
      <point x="715" y="294"/>
      <point x="710" y="281" type="curve" smooth="yes"/>
      <point x="649" y="112"/>
      <point x="520" y="29"/>
      <point x="384" y="29" type="curve" smooth="yes"/>
      <point x="250" y="29"/>
      <point x="159" y="127"/>
      <point x="168" y="329" type="curve" smooth="yes"/>
      <point x="184" y="623"/>
      <point x="402" y="886"/>
      <point x="565" y="886" type="curve" smooth="yes"/>
      <point x="645" y="886"/>
      <point x="699" y="815"/>
      <point x="699" y="714" type="curve" smooth="yes"/>
      <point x="699" y="696"/>
      <point x="698" y="681"/>
      <point x="691" y="642" type="curve"/>
      <point x="724" y="676" type="line"/>
      <point x="537" y="597"/>
      <point x="286" y="490"/>
      <point x="145" y="429" type="curve"/>
    </contour>
  </outline>
</glyph>
<glyph name="Hbar" format="2">
  <advance width="1494"/>
  <unicode hex="0126"/>
  <anchor x="1038" y="1498" name="center"/>
  <outline>
    <contour>
      <point x="232" y="1016" type="curve" smooth="yes"/>
      <point x="227" y="1004"/>
      <point x="232" y="997"/>
      <point x="248" y="997" type="curve" smooth="yes"/>
      <point x="1520" y="997" type="line" smooth="yes"/>
      <point x="1537" y="997"/>
      <point x="1546" y="1004"/>
      <point x="1550" y="1016" type="curve" smooth="yes"/>
      <point x="1554" y="1028"/>
      <point x="1550" y="1036"/>
      <point x="1534" y="1036" type="curve" smooth="yes"/>
      <point x="263" y="1036" type="line" smooth="yes"/>
      <point x="246" y="1036"/>
      <point x="236" y="1028"/>
    </contour>
    <component base="H"/>
  </outline>
</glyph>
<glyph name="hbar" format="2">
  <advance width="1047"/>
  <unicode hex="0127"/>
  <outline>
    <contour>
      <point x="573" y="1458" type="line" smooth="yes"/>
      <point x="577" y="1476"/>
      <point x="573" y="1487"/>
      <point x="560" y="1487" type="curve" smooth="yes"/>
      <point x="541" y="1487"/>
      <point x="509" y="1463"/>
      <point x="501" y="1436" type="curve" smooth="yes"/>
      <point x="122" y="125" type="line"/>
      <point x="85" y="4"/>
      <point x="87" y="-15"/>
      <point x="128" y="-15" type="curve" smooth="yes"/>
      <point x="168" y="-15"/>
      <point x="204" y="7"/>
      <point x="204" y="39" type="curve" smooth="yes"/>
      <point x="204" y="65"/>
      <point x="190" y="83"/>
      <point x="190" y="108" type="curve" smooth="yes"/>
      <point x="190" y="149"/>
      <point x="195" y="175"/>
      <point x="237" y="293" type="curve" smooth="yes"/>
      <point x="382" y="708"/>
      <point x="637" y="868"/>
      <point x="762" y="868" type="curve" smooth="yes"/>
      <point x="845" y="868"/>
      <point x="872" y="820"/>
      <point x="814" y="650" type="curve" smooth="yes"/>
      <point x="651" y="169" type="line" smooth="yes"/>
      <point x="603" y="33"/>
      <point x="630" y="-15"/>
      <point x="709" y="-15" type="curve" smooth="yes"/>
      <point x="775" y="-15"/>
      <point x="845" y="27"/>
      <point x="880" y="91" type="curve" smooth="yes"/>
      <point x="886" y="101"/>
      <point x="887" y="114"/>
      <point x="878" y="118" type="curve" smooth="yes"/>
      <point x="865" y="125"/>
      <point x="856" y="115"/>
      <point x="841" y="103" type="curve" smooth="yes"/>
      <point x="799" y="57"/>
      <point x="768" y="43"/>
      <point x="742" y="43" type="curve" smooth="yes"/>
      <point x="696" y="43"/>
      <point x="684" y="78"/>
      <point x="722" y="194" type="curve" smooth="yes"/>
      <point x="877" y="642" type="line" smooth="yes"/>
      <point x="939" y="818"/>
      <point x="943" y="921"/>
      <point x="813" y="921" type="curve" smooth="yes"/>
      <point x="621" y="921"/>
      <point x="403" y="747"/>
      <point x="258" y="433" type="curve"/>
      <point x="272" y="431" type="line"/>
    </contour>
    <contour>
      <point x="252" y="1163" type="curve" smooth="yes"/>
      <point x="248" y="1153"/>
      <point x="254" y="1145"/>
      <point x="269" y="1145" type="curve" smooth="yes"/>
      <point x="761" y="1145" type="line" smooth="yes"/>
      <point x="775" y="1145"/>
      <point x="786" y="1153"/>
      <point x="789" y="1164" type="curve" smooth="yes"/>
      <point x="793" y="1176"/>
      <point x="788" y="1184"/>
      <point x="772" y="1184" type="curve" smooth="yes"/>
      <point x="281" y="1184" type="line" smooth="yes"/>
      <point x="268" y="1184"/>
      <point x="256" y="1176"/>
    </contour>
  </outline>
</glyph>
<glyph name="Iogonek" format="2">
  <advance width="653"/>
  <unicode hex="012E"/>
  <outline>
    <contour>
      <point x="310.07" y="29.0" type="line"/>
      <point x="127.26" y="-43.0"/>
      <point x="0.0" y="-168.0"/>
      <point x="0.0" y="-284.0" type="curve" smooth="yes"/>
      <point x="0.0" y="-359.0"/>
      <point x="52.52" y="-405.0"/>
      <point x="141.4" y="-405.0" type="curve" smooth="yes"/>
      <point x="225.23" y="-405.0"/>
      <point x="295.93" y="-353.0"/>
      <point x="314.11" y="-307.0" type="curve" smooth="yes"/>
      <point x="319.16" y="-296.0"/>
      <point x="313.1" y="-291.0"/>
      <point x="306.03000000000003" y="-291.0" type="curve" smooth="yes"/>
      <point x="296.94" y="-290.0"/>
      <point x="291.89" y="-293.0"/>
      <point x="282.8" y="-303.0" type="curve" smooth="yes"/>
      <point x="251.49" y="-344.0"/>
      <point x="198.97" y="-367.0"/>
      <point x="154.53" y="-367.0" type="curve" smooth="yes"/>
      <point x="104.03" y="-367.0"/>
      <point x="68.68" y="-340.0"/>
      <point x="68.68" y="-277.0" type="curve" smooth="yes"/>
      <point x="68.68" y="-175.0"/>
      <point x="174.73" y="-64.0"/>
      <point x="320.17" y="2.0" type="curve"/>
    </contour>
    <component base="I"/>
  </outline>
</glyph>
<glyph name="dotlessi" format="2">
  <advance width="551"/>
  <unicode hex="0131"/>
  <anchor x="405" y="1000" name="center"/>
  <outline>
    <contour>
      <point x="241" y="40" type="curve" smooth="yes"/>
      <point x="267" y="40"/>
      <point x="296" y="56"/>
      <point x="341" y="103" type="curve" smooth="yes"/>
      <point x="356" y="113"/>
      <point x="368" y="124"/>
      <point x="380" y="118" type="curve" smooth="yes"/>
      <point x="389" y="113"/>
      <point x="390" y="101"/>
      <point x="382" y="89" type="curve" smooth="yes"/>
      <point x="344" y="29"/>
      <point x="274" y="-14"/>
      <point x="211" y="-14" type="curve" smooth="yes"/>
      <point x="143" y="-14"/>
      <point x="97" y="32"/>
      <point x="152" y="173" type="curve" smooth="yes"/>
      <point x="343" y="689" type="line" smooth="yes"/>
      <point x="392" y="824"/>
      <point x="383" y="866"/>
      <point x="332" y="866" type="curve" smooth="yes"/>
      <point x="306" y="866"/>
      <point x="273" y="848"/>
      <point x="231" y="803" type="curve" smooth="yes"/>
      <point x="217" y="792"/>
      <point x="205" y="782"/>
      <point x="193" y="787" type="curve" smooth="yes"/>
      <point x="183" y="792"/>
      <point x="182" y="805"/>
      <point x="192" y="817" type="curve" smooth="yes"/>
      <point x="235" y="882"/>
      <point x="307" y="921"/>
      <point x="363" y="921" type="curve" smooth="yes"/>
      <point x="431" y="921"/>
      <point x="474" y="874"/>
      <point x="417" y="725" type="curve" smooth="yes"/>
      <point x="225" y="202" type="line" smooth="yes"/>
      <point x="178" y="75"/>
      <point x="192" y="40"/>
    </contour>
  </outline>
</glyph>
<glyph name="kra" format="2">
  <advance width="1017"/>
  <unicode hex="0138"/>
  <outline>
    <contour>
      <point x="502" y="522" type="line"/>
      <point x="638" y="121" type="line" smooth="yes"/>
      <point x="671" y="23"/>
      <point x="704" y="-10"/>
      <point x="762" y="-15" type="curve" smooth="yes"/>
      <point x="828" y="-21"/>
      <point x="873" y="20"/>
      <point x="896" y="92" type="curve" smooth="yes"/>
      <point x="900" y="108"/>
      <point x="897" y="116"/>
      <point x="887" y="120" type="curve" smooth="yes"/>
      <point x="877" y="122"/>
      <point x="867" y="116"/>
      <point x="863" y="108" type="curve" smooth="yes"/>
      <point x="842" y="65"/>
      <point x="812" y="43"/>
      <point x="786" y="46" type="curve" smooth="yes"/>
      <point x="749" y="52"/>
      <point x="722" y="77"/>
      <point x="696" y="156" type="curve" smooth="yes"/>
      <point x="562" y="558" type="line"/>
    </contour>
    <contour>
      <point x="448" y="845" type="curve" smooth="yes"/>
      <point x="448" y="896"/>
      <point x="424" y="921"/>
      <point x="367" y="921" type="curve" smooth="yes"/>
      <point x="310" y="921"/>
      <point x="238" y="884"/>
      <point x="195" y="817" type="curve" smooth="yes"/>
      <point x="186" y="805"/>
      <point x="187" y="792"/>
      <point x="196" y="787" type="curve" smooth="yes"/>
      <point x="209" y="782"/>
      <point x="219" y="791"/>
      <point x="234" y="803" type="curve" smooth="yes"/>
      <point x="279" y="850"/>
      <point x="310" y="865"/>
      <point x="334" y="865" type="curve" smooth="yes"/>
      <point x="384" y="865"/>
      <point x="394" y="827"/>
      <point x="347" y="689" type="curve" smooth="yes"/>
      <point x="144" y="103" type="line" smooth="yes"/>
      <point x="110" y="16"/>
      <point x="116" y="-15"/>
      <point x="156" y="-15" type="curve" smooth="yes"/>
      <point x="195" y="-15"/>
      <point x="231" y="8"/>
      <point x="231" y="38" type="curve" smooth="yes"/>
      <point x="231" y="64"/>
      <point x="218" y="87"/>
      <point x="218" y="104" type="curve" smooth="yes"/>
      <point x="218" y="183"/>
      <point x="448" y="764"/>
    </contour>
    <contour>
      <point x="229" y="222" type="line"/>
      <point x="746" y="749" type="line" smooth="yes"/>
      <point x="805" y="809"/>
      <point x="847" y="836"/>
      <point x="880" y="837" type="curve" smooth="yes"/>
      <point x="914" y="838"/>
      <point x="936" y="820"/>
      <point x="977" y="821" type="curve" smooth="yes"/>
      <point x="1015" y="823"/>
      <point x="1046" y="846"/>
      <point x="1045" y="876" type="curve" smooth="yes"/>
      <point x="1044" y="902"/>
      <point x="1016" y="923"/>
      <point x="971" y="922" type="curve" smooth="yes"/>
      <point x="884" y="919"/>
      <point x="813" y="871"/>
      <point x="711" y="770" type="curve" smooth="yes"/>
      <point x="227" y="270" type="line"/>
    </contour>
  </outline>
</glyph>
<glyph name="Lslash" format="2">
  <advance width="992"/>
  <unicode hex="0141"/>
  <anchor x="898" y="1236" name="right"/>
  <outline>
    <contour>
      <point x="114" y="549" type="curve" smooth="yes"/>
      <point x="118" y="539"/>
      <point x="127" y="534"/>
      <point x="144" y="540" type="curve" smooth="yes"/>
      <point x="880" y="891" type="line" smooth="yes"/>
      <point x="897" y="896"/>
      <point x="903" y="905"/>
      <point x="901" y="916" type="curve" smooth="yes"/>
      <point x="898" y="927"/>
      <point x="890" y="931"/>
      <point x="872" y="925" type="curve" smooth="yes"/>
      <point x="136" y="576" type="line" smooth="yes"/>
      <point x="119" y="570"/>
      <point x="112" y="560"/>
    </contour>
    <component base="L"/>
  </outline>
</glyph>
<glyph name="lslash" format="2">
  <advance width="563"/>
  <unicode hex="0142"/>
  <outline>
    <contour>
      <point x="58" y="555" type="curve" smooth="yes"/>
      <point x="64" y="544"/>
      <point x="75" y="543"/>
      <point x="90" y="550" type="curve" smooth="yes"/>
      <point x="282" y="703" type="line"/>
      <point x="325" y="730" type="line"/>
      <point x="604" y="926" type="line" smooth="yes"/>
      <point x="617" y="934"/>
      <point x="624" y="945"/>
      <point x="618" y="955" type="curve" smooth="yes"/>
      <point x="612" y="969"/>
      <point x="600" y="969"/>
      <point x="587" y="961" type="curve" smooth="yes"/>
      <point x="339" y="782" type="line"/>
      <point x="298" y="756" type="line"/>
      <point x="71" y="585" type="line" smooth="yes"/>
      <point x="58" y="578"/>
      <point x="52" y="566"/>
    </contour>
    <component base="l"/>
  </outline>
</glyph>
<glyph name="Eng" format="2">
  <advance width="1363"/>
  <unicode hex="014A"/>
  <outline>
    <contour>
      <point x="1262" y="1164" type="line" smooth="yes"/>
      <point x="1313" y="1338"/>
      <point x="1397" y="1418"/>
      <point x="1483" y="1418" type="curve" smooth="yes"/>
      <point x="1514" y="1418"/>
      <point x="1530" y="1399"/>
      <point x="1530" y="1377" type="curve" smooth="yes"/>
      <point x="1530" y="1344"/>
      <point x="1506" y="1324"/>
      <point x="1457" y="1307" type="curve" smooth="yes"/>
      <point x="1385" y="1284"/>
      <point x="1334" y="1226"/>
      <point x="1304" y="1129" type="curve" smooth="yes"/>
      <point x="933" y="-256" type="line" smooth="yes"/>
      <point x="885" y="-418"/>
      <point x="790" y="-492"/>
      <point x="652" y="-492" type="curve" smooth="yes"/>
      <point x="590" y="-492"/>
      <point x="559" y="-469"/>
      <point x="559" y="-442" type="curve" smooth="yes"/>
      <point x="559" y="-418"/>
      <point x="578" y="-396"/>
      <point x="618" y="-396" type="curve" smooth="yes"/>
      <point x="660" y="-396"/>
      <point x="682" y="-421"/>
      <point x="732" y="-421" type="curve" smooth="yes"/>
      <point x="802" y="-421"/>
      <point x="868" y="-365"/>
      <point x="884" y="-250" type="curve" smooth="yes"/>
      <point x="892" y="-199"/>
      <point x="921" y="-83"/>
      <point x="944" y="-3" type="curve" smooth="yes"/>
      <point x="954" y="30"/>
      <point x="955" y="62"/>
      <point x="941" y="94" type="curve" smooth="yes"/>
      <point x="868" y="315"/>
      <point x="638" y="843"/>
      <point x="516" y="1147" type="curve"/>
      <point x="554" y="1161" type="line"/>
      <point x="281" y="170" type="line" smooth="yes"/>
      <point x="264" y="99"/>
      <point x="290" y="58"/>
      <point x="355" y="47" type="curve" smooth="yes"/>
      <point x="402" y="40" type="line" smooth="yes"/>
      <point x="421" y="37"/>
      <point x="430" y="28"/>
      <point x="430" y="17" type="curve" smooth="yes"/>
      <point x="430" y="4"/>
      <point x="418" y="0"/>
      <point x="400" y="0" type="curve" smooth="yes"/>
      <point x="42" y="0" type="line" smooth="yes"/>
      <point x="22" y="0"/>
      <point x="10" y="6"/>
      <point x="10" y="19" type="curve"/>
      <point x="10" y="28"/>
      <point x="22" y="38"/>
      <point x="44" y="40" type="curve" smooth="yes"/>
      <point x="92" y="47" type="line" smooth="yes"/>
      <point x="157" y="57"/>
      <point x="208" y="98"/>
      <point x="226" y="170" type="curve" smooth="yes"/>
      <point x="482" y="1103" type="line" smooth="yes"/>
      <point x="493" y="1142"/>
      <point x="488" y="1181"/>
      <point x="470" y="1210" type="curve" smooth="yes"/>
      <point x="394" y="1359" type="line" smooth="yes"/>
      <point x="379" y="1380"/>
      <point x="388" y="1400"/>
      <point x="412" y="1400" type="curve" smooth="yes"/>
      <point x="446" y="1400" type="line" smooth="yes"/>
      <point x="473" y="1400"/>
      <point x="482" y="1383"/>
      <point x="501" y="1345" type="curve" smooth="yes"/>
      <point x="601" y="1037"/>
      <point x="910" y="390"/>
      <point x="1014" y="118" type="curve"/>
      <point x="983" y="105" type="line"/>
    </contour>
  </outline>
</glyph>
<glyph name="eng" format="2">
  <advance width="1036"/>
  <unicode hex="014B"/>
  <outline>
    <contour>
      <point x="616" y="-272" type="curve" smooth="yes"/>
      <point x="898" y="642" type="line" smooth="yes"/>
      <point x="956" y="820"/>
      <point x="967" y="921"/>
      <point x="831" y="921" type="curve" smooth="yes"/>
      <point x="676" y="921"/>
      <point x="428" y="782"/>
      <point x="264" y="379" type="curve"/>
      <point x="289" y="375" type="line"/>
      <point x="394" y="628"/>
      <point x="448" y="772"/>
      <point x="448" y="845" type="curve" smooth="yes"/>
      <point x="448" y="896"/>
      <point x="424" y="921"/>
      <point x="367" y="921" type="curve" smooth="yes"/>
      <point x="310" y="921"/>
      <point x="239" y="884"/>
      <point x="195" y="817" type="curve" smooth="yes"/>
      <point x="186" y="805"/>
      <point x="187" y="792"/>
      <point x="196" y="787" type="curve" smooth="yes"/>
      <point x="209" y="782"/>
      <point x="219" y="791"/>
      <point x="234" y="803" type="curve" smooth="yes"/>
      <point x="279" y="850"/>
      <point x="310" y="865"/>
      <point x="334" y="865" type="curve" smooth="yes"/>
      <point x="384" y="865"/>
      <point x="394" y="827"/>
      <point x="347" y="689" type="curve" smooth="yes"/>
      <point x="144" y="103" type="line" smooth="yes"/>
      <point x="110" y="16"/>
      <point x="116" y="-15"/>
      <point x="156" y="-15" type="curve" smooth="yes"/>
      <point x="195" y="-15"/>
      <point x="231" y="8"/>
      <point x="231" y="38" type="curve" smooth="yes"/>
      <point x="231" y="64"/>
      <point x="218" y="87"/>
      <point x="218" y="104" type="curve" smooth="yes"/>
      <point x="218" y="127"/>
      <point x="224" y="153"/>
      <point x="267" y="293" type="curve" smooth="yes"/>
      <point x="387" y="673"/>
      <point x="647" y="868"/>
      <point x="784" y="868" type="curve" smooth="yes"/>
      <point x="869" y="868"/>
      <point x="889" y="818"/>
      <point x="835" y="650" type="curve" smooth="yes"/>
      <point x="585" y="-164" type="line" smooth="yes"/>
      <point x="567" y="-216"/>
      <point x="559" y="-257"/>
      <point x="556" y="-299" type="curve" smooth="yes"/>
      <point x="547" y="-391"/>
      <point x="481" y="-441"/>
      <point x="417" y="-441" type="curve" smooth="yes"/>
      <point x="368" y="-441"/>
      <point x="345" y="-416"/>
      <point x="301" y="-416" type="curve" smooth="yes"/>
      <point x="262" y="-416"/>
      <point x="244" y="-439"/>
      <point x="244" y="-463" type="curve" smooth="yes"/>
      <point x="244" y="-492"/>
      <point x="273" y="-515"/>
      <point x="331" y="-515" type="curve" smooth="yes"/>
      <point x="466" y="-515"/>
      <point x="561" y="-439"/>
    </contour>
  </outline>
</glyph>
<glyph name="OE" format="2">
  <advance width="1874"/>
  <unicode hex="0152"/>
  <outline>
    <contour>
      <point x="1439" y="0" type="line" smooth="yes"/>
      <point x="1472" y="0"/>
      <point x="1486" y="-26"/>
      <point x="1509" y="-26" type="curve" smooth="yes"/>
      <point x="1614" y="-26"/>
      <point x="1736" y="143"/>
      <point x="1736" y="284" type="curve" smooth="yes"/>
      <point x="1736" y="296"/>
      <point x="1729" y="303"/>
      <point x="1719" y="303" type="curve" smooth="yes"/>
      <point x="1712" y="303"/>
      <point x="1702" y="298"/>
      <point x="1699" y="288" type="curve" smooth="yes"/>
      <point x="1636" y="107"/>
      <point x="1541" y="33"/>
      <point x="1402" y="33" type="curve" smooth="yes"/>
      <point x="1067" y="33" type="line" smooth="yes"/>
      <point x="996" y="33"/>
      <point x="971" y="62"/>
      <point x="986" y="115" type="curve" smooth="yes"/>
      <point x="1017" y="298"/>
      <point x="1225" y="1020"/>
      <point x="1313" y="1369" type="curve"/>
      <point x="1698" y="1369" type="line" smooth="yes"/>
      <point x="1769" y="1369"/>
      <point x="1820" y="1336"/>
      <point x="1880" y="1173" type="curve" smooth="yes"/>
      <point x="1890" y="1153"/>
      <point x="1901" y="1142"/>
      <point x="1917" y="1142" type="curve" smooth="yes"/>
      <point x="1933" y="1142"/>
      <point x="1944" y="1154"/>
      <point x="1937" y="1178" type="curve" smooth="yes"/>
      <point x="1884" y="1407" type="line" smooth="yes"/>
      <point x="1878" y="1430"/>
      <point x="1870" y="1437"/>
      <point x="1853" y="1437" type="curve" smooth="yes"/>
      <point x="1825" y="1437"/>
      <point x="1795" y="1400"/>
      <point x="1745" y="1400" type="curve" smooth="yes"/>
      <point x="1057" y="1400" type="line" smooth="yes"/>
      <point x="665" y="1400"/>
      <point x="309" y="1145"/>
      <point x="203" y="749" type="curve" smooth="yes"/>
      <point x="81" y="313"/>
      <point x="285" y="0"/>
      <point x="661" y="0" type="curve" smooth="yes"/>
    </contour>
    <contour>
      <point x="288" y="768" type="curve" smooth="yes"/>
      <point x="382" y="1133"/>
      <point x="690" y="1355"/>
      <point x="1042" y="1355" type="curve" smooth="yes"/>
      <point x="1227" y="1355" type="line"/>
      <point x="882" y="41" type="line"/>
      <point x="691" y="41" type="line" smooth="yes"/>
      <point x="355" y="41"/>
      <point x="171" y="333"/>
    </contour>
    <contour>
      <point x="1102" y="707" type="line"/>
      <point x="1091" y="674" type="line"/>
      <point x="1512" y="674" type="line" smooth="yes"/>
      <point x="1574" y="674"/>
      <point x="1602" y="652"/>
      <point x="1630" y="555" type="curve" smooth="yes"/>
      <point x="1637" y="539"/>
      <point x="1647" y="532"/>
      <point x="1662" y="533" type="curve" smooth="yes"/>
      <point x="1675" y="534"/>
      <point x="1686" y="543"/>
      <point x="1681" y="565" type="curve" smooth="yes"/>
      <point x="1618" y="848" type="line" smooth="yes"/>
      <point x="1616" y="860"/>
      <point x="1609" y="868"/>
      <point x="1592" y="868" type="curve" smooth="yes"/>
      <point x="1580" y="868"/>
      <point x="1572" y="860"/>
      <point x="1574" y="847" type="curve" smooth="yes"/>
      <point x="1586" y="736"/>
      <point x="1558" y="707"/>
      <point x="1497" y="707" type="curve" smooth="yes"/>
    </contour>
  </outline>
</glyph>
<glyph name="oe" format="2">
  <advance width="1435"/>
  <unicode hex="0153"/>
  <outline>
    <contour>
      <point x="593" y="920" type="curve" smooth="yes"/>
      <point x="364" y="939"/>
      <point x="146" y="716"/>
      <point x="94" y="430" type="curve" smooth="yes"/>
      <point x="46" y="153"/>
      <point x="167" y="-7"/>
      <point x="329" y="-15" type="curve" smooth="yes"/>
      <point x="502" y="-26"/>
      <point x="675" y="89"/>
      <point x="754" y="296" type="curve"/>
      <point x="735" y="300" type="line"/>
      <point x="725" y="84"/>
      <point x="826" y="-15"/>
      <point x="972" y="-15" type="curve" smooth="yes"/>
      <point x="1194" y="-15"/>
      <point x="1343" y="130"/>
      <point x="1361" y="275" type="curve" smooth="yes"/>
      <point x="1362" y="291"/>
      <point x="1357" y="299"/>
      <point x="1347" y="299" type="curve" smooth="yes"/>
      <point x="1339" y="299"/>
      <point x="1334" y="294"/>
      <point x="1329" y="281" type="curve" smooth="yes"/>
      <point x="1267" y="113"/>
      <point x="1143" y="29"/>
      <point x="1009" y="29" type="curve" smooth="yes"/>
      <point x="880" y="29"/>
      <point x="792" y="127"/>
      <point x="801" y="329" type="curve" smooth="yes"/>
      <point x="817" y="623"/>
      <point x="1026" y="886"/>
      <point x="1184" y="886" type="curve" smooth="yes"/>
      <point x="1265" y="886"/>
      <point x="1318" y="815"/>
      <point x="1318" y="714" type="curve" smooth="yes"/>
      <point x="1318" y="696"/>
      <point x="1315" y="675"/>
      <point x="1311" y="654" type="curve"/>
      <point x="1324" y="668" type="line"/>
      <point x="1150" y="598"/>
      <point x="787" y="441"/>
      <point x="787" y="441" type="curve"/>
      <point x="794" y="410" type="line"/>
      <point x="794" y="410"/>
      <point x="1258" y="611"/>
      <point x="1418" y="671" type="curve" smooth="yes"/>
      <point x="1432" y="677"/>
      <point x="1442" y="684"/>
      <point x="1441" y="698" type="curve" smooth="yes"/>
      <point x="1441" y="713"/>
      <point x="1430" y="718"/>
      <point x="1414" y="713" type="curve" smooth="yes"/>
      <point x="1399" y="708"/>
      <point x="1390" y="714"/>
      <point x="1390" y="725" type="curve" smooth="yes"/>
      <point x="1390" y="834"/>
      <point x="1326" y="922"/>
      <point x="1209" y="922" type="curve" smooth="yes"/>
      <point x="1055" y="922"/>
      <point x="896" y="792"/>
      <point x="801" y="580" type="curve"/>
      <point x="818" y="576" type="line"/>
      <point x="824" y="773"/>
      <point x="736" y="909"/>
    </contour>
    <contour>
      <point x="348" y="23" type="curve" smooth="yes"/>
      <point x="210" y="29"/>
      <point x="118" y="155"/>
      <point x="165" y="418" type="curve" smooth="yes"/>
      <point x="215" y="702"/>
      <point x="390" y="896"/>
      <point x="575" y="882" type="curve" smooth="yes"/>
      <point x="707" y="873"/>
      <point x="792" y="730"/>
      <point x="751" y="480" type="curve" smooth="yes"/>
      <point x="698" y="181"/>
      <point x="517" y="16"/>
    </contour>
  </outline>
</glyph>
<glyph name="Tbar" format="2">
  <advance width="1025"/>
  <unicode hex="0166"/>
  <outline>
    <contour>
      <point x="226" y="714" type="curve" smooth="yes"/>
      <point x="222" y="702"/>
      <point x="227" y="694"/>
      <point x="243" y="694" type="curve" smooth="yes"/>
      <point x="947" y="694" type="line" smooth="yes"/>
      <point x="964" y="694"/>
      <point x="974" y="702"/>
      <point x="978" y="714" type="curve" smooth="yes"/>
      <point x="982" y="726"/>
      <point x="978" y="733"/>
      <point x="961" y="733" type="curve" smooth="yes"/>
      <point x="257" y="733" type="line" smooth="yes"/>
      <point x="240" y="733"/>
      <point x="230" y="726"/>
    </contour>
    <component base="T"/>
  </outline>
</glyph>
<glyph name="tbar" format="2">
  <advance width="676"/>
  <unicode hex="0167"/>
  <outline>
    <contour>
      <point x="100" y="511" type="curve" smooth="yes"/>
      <point x="95" y="500"/>
      <point x="101" y="493"/>
      <point x="116" y="493" type="curve" smooth="yes"/>
      <point x="535" y="493" type="line" smooth="yes"/>
      <point x="549" y="493"/>
      <point x="560" y="500"/>
      <point x="564" y="511" type="curve" smooth="yes"/>
      <point x="568" y="523"/>
      <point x="562" y="531"/>
      <point x="548" y="531" type="curve" smooth="yes"/>
      <point x="127" y="531" type="line" smooth="yes"/>
      <point x="115" y="531"/>
      <point x="104" y="523"/>
    </contour>
    <contour>
      <point x="311" y="849" type="line" smooth="yes"/>
      <point x="340" y="844"/>
      <point x="337" y="825"/>
      <point x="320" y="773" type="curve" smooth="yes"/>
      <point x="146" y="182" type="line" smooth="yes"/>
      <point x="107" y="54"/>
      <point x="127" y="-15"/>
      <point x="230" y="-15" type="curve" smooth="yes"/>
      <point x="348" y="-15"/>
      <point x="491" y="73"/>
      <point x="512" y="156" type="curve" smooth="yes"/>
      <point x="513" y="165"/>
      <point x="509" y="171"/>
      <point x="499" y="172" type="curve" smooth="yes"/>
      <point x="490" y="173"/>
      <point x="486" y="171"/>
      <point x="474" y="158" type="curve" smooth="yes"/>
      <point x="407" y="81"/>
      <point x="348" y="47"/>
      <point x="277" y="47" type="curve" smooth="yes"/>
      <point x="207" y="47"/>
      <point x="180" y="84"/>
      <point x="230" y="242" type="curve" smooth="yes"/>
      <point x="466" y="1012" type="line" smooth="yes"/>
      <point x="473" y="1031"/>
      <point x="478" y="1044"/>
      <point x="478" y="1054" type="curve" smooth="yes"/>
      <point x="478" y="1068"/>
      <point x="473" y="1073"/>
      <point x="461" y="1073" type="curve" smooth="yes"/>
      <point x="451" y="1073"/>
      <point x="443" y="1069"/>
      <point x="434" y="1055" type="curve" smooth="yes"/>
      <point x="353" y="922" type="line" smooth="yes"/>
      <point x="345" y="911"/>
      <point x="337" y="906"/>
      <point x="319" y="906" type="curve" smooth="yes"/>
      <point x="212" y="906" type="line" smooth="yes"/>
      <point x="199" y="906"/>
      <point x="185" y="897"/>
      <point x="185" y="888" type="curve" smooth="yes"/>
      <point x="185" y="877"/>
      <point x="194" y="870"/>
      <point x="209" y="868" type="curve" smooth="yes"/>
    </contour>
    <contour>
      <point x="352" y="866" type="line"/>
      <point x="649" y="866" type="line" smooth="yes"/>
      <point x="678" y="866"/>
      <point x="696" y="874"/>
      <point x="696" y="890" type="curve" smooth="yes"/>
      <point x="696" y="899"/>
      <point x="688" y="906"/>
      <point x="674" y="906" type="curve" smooth="yes"/>
      <point x="366" y="906" type="line"/>
    </contour>
  </outline>
</glyph>
<glyph name="uogonek" format="2">
  <advance width="1079"/>
  <unicode hex="0173"/>
  <outline>
    <contour>
      <point x="780" y="27" type="line"/>
      <point x="589" y="-48"/>
      <point x="473" y="-179"/>
      <point x="473" y="-294" type="curve" smooth="yes"/>
      <point x="473" y="-370"/>
      <point x="526" y="-417"/>
      <point x="615" y="-417" type="curve" smooth="yes"/>
      <point x="701" y="-417"/>
      <point x="771" y="-364"/>
      <point x="790" y="-316" type="curve" smooth="yes"/>
      <point x="795" y="-305"/>
      <point x="789" y="-300"/>
      <point x="783" y="-300" type="curve" smooth="yes"/>
      <point x="775" y="-299"/>
      <point x="770" y="-302"/>
      <point x="761" y="-312" type="curve" smooth="yes"/>
      <point x="730" y="-354"/>
      <point x="676" y="-378"/>
      <point x="630" y="-378" type="curve" smooth="yes"/>
      <point x="577" y="-378"/>
      <point x="542" y="-345"/>
      <point x="542" y="-284" type="curve" smooth="yes"/>
      <point x="542" y="-187"/>
      <point x="635" y="-72"/>
      <point x="789" y="2" type="curve"/>
    </contour>
    <component base="u"/>
  </outline>
</glyph>
<glyph name="Schwa" format="2">
  <advance width="1421"/>
  <unicode hex="018F"/>
  <outline>
    <contour>
      <point x="170" y="533" type="curve" smooth="yes"/>
      <point x="86" y="219"/>
      <point x="243" y="-17"/>
      <point x="540" y="-17" type="curve" smooth="yes"/>
      <point x="907" y="-17"/>
      <point x="1245" y="296"/>
      <point x="1342" y="661" type="curve" smooth="yes"/>
      <point x="1465" y="1105"/>
      <point x="1310" y="1417"/>
      <point x="952" y="1417" type="curve" smooth="yes"/>
      <point x="650" y="1417"/>
      <point x="388" y="1239"/>
      <point x="311" y="1032" type="curve" smooth="yes"/>
      <point x="306" y="1018"/>
      <point x="307" y="1004"/>
      <point x="325" y="1004" type="curve" smooth="yes"/>
      <point x="342" y="1004"/>
      <point x="351" y="1014"/>
      <point x="361" y="1029" type="curve" smooth="yes"/>
      <point x="458" y="1209"/>
      <point x="663" y="1366"/>
      <point x="921" y="1366" type="curve" smooth="yes"/>
      <point x="1227" y="1366"/>
      <point x="1377" y="1093"/>
      <point x="1259" y="653" type="curve" smooth="yes"/>
      <point x="1167" y="325"/>
      <point x="892" y="21"/>
      <point x="563" y="21" type="curve" smooth="yes"/>
      <point x="296" y="21"/>
      <point x="183" y="261"/>
      <point x="252" y="523" type="curve" smooth="yes"/>
      <point x="266" y="581"/>
      <point x="296" y="603"/>
      <point x="344" y="603" type="curve" smooth="yes"/>
      <point x="1289" y="603" type="line"/>
      <point x="1302" y="640" type="line"/>
      <point x="305" y="640" type="line" smooth="yes"/>
      <point x="234" y="640"/>
      <point x="191" y="611"/>
    </contour>
  </outline>
</glyph>
